<svg width="1200" height="800" viewBox="0 0 1200 800" fill="none" xmlns="http://www.w3.org/2000/svg">
<g clip-path="url(#clip0_3_706)">
<rect width="1200" height="800" rx="40" fill="white"/>
<mask id="mask0_3_706" style="mask-type:luminance" maskUnits="userSpaceOnUse" x="0" y="0" width="1200" height="800">
<path d="M1200 0H0V800H1200V0Z" fill="white"/>
</mask>
<g mask="url(#mask0_3_706)">
<path d="M1200 0H0V800H1200V0Z" fill="#FFF4E6"/>
</g>
<mask id="mask1_3_706" style="mask-type:luminance" maskUnits="userSpaceOnUse" x="0" y="0" width="1200" height="800">
<path d="M1200 0H0V800H1200V0Z" fill="white"/>
</mask>
<g mask="url(#mask1_3_706)">
<path d="M-204.6 1066.4C-125 1060.6 -47.5 1027.8 12.1 974.6C82.9 911.4 126.3 823.5 162 735.5C197.7 647.5 227.8 556.3 279.2 476.6C330.6 396.9 407.9 327.9 501.5 312.1C560.2 302.2 621.3 313.6 679.4 300.9C863.3 260.5 939 4.49996 1124.2 -29.6C1203.4 -44.2 1284.6 -13 1364.8 -20.5C1469.7 -30.4 1563.6 -113.5 1586.2 -216.4" stroke="#F2E5D5" stroke-miterlimit="10"/>
<path d="M-215.6 1056.2C-136.9 1047 -58.9 1013.3 2.40002 962C59.6 914.3 101.2 854 134.7 792C144.1 774.6 152.9 757 161.4 739.5C182.5 696.2 202.1 651.8 224.7 606.4C243.8 568.1 264 528.9 287.5 491.5C297 476.4 307.1 461.6 317.9 447.4C355.5 397.8 400.9 355.8 453.4 332.3C467.1 326.2 481.2 321.3 495.8 317.9C537.3 308.1 580.4 310 623.3 304.4C636.6 302.7 649.9 300.2 663.2 296.5C708.5 283.7 748.2 257.8 785.8 227.2C824.3 195.8 859.7 159.9 895.3 123.3C955.2 61.5 1015.2 -1.69997 1092.9 -27.3C1100.2 -29.7 1107.7 -31.8 1115.4 -33.5C1188.9 -50 1264.1 -28.7 1339.6 -33.2C1345 -33.5 1350.4 -34 1355.8 -34.6C1461.7 -46.5 1558.7 -124.4 1584.9 -217.8" stroke="#F2E5D5" stroke-miterlimit="10"/>
<path d="M-226.7 1045.9C-149 1033.4 -70.5 998.6 -7.39996 949.2C51.6 903 96.2 846.9 132.2 790.7C142.2 774.9 151.7 759 160.9 743.2C183.6 704.1 205.2 664.2 230.1 620.6C251.1 583.8 272.5 544.4 295.9 506.2C305.4 490.8 315.3 475.6 325.6 461C361.6 409.9 403.1 366.1 451.3 340.2C463.9 333.5 476.9 327.9 490.3 323.7C528.6 311.6 568.4 310.7 609.1 302.3C621.7 299.7 634.4 296.5 647.2 292C690.8 276.8 730.5 249.3 769 219.2C808.7 188.3 845.8 155.4 882.9 120.5C945.2 61.6 1006.8 -2.20003 1084.3 -30.5C1091.6 -33.2 1099.1 -35.5 1106.7 -37.5C1179.9 -56.8 1254.4 -40.5 1330.6 -47C1336.1 -47.5 1341.5 -48 1347 -48.8C1454 -62.8 1554 -135.4 1583.8 -219.4" stroke="#F2E5D5" stroke-miterlimit="10"/>
<path d="M-237.7 1035.6C-160.9 1019.8 -82 983.9 -17.1 936.4C43.8 891.7 91.6 839.9 129.7 789.4C140.4 775.2 150.4 761.1 160.3 747C184.7 712.2 208.2 676.6 235.4 634.9C258.3 599.7 280.9 560 304.2 521C313.6 505.3 323.3 489.7 333.1 474.6C367.5 422 405.1 376.5 449 348C460.4 340.6 472.3 334.4 484.6 329.4C519.6 315.1 556.2 311.2 594.7 300.2C606.6 296.8 618.8 292.8 631.1 287.6C673.1 269.9 712.6 240.8 752.2 211.3C793.1 180.9 831.8 151 870.4 117.9C935.2 61.9 998.3 -2.49997 1075.6 -33.5C1082.9 -36.4 1090.3 -39 1097.9 -41.3C1170.7 -63.4 1244.7 -52.1 1321.5 -60.6C1327 -61.2 1332.5 -61.9 1338 -62.7C1446 -78.8 1549 -146.1 1582.5 -220.6" stroke="#F2E5D5" stroke-miterlimit="10"/>
<path d="M-248.7 1025.3C-172.9 1006.1 -93.3999 969.3 -26.7999 923.6C36.0001 880.5 86.8 832.9 127.2 788.1C138.6 775.5 149.2 763.1 159.8 750.8C186 720.3 211.4 689.1 240.7 649.2C265.4 615.5 289.3 575.6 312.6 535.7C322 519.7 331.4 503.6 340.8 488.2C373.5 434.1 407.3 386.8 446.9 355.9C457.2 347.9 468 341 479.1 335.2C510.8 318.7 544.3 311.7 580.5 298.1C591.7 293.9 603.3 289 615.1 283.1C655.4 262.9 694.8 232.3 735.5 203.3C777.6 173.4 818 146.6 858.1 115.1C925.4 62.2 990 -3.00003 1067.1 -36.7C1074.4 -39.9 1081.7 -42.7 1089.3 -45.3C1161.7 -70.3 1235.2 -63.9 1312.6 -74.4C1318.1 -75.2 1323.7 -76 1329.3 -76.9C1438.3 -95.1 1544.4 -157.1 1581.5 -222.2" stroke="#F2E5D5" stroke-miterlimit="10"/>
<path d="M-259.8 1015.1C-184.9 992.6 -104.9 954.8 -36.6001 910.9C28.0999 869.4 81.8999 825.9 124.7 786.9C136.7 775.9 148 765.2 159.2 754.7C187.1 728.5 214.4 701.7 246 663.6C272.6 631.5 297.6 591.3 320.9 550.6C330.3 534.2 339.5 517.8 348.4 501.9C379.5 446.2 409.3 397.1 444.7 363.9C453.9 355.3 463.5 347.7 473.5 341.1C502 322.3 532.2 312.4 566.1 296.1C576.6 291.1 587.6 285.4 598.9 278.8C637.6 256.2 676.8 224 718.5 195.5C761.8 166.1 803.9 142.3 845.4 112.5C915.1 62.5 981.3 -3.40004 1058.2 -39.7C1065.4 -43.1 1072.8 -46.3 1080.3 -49.1C1152.4 -76.9 1225.3 -75.5 1303.2 -87.9C1308.8 -88.8 1314.4 -89.8 1320 -90.8C1430 -111.1 1539.2 -167.8 1579.9 -223.4" stroke="#F2E5D5" stroke-miterlimit="10"/>
<path d="M-270.8 1004.8C-196.9 978.9 -116.3 940.1 -46.3 898.1C20.2999 858.1 77.0999 818.9 122.2 785.6C134.8 776.3 146.7 767.2 158.7 758.4C188.3 736.5 217.5 714 251.4 677.8C279.9 647.2 306.1 606.8 329.3 565.3C338.6 548.6 347.6 531.8 356 515.5C385.5 458.3 411.4 407.4 442.5 371.7C450.6 362.4 459.1 354.1 467.9 346.8C493.1 325.8 520.1 312.9 551.8 293.9C561.6 288 572 281.6 582.8 274.3C619.8 249.2 658.9 215.5 701.7 187.5C746.2 158.6 789.9 137.9 833 109.7C905.1 62.6 972.9 -3.90002 1049.6 -42.9C1056.8 -46.6 1064.1 -50 1071.6 -53.1C1143.3 -83.8 1215.6 -87.3 1294.2 -101.7C1299.8 -102.7 1305.5 -103.8 1311.2 -105C1422.2 -127.4 1534.4 -178.8 1578.8 -224.9" stroke="#F2E5D5" stroke-miterlimit="10"/>
<path d="M-281.8 994.5C-208.8 965.3 -127.7 925.5 -56.0001 885.3C12.4999 846.9 72.1999 811.9 119.7 784.3C133 776.6 145.5 769.3 158.1 762.2C189.5 744.6 220.5 726.5 256.7 692.1C287.1 663.1 314.5 622.4 337.6 580C346.9 563 355.6 545.8 363.6 529C391.5 470.3 413.5 417.7 440.3 379.5C447.3 369.6 454.6 360.6 462.3 352.5C484.3 329.2 508 313.4 537.5 291.8C546.6 285.1 556.4 277.9 566.7 269.8C602.1 242.3 641 206.9 684.9 179.5C730.6 151.1 776 133.4 820.6 107C895.1 62.8 964.5 -4.30003 1041 -46C1048.2 -49.9 1055.5 -53.6 1062.9 -57.1C1134.2 -90.6 1206 -99.1 1285.2 -115.5C1290.9 -116.7 1296.6 -117.9 1302.3 -119.1C1414.4 -143.6 1529.6 -189.7 1577.6 -226.4" stroke="#F2E5D5" stroke-miterlimit="10"/>
<path d="M-292.9 984.3C-220.9 951.7 -139.2 911 -65.8 872.6C4.59998 835.8 67.2999 804.9 117.2 783.1C131.1 777 144.3 771.4 157.6 766.1C190.8 752.8 223.6 739 262 706.5C294.3 679 322.9 638.1 345.9 594.9C355.2 577.6 363.7 559.9 371.2 542.8C397.4 482.6 415.5 428.2 438.1 387.5C443.9 377 450.2 367.3 456.7 358.4C475.4 332.9 496 314.2 523.2 289.8C531.6 282.3 540.8 274.3 550.7 265.5C584.4 235.5 623.2 198.6 668.1 171.7C715 143.8 762 129.1 808.1 104.4C885.1 63.1 956 -4.60001 1032.3 -49C1039.5 -53.2 1046.7 -57.1 1054.1 -60.9C1125 -97.3 1196.3 -110.7 1276.1 -129.1C1281.8 -130.4 1287.6 -131.8 1293.4 -133.1C1406.5 -159.6 1524.8 -200.5 1576.4 -227.7" stroke="#F2E5D5" stroke-miterlimit="10"/>
<path d="M-303.9 974C-232.8 938.1 -150.6 896.4 -75.5 859.8C-3.20003 824.6 62.4 797.9 114.7 781.7C129.2 777.2 143.1 773.3 157 769.8C192 760.8 226.7 751.4 267.3 720.7C301.5 694.8 331.3 653.6 354.3 609.6C363.5 592 371.8 573.9 378.9 556.3C403.5 494.6 417.7 438.4 436 395.3C440.7 384.1 445.8 373.7 451.2 364.1C466.6 336.3 484 314.7 509 287.6C516.7 279.3 525.3 270.4 534.7 261C566.8 228.5 605.4 190.1 651.4 163.6C699.5 136.2 748.1 124.6 795.8 101.5C875.2 63.1 947.7 -5.20002 1023.8 -52.3C1030.9 -56.7 1038.2 -60.9 1045.5 -65C1116.1 -104.2 1186.8 -122.6 1267.2 -143C1273 -144.5 1278.8 -145.9 1284.6 -147.4C1398.7 -176 1520 -211.6 1575.3 -229.4" stroke="#F2E5D5" stroke-miterlimit="10"/>
<path d="M-314.9 963.7C-244.8 924.4 -162 881.8 -85.2 847C-11 813.4 57.6 790.8 112.3 780.4C127.4 777.5 142 775.4 156.5 773.5C193.3 768.9 229.8 763.8 272.7 734.9C308.8 710.5 339.7 669.1 362.7 624.3C371.9 606.4 379.9 587.9 386.5 569.8C409.5 506.5 419.8 448.7 433.8 403C437.4 391.2 441.4 380.1 445.6 369.6C457.8 339.5 471.9 315 494.7 285.3C501.7 276.2 509.7 266.5 518.6 256.3C549 221.4 587.5 181.4 634.6 155.4C683.9 128.5 734.2 119.9 783.4 98.5C865.2 63 939.3 -5.89998 1015.2 -55.7C1022.3 -60.3 1029.5 -64.9 1036.8 -69.2C1107 -111.2 1177.2 -134.6 1258.1 -157C1263.9 -158.6 1269.8 -160.2 1275.6 -161.8C1390.7 -192.5 1515.1 -222.7 1574 -231.1" stroke="#F2E5D5" stroke-miterlimit="10"/>
<path d="M-326 953.5C-256.8 910.9 -173.5 867.3 -95 834.3C-18.8 802.3 52.6 783.8 109.7 779.2C125.5 777.9 140.7 777.2 155.9 777.4C194.5 778 232.8 776.3 278 749.3C316 726.5 348.1 684.8 371 639.1C380.2 620.8 388 602 394.1 583.5C415.5 518.7 421.9 459.1 431.6 411C434.1 398.6 436.9 386.8 440 375.5C448.9 343.1 459.9 315.8 480.4 283.3C486.7 273.4 494.1 262.9 502.5 252C531.3 214.6 569.6 173 617.7 147.6C668.2 121.1 720.1 115.6 770.8 96C855 63.4 930.7 -6.20004 1006.4 -58.6C1013.5 -63.5 1020.6 -68.3 1027.9 -72.9C1097.7 -117.8 1167.3 -146.1 1248.9 -170.5C1254.8 -172.3 1260.6 -174 1266.6 -175.6C1382.7 -208.4 1510.2 -233.3 1572.7 -232.2" stroke="#F2E5D5" stroke-miterlimit="10"/>
<path d="M-337 943.2C-268.8 897.2 -184.9 852.7 -104.7 821.6C-26.6 791.2 47.8 776.8 107.2 778C123.6 778.3 139.5 779.7 155.3 781.3C195.7 785.4 235.8 788.9 283.2 763.7C323.1 742.5 356.4 700.5 379.2 654C388.3 635.4 395.9 616.1 401.6 597.2C421.3 530.9 423.9 469.5 429.3 418.9C430.7 405.9 432.3 393.3 434.3 381.3C439.9 346.7 447.7 316.4 465.9 281.2C471.5 270.4 478.3 259.2 486.3 247.5C513.4 207.7 551.7 164.5 600.8 139.6C652.5 113.6 706 111.1 758.3 93.2C844.9 63.5 922.2 -6.69996 997.7 -61.8C1004.8 -66.9 1011.9 -72 1019.1 -76.9C1088.6 -124.6 1157.6 -157.9 1239.8 -184.2C1245.7 -186.1 1251.6 -187.9 1257.6 -189.7C1374.8 -224.6 1505.2 -244.2 1571.4 -233.7" stroke="#F2E5D5" stroke-miterlimit="10"/>
<path d="M-348 932.9C-280.7 883.6 -196.3 838.2 -114.4 808.8C-34.4 780.1 42.9 769.7 104.8 776.7C121.8 778.6 138.4 781.7 154.9 785.1C197.1 793.6 239.1 801.4 288.7 778C330.5 758.3 365 716.1 387.7 668.8C396.8 649.9 404.1 630.2 409.3 610.9C427.4 543.1 426.1 480 427.2 426.9C427.5 413.2 428 400 428.8 387.2C431.1 350.3 435.8 317.1 451.7 279.2C456.6 267.6 462.8 255.6 470.3 243.2C495.8 200.9 533.9 156.2 584.1 131.8C637 106.3 692.2 106.9 746 90.6C835 63.8 913.9 -6.99997 989.2 -64.8C996.2 -70.2 1003.3 -75.5 1010.5 -80.7C1079.6 -131.3 1148.1 -169.5 1230.9 -197.8C1236.8 -199.8 1242.8 -201.8 1248.9 -203.7C1367.1 -240.7 1500.6 -255 1570.4 -235" stroke="#F2E5D5" stroke-miterlimit="10"/>
<path d="M-359.1 922.7C-292.8 870 -207.8 823.7 -124.1 796.1C-42.1 769 38.1001 762.7 102.3 775.5C120 779 137.2 783.9 154.3 788.9C198.2 801.8 242.1 813.8 294 792.3C337.6 774.2 373.3 731.6 396.1 683.5C405.2 664.3 412.3 644.2 417 624.4C433.5 555.1 428.3 490.2 425.1 434.6C424.3 420.3 423.6 406.4 423.3 392.8C422.3 353.6 423.8 317.6 437.5 277C441.7 264.6 447.3 251.7 454.3 238.7C478.1 193.9 516.1 147.7 567.3 123.8C621.4 98.8 678.2 102.4 733.5 87.9C824.9 63.9 905.4 -7.4 980.5 -68C987.5 -73.6 994.6 -79.2 1001.7 -84.7C1070.4 -138.1 1138.4 -181.3 1221.8 -211.6C1227.8 -213.8 1233.8 -215.9 1239.9 -217.9C1359.1 -257 1495.7 -266 1569.1 -236.5" stroke="#F2E5D5" stroke-miterlimit="10"/>
<path d="M-370.1 912.4C-304.7 856.4 -219.2 809.2 -133.8 783.3C-49.9 757.9 33.3 755.6 99.8 774.2C118.1 779.3 136 786 153.8 792.7C199.5 810 245.2 826.3 299.4 806.6C344.9 790 381.8 747.2 404.5 698.3C413.6 678.8 420.4 658.3 424.7 638.1C439.6 567.3 430.7 500.6 423 442.6C421.1 427.7 419.3 413 417.8 398.7C413.5 357.3 411.9 318.3 423.3 275C426.8 261.8 431.8 248.1 438.3 234.3C460.5 187.1 498.3 139.2 550.6 115.9C605.9 91.4 664.3 98 721.2 85.2C815 64.1 897.1 -7.80001 972 -71.1C979 -77 986 -82.9 993.1 -88.6C1061.4 -144.9 1128.8 -193 1212.9 -225.3C1218.9 -227.6 1225 -229.8 1231.2 -231.9C1351.4 -273 1491.1 -276.8 1568.1 -237.9" stroke="#F2E5D5" stroke-miterlimit="10"/>
<path d="M-381.1 902.1C-316.7 842.7 -230.5 794.6 -143.5 770.5C-57.7 746.7 28.5 748.5 97.4 772.9C116.3 779.6 134.9 788 153.3 796.5C200.8 818.2 248.3 838.8 304.7 820.9C352.1 805.9 390.2 762.8 412.8 713.1C421.8 693.2 428.5 672.3 432.2 651.7C445.4 579.3 432.6 510.9 420.7 450.5C417.7 434.9 414.7 419.6 412.1 404.5C404.5 360.8 399.8 318.9 408.9 272.9C411.7 258.9 416.1 244.4 422.2 229.9C442.7 180.2 480.4 130.8 533.8 108C590.3 84 650.3 93.5 708.7 82.5C804.8 64.1 888.6 -8.30001 963.3 -74.2C970.3 -80.3 977.3 -86.5 984.3 -92.5C1052.3 -151.6 1119.1 -204.6 1203.7 -239C1209.8 -241.5 1215.9 -243.8 1222.1 -246C1343.3 -289.2 1486 -287.7 1566.7 -239.3" stroke="#F2E5D5" stroke-miterlimit="10"/>
<path d="M-392.2 891.8C-328.7 829.1 -242 780.1 -153.3 757.7C-65.4999 735.6 23.6001 741.4 94.8 771.6C114.4 779.9 133.5 790.1 152.7 800.2C201.9 826.3 251.3 851.1 310 835.1C359.3 821.6 398.6 778.3 421.1 727.7C430.1 707.5 436.5 686.2 439.8 665.2C451.4 591.3 434.7 521.2 418.5 458.2C414.4 442 410.2 426 406.5 410.1C395.6 364.2 387.8 319.4 394.6 270.7C396.7 255.9 400.6 240.6 406.1 225.4C425 173.3 462.5 122.3 516.9 100C574.6 76.5 636.3 89 696.2 79.7C794.8 64.2 880.1 -8.79998 954.6 -77.4C961.6 -83.8 968.5 -90.2 975.5 -96.6C1043.1 -158.5 1109.4 -216.5 1194.6 -252.9C1200.7 -255.5 1206.9 -258 1213.2 -260.3C1335.5 -305.6 1481.2 -298.8 1565.5 -241" stroke="#F2E5D5" stroke-miterlimit="10"/>
<path d="M-403.2 881.6C-340.7 815.5 -253.4 765.6 -163 745C-73.3 724.5 18.8 734.2 92.3 770.4C112.5 780.3 132.3 792.3 152.1 804.1C203 834.6 254.4 863.7 315.3 849.5C366.5 837.6 406.9 794 429.4 742.6C438.4 722.1 444.5 700.4 447.4 678.9C457.4 603.5 436.8 531.6 416.3 466.2C411.1 449.4 405.7 432.7 400.9 416C386.7 367.8 375.8 320.1 380.2 268.7C381.6 253.1 384.9 237 389.9 221C407.1 166.4 444.5 113.9 500 92.1C558.9 69.1 622.2 84.6 683.7 77.1C784.7 64.5 871.6 -9.10001 945.9 -80.4C952.8 -87 959.7 -93.7 966.7 -100.4C1033.9 -165.2 1099.7 -228.1 1185.5 -266.5C1191.7 -269.2 1197.9 -271.8 1204.2 -274.3C1327.5 -321.7 1476.3 -309.6 1564.2 -242.3" stroke="#F2E5D5" stroke-miterlimit="10"/>
<path d="M-414.2 871.3C-352.7 801.9 -264.8 751.2 -172.7 732.2C-81.0999 713.5 14 727.1 89.9 769.1C110.8 780.6 131.2 794.4 151.7 807.9C204.3 842.9 257.6 876.1 320.8 863.8C373.9 853.4 415.5 809.6 437.9 757.4C446.8 736.6 452.8 714.4 455.1 692.6C463.5 615.7 439 542 414.2 474.1C407.8 456.7 401.4 439.2 395.4 421.8C377.9 371.3 363.8 320.7 366 266.6C366.7 250.1 369.4 233.2 373.9 216.6C389.5 159.5 426.7 105.4 483.3 84.2C543.4 61.7 608.4 80.2 671.3 74.4C774.7 64.7 863.2 -9.50002 937.3 -83.5C944.2 -90.4 951.1 -97.3 958 -104.3C1024.9 -171.9 1090 -239.8 1176.5 -280.1C1182.7 -283 1189 -285.7 1195.3 -288.2C1319.6 -337.7 1471.4 -320.3 1563 -243.5" stroke="#F2E5D5" stroke-miterlimit="10"/>
<path d="M-425.3 861C-364.7 788.2 -276.3 736.6 -182.5 719.4C-88.9001 702.4 9.09999 720.1 87.3 767.8C108.8 780.9 129.8 796.4 151 811.7C205.4 851 260.5 888.6 325.9 878.1C380.9 869.3 423.7 825.2 446.1 772.1C455 751 460.7 728.4 462.6 706.1C469.3 627.7 441 552.2 411.9 481.9C404.4 463.8 396.8 445.7 389.7 427.5C368.9 374.8 351.6 321.2 351.6 264.4C351.6 247.1 353.7 229.4 357.7 212C371.6 152.5 408.7 96.8 466.3 76.1C527.6 54.1 594.2 75.6 658.7 71.5C764.5 64.7 854.6 -10.1 928.5 -86.8C935.4 -93.9 942.2 -101.1 949.1 -108.4C1015.6 -178.9 1080.2 -251.7 1167.3 -294C1173.5 -297 1179.9 -299.9 1186.3 -302.5C1311.6 -354.1 1466.5 -331.4 1561.8 -245.2" stroke="#F2E5D5" stroke-miterlimit="10"/>
<path d="M-436.3 850.8C-376.7 774.7 -287.7 722.2 -192.2 706.7C-96.7 691.3 4.29999 713.1 84.8 766.5C163.8 818.9 237.2 904.4 331.3 892.4C410.8 882.3 465.1 799.7 470.3 719.7C475.5 639.7 443.2 562.5 409.8 489.7C376.4 416.9 340.4 342.3 337.4 262.3C334.3 182.2 373.9 94.3 449.7 68.2C512.2 46.7 580.5 71.3 646.5 68.9C754.7 64.9 846.4 -10.4 920.1 -89.8C993.8 -169.2 1061.8 -258.8 1158.4 -307.6C1287.5 -372.8 1456.7 -347.1 1560.7 -246.5" stroke="#F2E5D5" stroke-miterlimit="10"/>
<path d="M-439.4 843.2C-380.1 766 -291.1 712.2 -195.1 695.6C-187 694.2 -178.9 693.1 -170.8 692.2C-82.2 682.8 9.6 704.4 84.5 752.8C98 761.5 111.2 771.2 124.5 781.1C190 830.6 254.8 888.8 333.5 878.3C411.6 868.1 465.2 787.6 471.3 709.2C474.4 669.2 468.1 629.9 457.1 591.5C446.5 554.6 431.6 518.4 416.3 483.3C385.2 411.6 351.5 338.1 349.3 259.5C347 180.9 385.7 95.2 458.7 67.6C519.7 44.6 586.6 64.8 651.9 60.4C710.2 56.5 764.3 33 813.7 0.799988C855.2 -26.2 893.2 -59.3 927.5 -92.7C962.6 -127 996.3 -163 1032 -196C1072.7 -233.7 1116.2 -267.6 1167.5 -290.7C1206.5 -308.2 1249.1 -317.9 1292.5 -320.5C1392.6 -326.3 1497.9 -294.6 1570 -231.8" stroke="#F2E5D5" stroke-miterlimit="10"/>
<path d="M-442.4 835.7C-383.4 757.3 -294.3 702.3 -197.9 684.6C-189.8 683.1 -181.7 681.9 -173.5 680.9C-84.4 670.5 8.29995 691.3 84.2 739.2C97.9 747.8 111.3 757.4 124.7 767.3C190.9 816.6 256.5 875.2 335.8 864.3C412.6 853.8 465.3 775.5 472.4 698.7C476 659.6 470.6 621 460.5 583.2C450.9 546.9 437 511.3 422.9 476.7C394 406 362.7 333.7 361.3 256.5C359.9 179.3 397.6 95.9 467.9 66.9C527.5 42.3 592.9 58.2 657.6 51.8C715.4 46.1 769.5 22.5 819.5 -8.40002C861.6 -34.2 900.2 -65 935.2 -95.7C970.9 -127.2 1005.2 -159.8 1041.2 -189.6C1082.2 -223.6 1125.8 -253.8 1176.9 -274C1215.8 -289.3 1258.2 -297.3 1301.6 -298.9C1401.6 -302.5 1508 -272.7 1579.7 -217.2" stroke="#F2E5D5" stroke-miterlimit="10"/>
<path d="M-445.5 828.2C-386.9 748.7 -297.7 692.5 -200.8 673.7C-192.7 672.1 -184.5 670.8 -176.3 669.8C-86.7 658.3 6.79999 678.4 83.8 725.8C97.7 734.3 111.3 743.8 124.9 753.7C191.9 802.7 258.2 861.9 338 850.6C413.4 839.9 465.3 763.8 473.4 688.5C477.5 650.2 472.9 612.3 463.8 575.3C455.1 539.6 442.4 504.6 429.4 470.5C402.8 400.9 373.8 329.8 373.2 254C372.6 178.2 409.4 97.1 476.9 66.7C535 40.5 599 52.1 663.1 43.8C720.3 36.3 774.5 12.5 825.2 -16.9C867.8 -41.6 907.2 -70 942.8 -98C979.2 -126.6 1014 -156 1050.3 -182.5C1091.6 -212.8 1135.2 -239.2 1186.2 -256.5C1225 -269.6 1267.1 -275.9 1310.5 -276.5C1410.3 -277.8 1517.9 -250 1589.2 -201.8" stroke="#F2E5D5" stroke-miterlimit="10"/>
<path d="M-448.5 820.7C-390.2 740.1 -301 682.6 -203.6 662.7C-195.4 661 -187.2 659.6 -178.9 658.5C-88.7 646 5.6 665.2 83.5 712.1C97.6 720.5 111.4 730 125.2 739.8C192.9 788.5 260 848.3 340.3 836.5C414.4 825.7 465.4 751.6 474.5 677.9C479.1 640.5 475.3 603.3 467.2 566.9C459.5 531.9 447.9 497.4 436 463.9C411.6 395.4 384.9 325.4 385.1 251C385.3 176.7 421.2 97.7 486 65.9C542.7 38.1 605.3 45.4 668.6 35.1C725.2 25.8 779.5 1.9 830.8 -26.2C874 -49.7 914 -75.9 950.3 -101.1C987.4 -126.9 1022.8 -153 1059.3 -176.2C1100.9 -202.7 1144.6 -225.5 1195.5 -239.8C1234.2 -250.6 1276.1 -255.3 1319.4 -254.9C1419.1 -253.9 1527.8 -228.1 1598.7 -187.3" stroke="#F2E5D5" stroke-miterlimit="10"/>
<path d="M-451.6 813.1C-393.7 731.4 -304.4 672.6 -206.5 651.6C-198.3 649.8 -190 648.3 -181.7 647.1C-91 633.6 4.10004 652 83.1 698.4C97.4 706.8 111.4 716.1 125.3 725.9C193.7 774.4 261.6 834.7 342.4 822.5C415.1 811.5 465.3 739.6 475.5 667.4C480.6 630.8 477.6 594.3 470.5 558.7C463.7 524.3 453.3 490.5 442.5 457.4C420.5 390 396 321.1 397.1 248.2C398.2 175.3 433.1 98.4 495.1 65.4C550.4 35.9 611.5 39 674.2 26.7C730.3 15.6 784.6 -8.49998 836.5 -35.2C880.2 -57.6 920.9 -81.4 957.9 -103.9C995.6 -126.9 1031.6 -149.7 1068.4 -169.6C1110.3 -192.4 1154.1 -211.5 1204.8 -222.9C1243.4 -231.5 1285.1 -234.5 1328.4 -233.1C1428 -229.8 1537.8 -206.1 1608.2 -172.5" stroke="#F2E5D5" stroke-miterlimit="10"/>
<path d="M-454.6 805.6C-397 722.8 -307.6 662.8 -209.3 640.6C-201 638.7 -192.7 637.1 -184.4 635.8C-93.2 621.3 2.80005 638.9 82.8 684.8C97.3 693.1 111.5 702.3 125.6 712.1C194.7 760.3 263.4 821.2 344.7 808.5C416 797.4 465.4 727.5 476.6 656.9C482.2 621.1 480.1 585.4 473.9 550.5C468.1 516.7 458.7 483.5 449.1 450.9C429.3 384.6 407.2 316.8 409.1 245.3C411 173.8 445 99 504.3 64.8C558.2 33.6 617.8 32.5 679.9 18.3C735.4 5.49999 789.8 -18.8 842.3 -44.1C886.6 -65.3 927.9 -86.8 965.6 -106.6C1004 -126.8 1040.5 -146.2 1077.6 -162.9C1119.8 -182 1163.7 -197.3 1214.2 -205.8C1252.7 -212.2 1294.2 -213.5 1337.4 -211C1436.9 -205.5 1547.8 -183.7 1617.8 -157.4" stroke="#F2E5D5" stroke-miterlimit="10"/>
<path d="M-457.7 798.1C-400.5 714.2 -311 652.9 -212.2 629.6C-203.9 627.6 -195.5 626 -187.1 624.5C-95.4 609 1.40006 625.8 82.5001 671.1C97.2001 679.3 111.6 688.5 125.8 698.2C195.6 746.1 265.1 807.6 346.9 794.5C416.9 783.3 465.4 715.5 477.6 646.4C483.7 611.5 482.3 576.5 477.2 542.2C472.2 509.1 464.1 476.4 455.6 444.3C438.1 379 418.3 312.4 421 242.4C423.7 172.3 456.8 99.5 513.3 64.1C565.8 31.2 624 25.9 685.3 9.70001C740.3 -4.89999 794.8 -29.4 847.8 -53.3C892.7 -73.4 934.6 -92.6 973 -109.6C1012 -126.9 1049.1 -143.1 1086.5 -156.5C1129.1 -171.9 1173 -183.5 1223.3 -189.1C1261.6 -193.2 1303 -192.8 1346.2 -189.4C1445.5 -181.6 1557.5 -161.8 1627.2 -142.9" stroke="#F2E5D5" stroke-miterlimit="10"/>
<path d="M-460.7 790.5C-403.8 705.4 -314.3 642.9 -215 618.5C-206.7 616.4 -198.3 614.7 -189.8 613.2C-97.6 596.7 0.100014 612.7 82.2 657.5C97.1 665.6 111.7 674.7 126.1 684.4C196.7 732.1 266.9 794.2 349.2 780.5C417.8 769.2 465.5 703.4 478.7 635.9C485.2 601.8 484.7 567.5 480.6 534C476.6 501.5 469.6 469.4 462.1 437.9C446.9 373.7 429.3 308.2 432.9 239.6C436.4 171 468.6 100.1 522.4 63.6C573.5 28.9 630.2 19.5 690.9 1.39999C745.3 -15 799.9 -39.7 853.6 -62.2C899 -81.1 941.6 -98 980.7 -112.4C1020.3 -126.9 1058 -139.8 1095.7 -149.9C1138.6 -161.5 1182.6 -169.4 1232.7 -172.1C1270.9 -174 1312.1 -171.9 1355.2 -167.5C1454.4 -157.4 1567.5 -139.6 1636.8 -128" stroke="#F2E5D5" stroke-miterlimit="10"/>
<path d="M-463.8 783C-407.3 696.8 -317.7 633.1 -217.9 607.5C-209.5 605.4 -201.1 603.5 -192.6 601.9C-99.9001 584.4 -1.40001 599.6 81.8 643.9C96.9 651.9 111.7 660.9 126.3 670.6C197.6 718 268.6 780.7 351.5 766.6C418.8 755.2 465.6 691.5 479.9 625.5C486.9 592.3 487.3 558.7 484.1 525.9C481 494 475.2 462.5 468.8 431.5C455.8 368.4 440.6 304.1 445 236.9C449.4 169.7 480.6 100.7 531.6 63.2C581.3 26.7 636.5 13.2 696.5 -6.89998C750.4 -25.1 805 -49.9 859.3 -71.1C905.3 -88.9 948.5 -103.5 988.3 -115.1C1028.6 -126.8 1066.8 -136.4 1104.8 -143.2C1148 -151.1 1192.1 -155.3 1242 -155.1C1280.1 -154.8 1321.1 -151 1364.1 -145.6C1463.2 -133.2 1577.4 -117.4 1646.3 -113.2" stroke="#F2E5D5" stroke-miterlimit="10"/>
<path d="M-466.9 775.5C-410.7 688.2 -321 623.2 -220.8 596.5C-212.4 594.3 -203.9 592.3 -195.4 590.6C-102.2 572.1 -2.90004 586.5 81.4 630.3C96.7 638.2 111.7 647.2 126.4 656.8C198.4 703.9 270.2 767.3 353.6 752.7C419.5 741.2 465.7 679.5 480.8 615.2C488.4 582.8 489.5 549.9 487.3 517.8C485.2 486.6 480.4 455.6 475.2 425.1C464.5 363.1 451.6 299.9 456.8 234.1C462 168.3 492.2 101.1 540.6 62.6C588.8 24.2 642.7 6.70003 702 -15.4C755.3 -35.4 810 -60.4 864.9 -80.1C911.4 -96.7 955.3 -109 995.8 -117.9C1036.7 -126.8 1075.5 -133 1113.8 -136.6C1157.3 -140.8 1201.4 -141.3 1251.3 -138.1C1289.3 -135.6 1330.1 -130.1 1373.1 -123.7C1472.1 -109.1 1587.4 -95.2 1655.9 -98.3" stroke="#F2E5D5" stroke-miterlimit="10"/>
<path d="M-469.9 768C-414.1 679.6 -324.3 613.3 -223.6 585.5C-215.1 583.2 -206.6 581.1 -198 579.3C-104.3 559.8 -4.10005 573.4 81.2 616.6C96.7 624.4 111.9 633.3 126.8 642.9C199.5 689.8 272.1 753.7 356 738.6C420.6 727 465.9 667.4 482 604.6C490.1 573.1 492 540.9 490.8 509.5C489.6 478.9 486 448.5 481.9 418.6C473.5 357.7 462.9 295.6 468.9 231.3C474.9 167 504.1 101.5 549.8 62.1C596.6 21.7 649 0.29998 707.7 -23.7C760.4 -45.5 815.2 -70.6 870.7 -89C917.8 -104.5 962.3 -114.5 1003.5 -120.6C1045 -126.7 1084.5 -129.6 1123 -129.9C1166.8 -130.3 1211 -127.1 1260.7 -121.1C1298.6 -116.3 1339.2 -109.2 1382.1 -101.8C1480.9 -84.9 1597.4 -73 1665.5 -83.4" stroke="#F2E5D5" stroke-miterlimit="10"/>
<path d="M-473 760.4C-417.5 670.9 -327.7 603.3 -226.5 574.4C-218 572 -209.4 569.8 -200.8 567.9C-106.6 547.4 -5.60001 560.2 80.8 602.9C96.5 610.7 111.9 619.4 126.9 629C200.3 675.6 273.7 740.2 358.1 724.6C421.3 712.9 465.8 655.3 482.9 594.1C491.5 563.4 494.2 532 494 501.2C493.8 471.2 491.3 441.4 488.3 412C482.2 352.2 473.8 291.2 480.7 228.3C487.6 165.4 515.7 101.7 558.8 61.4C604 19 655.1 -6.29997 713.1 -32.3C765.3 -55.8 820.2 -81.2 876.3 -98.2C923.9 -112.5 969.1 -120.3 1011.1 -123.6C1053.3 -126.9 1093.3 -126.5 1132 -123.5C1176.1 -120.2 1220.4 -113.3 1269.9 -104.3C1307.7 -97.3 1348.1 -88.4 1390.9 -80.1C1489.6 -60.9 1607.2 -51 1674.9 -68.8" stroke="#F2E5D5" stroke-miterlimit="10"/>
<path d="M-476 752.9C-420.8 662.3 -331 593.5 -229.3 563.4C-220.8 560.9 -212.1 558.6 -203.5 556.7C-108.8 535.2 -6.90004 547.2 80.4 589.4C96.3 597.1 111.9 605.8 127.1 615.3C201.2 661.6 275.4 726.9 360.3 710.7C422.2 698.9 465.8 643.4 483.9 583.7C493 553.9 496.6 523.1 497.3 493.1C498 463.8 496.7 434.5 494.8 405.6C490.9 346.8 484.9 287 492.6 225.5C500.3 164 527.3 102 567.8 60.8C611.5 16.4 661.3 -12.8 718.6 -40.7C770.2 -66 825.2 -91.5 881.9 -107.1C930.1 -120.3 975.9 -125.7 1018.6 -126.3C1061.4 -126.9 1102 -123.1 1141 -116.8C1185.4 -109.8 1229.8 -99.2 1279.1 -87.2C1316.8 -78 1357 -67.4 1399.8 -58.1C1498.4 -36.6 1617.1 -28.8 1684.3 -53.8" stroke="#F2E5D5" stroke-miterlimit="10"/>
<path d="M-479.1 745.4C-424.3 653.6 -334.3 583.6 -232.2 552.5C-223.6 549.9 -215 547.5 -206.2 545.5C-111 523 -8.29996 534.2 80.1 575.9C96.2 583.5 112 592.1 127.4 601.6C202.3 647.7 277.2 713.6 362.6 696.9C423.2 685.1 465.9 631.5 485.1 573.4C494.7 544.4 499.1 514.4 500.8 485.1C502.5 456.4 502.2 427.7 501.5 399.3C499.9 341.6 496.2 282.9 504.7 222.9C513.2 162.9 539.1 102.4 577.1 60.5C619.2 14 667.7 -19 724.4 -48.9C775.5 -76 830.5 -101.7 887.8 -115.9C936.6 -127.9 983 -131.1 1026.4 -128.9C1069.8 -126.7 1111 -119.5 1150.3 -110C1195 -99.3 1239.5 -84.9 1288.6 -70.1C1326.2 -58.6 1366.2 -46.4 1408.9 -36.1C1507.4 -12.4 1627.2 -6.49996 1694 -38.8" stroke="#F2E5D5" stroke-miterlimit="10"/>
<path d="M-482.1 737.8C-427.7 645 -337.6 573.7 -235.1 541.4C-226.5 538.7 -217.8 536.3 -209 534.1C-113.3 510.6 -9.69999 520.9 79.7 562.1C96 569.6 112 578.1 127.5 587.5C203.1 633.3 278.8 699.9 364.7 682.6C423.9 670.7 465.8 619.2 486 562.6C496 534.4 501.3 505.1 504 476.5C506.7 448.4 507.5 420.4 507.9 392.5C508.6 335.9 507.2 278.3 516.5 219.7C525.8 161.1 550.5 102.3 586 59.5C626.4 10.9 673.7 -25.9 729.7 -57.8C780.2 -86.7 835.3 -112.5 893.2 -125.4C942.5 -136.2 989.6 -137.2 1033.7 -132.2C1077.8 -127.2 1119.5 -116.7 1159.1 -103.9C1204.1 -89.4 1248.7 -71.4 1297.7 -53.6C1335.2 -39.9 1374.9 -26 1417.6 -14.7C1515.9 11.3 1636.9 15.2 1703.3 -24.5" stroke="#F2E5D5" stroke-miterlimit="10"/>
<path d="M-485.2 730.3C-431.1 636.3 -341 563.8 -237.9 530.4C-229.2 527.6 -220.5 525.1 -211.7 522.8C-115.5 498.3 -11.1 507.8 79.4 548.5C95.9 555.9 112.1 564.4 127.8 573.7C204.1 619.3 280.6 686.5 367.1 668.7C425 656.8 465.9 607.2 487.2 552.2C497.7 524.9 503.9 496.3 507.5 468.4C511.1 440.9 513.1 413.5 514.6 386.1C517.5 330.6 518.4 274.2 528.6 217C538.8 159.8 562.2 102.6 595.3 59.1C633.9 8.40001 680.1 -32.2 735.5 -66C785.5 -96.7 840.6 -122.7 899.2 -134.2C949.1 -143.9 996.8 -142.6 1041.6 -134.8C1086.3 -127 1128.6 -113.2 1168.5 -97.1C1213.8 -78.9 1258.5 -57.1 1307.3 -36.5C1344.7 -20.6 1384.2 -5.00001 1426.9 7.29999C1525.1 35.6 1647.2 37.5 1713.2 -9.5" stroke="#F2E5D5" stroke-miterlimit="10"/>
<path d="M-488.2 722.8C-434.4 627.7 -344.3 553.9 -240.7 519.4C-232 516.5 -223.2 513.9 -214.4 511.5C-117.7 486 -12.4 494.7 79.1 534.9C95.8 542.2 112.2 550.6 128 559.9C205 605.2 282.3 673.2 369.3 654.7C425.8 642.7 465.9 595.2 488.2 541.7C499.2 515.2 506.2 487.4 510.8 460.2C515.4 433.4 518.5 406.5 521.1 379.6C526.3 325.2 529.5 269.9 540.5 214.1C551.5 158.3 573.6 102.7 604.3 58.5C641.1 5.59998 686.3 -38.7 741 -74.5C790.4 -106.9 845.6 -133.1 904.8 -143.2C955.2 -151.7 1003.6 -148.2 1049.1 -137.6C1094.4 -127.1 1137.4 -109.9 1177.5 -90.5C1223.1 -68.6 1267.8 -43.1 1316.5 -19.5C1353.8 -1.40001 1393.1 15.9 1435.7 29.2C1533.8 59.8 1656.9 59.7 1722.6 5.39998" stroke="#F2E5D5" stroke-miterlimit="10"/>
<path d="M-491.3 715.3C-437.9 619 -347.6 544 -243.6 508.3C-234.9 505.3 -226 502.6 -217.1 500.2C-119.9 473.7 -13.8 481.6 78.8 521.2C95.7 528.4 112.3 536.7 128.3 546C206 591 284.1 659.7 371.6 640.7C426.8 628.7 466 583.1 489.3 531.2C500.8 505.5 508.7 478.4 514.2 451.9C519.8 425.7 523.9 399.4 527.7 373.1C535.2 319.7 540.7 265.6 552.5 211.3C564.3 157 585 102.9 613.5 57.9C648.4 2.80001 692.6 -45.2 746.6 -83C795.5 -117.2 850.8 -143.6 910.5 -152.3C961.5 -159.7 1010.6 -154 1056.7 -140.5C1102.7 -127.3 1146.2 -106.6 1186.6 -84C1232.5 -58.3 1277.3 -29.2 1325.8 -2.7C1363 17.7 1402.1 36.7 1444.7 50.9C1542.7 83.7 1666.9 81.7 1732.2 20" stroke="#F2E5D5" stroke-miterlimit="10"/>
<path d="M-494.3 707.7C-441.2 610.4 -350.9 534.1 -246.4 497.3C-237.6 494.2 -228.8 491.4 -219.8 488.9C-122.1 461.4 -15.1 468.5 78.5 507.6C95.6 514.8 112.4 523 128.6 532.2C207.1 577 286 646.4 373.9 626.7C427.8 614.7 466.1 571.1 490.5 520.8C502.4 496 511.2 469.6 517.7 443.8C524.2 418.3 529.5 392.5 534.4 366.7C544.2 314.4 552 261.4 564.6 208.5C577.3 155.6 596.5 103.1 622.7 57.4C655.6 0.0999794 698.9 -51.6 752.3 -91.3C800.6 -127.3 856 -153.8 916.3 -161.2C967.8 -167.4 1017.6 -159.4 1064.4 -143.2C1111.1 -127.2 1155.1 -103.2 1195.8 -77.3C1242 -47.9 1286.9 -15 1335.2 14.4C1372.3 37 1411.2 57.7 1453.7 72.9C1551.5 108 1676.9 104 1741.8 35" stroke="#F2E5D5" stroke-miterlimit="10"/>
<path d="M-497.4 700.2C-444.7 601.7 -354.3 524.2 -249.3 486.3C-240.5 483.1 -231.6 480.2 -222.6 477.6C-124.4 449.1 -16.6 455.4 78.1 494C95.4 501.1 112.4 509.2 128.7 518.4C207.9 562.9 287.6 633.2 376 612.8C428.6 600.8 466 559.1 491.4 510.4C503.8 486.4 513.4 460.7 520.9 435.7C528.4 410.8 534.8 385.6 540.7 360.3C552.7 309.1 562.8 257.2 576.3 205.8C589.8 154.3 607.5 103.4 631.6 57C662.4 -2.50002 705 -57.9 757.7 -99.6C805.4 -137.4 860.9 -164.1 921.9 -170.1C974 -175.2 1024.4 -164.9 1071.9 -145.9C1119.2 -127.1 1163.8 -99.8 1204.8 -70.6C1251.3 -37.5 1296.3 -0.900021 1344.4 31.4C1381.3 56.2 1420.1 78.6 1462.5 94.8C1560.2 132.2 1686.7 126.1 1751.2 49.8" stroke="#F2E5D5" stroke-miterlimit="10"/>
<path d="M-500.5 692.7C-443.7 584.8 -342.2 501.3 -225.4 466.3C-108.6 431.4 22.1 445.5 128.8 504.6C208.7 548.8 289.2 619.8 378.1 598.8C454.4 580.8 498.4 501.5 524.2 427.4C566.8 304.8 586.1 174.1 640.7 56.3C695.3 -61.5 798.1 -169.5 927.5 -179.2C1032.5 -187 1131 -129.3 1213.8 -64.1C1296.6 1.09996 1373.9 77 1471.4 116.6C1568.9 156.2 1696.6 148.2 1760.6 64.6" stroke="#F2E5D5" stroke-miterlimit="10"/>
</g>
<mask id="mask2_3_706" style="mask-type:luminance" maskUnits="userSpaceOnUse" x="0" y="0" width="1200" height="800">
<path d="M1200 0H0V800H1200V0Z" fill="white"/>
</mask>
<g mask="url(#mask2_3_706)">
<path d="M91 333C92.1046 333 93 332.105 93 331C93 329.895 92.1046 329 91 329C89.8954 329 89 329.895 89 331C89 332.105 89.8954 333 91 333Z" fill="#D9CAB8"/>
<path d="M91 310C92.1046 310 93 309.105 93 308C93 306.895 92.1046 306 91 306C89.8954 306 89 306.895 89 308C89 309.105 89.8954 310 91 310Z" fill="#D9CAB8"/>
<path d="M91 287C92.1046 287 93 286.105 93 285C93 283.895 92.1046 283 91 283C89.8954 283 89 283.895 89 285C89 286.105 89.8954 287 91 287Z" fill="#D9CAB8"/>
<path d="M91 264C92.1046 264 93 263.105 93 262C93 260.895 92.1046 260 91 260C89.8954 260 89 260.895 89 262C89 263.105 89.8954 264 91 264Z" fill="#D9CAB8"/>
<path d="M91 241C92.1046 241 93 240.105 93 239C93 237.895 92.1046 237 91 237C89.8954 237 89 237.895 89 239C89 240.105 89.8954 241 91 241Z" fill="#D9CAB8"/>
<path d="M116 333C117.105 333 118 332.105 118 331C118 329.895 117.105 329 116 329C114.895 329 114 329.895 114 331C114 332.105 114.895 333 116 333Z" fill="#D9CAB8"/>
<path d="M116 310C117.105 310 118 309.105 118 308C118 306.895 117.105 306 116 306C114.895 306 114 306.895 114 308C114 309.105 114.895 310 116 310Z" fill="#D9CAB8"/>
<path d="M116 287C117.105 287 118 286.105 118 285C118 283.895 117.105 283 116 283C114.895 283 114 283.895 114 285C114 286.105 114.895 287 116 287Z" fill="#D9CAB8"/>
<path d="M116 264C117.105 264 118 263.105 118 262C118 260.895 117.105 260 116 260C114.895 260 114 260.895 114 262C114 263.105 114.895 264 116 264Z" fill="#D9CAB8"/>
<path d="M116 241C117.105 241 118 240.105 118 239C118 237.895 117.105 237 116 237C114.895 237 114 237.895 114 239C114 240.105 114.895 241 116 241Z" fill="#D9CAB8"/>
<path d="M141 333C142.105 333 143 332.105 143 331C143 329.895 142.105 329 141 329C139.895 329 139 329.895 139 331C139 332.105 139.895 333 141 333Z" fill="#D9CAB8"/>
<path d="M141 310C142.105 310 143 309.105 143 308C143 306.895 142.105 306 141 306C139.895 306 139 306.895 139 308C139 309.105 139.895 310 141 310Z" fill="#D9CAB8"/>
<path d="M141 287C142.105 287 143 286.105 143 285C143 283.895 142.105 283 141 283C139.895 283 139 283.895 139 285C139 286.105 139.895 287 141 287Z" fill="#D9CAB8"/>
<path d="M141 264C142.105 264 143 263.105 143 262C143 260.895 142.105 260 141 260C139.895 260 139 260.895 139 262C139 263.105 139.895 264 141 264Z" fill="#D9CAB8"/>
<path d="M141 241C142.105 241 143 240.105 143 239C143 237.895 142.105 237 141 237C139.895 237 139 237.895 139 239C139 240.105 139.895 241 141 241Z" fill="#D9CAB8"/>
<path d="M166 333C167.105 333 168 332.105 168 331C168 329.895 167.105 329 166 329C164.895 329 164 329.895 164 331C164 332.105 164.895 333 166 333Z" fill="#D9CAB8"/>
<path d="M166 310C167.105 310 168 309.105 168 308C168 306.895 167.105 306 166 306C164.895 306 164 306.895 164 308C164 309.105 164.895 310 166 310Z" fill="#D9CAB8"/>
<path d="M166 287C167.105 287 168 286.105 168 285C168 283.895 167.105 283 166 283C164.895 283 164 283.895 164 285C164 286.105 164.895 287 166 287Z" fill="#D9CAB8"/>
<path d="M166 264C167.105 264 168 263.105 168 262C168 260.895 167.105 260 166 260C164.895 260 164 260.895 164 262C164 263.105 164.895 264 166 264Z" fill="#D9CAB8"/>
<path d="M166 241C167.105 241 168 240.105 168 239C168 237.895 167.105 237 166 237C164.895 237 164 237.895 164 239C164 240.105 164.895 241 166 241Z" fill="#D9CAB8"/>
<path d="M191 333C192.105 333 193 332.105 193 331C193 329.895 192.105 329 191 329C189.895 329 189 329.895 189 331C189 332.105 189.895 333 191 333Z" fill="#D9CAB8"/>
<path d="M191 310C192.105 310 193 309.105 193 308C193 306.895 192.105 306 191 306C189.895 306 189 306.895 189 308C189 309.105 189.895 310 191 310Z" fill="#D9CAB8"/>
<path d="M191 287C192.105 287 193 286.105 193 285C193 283.895 192.105 283 191 283C189.895 283 189 283.895 189 285C189 286.105 189.895 287 191 287Z" fill="#D9CAB8"/>
<path d="M191 264C192.105 264 193 263.105 193 262C193 260.895 192.105 260 191 260C189.895 260 189 260.895 189 262C189 263.105 189.895 264 191 264Z" fill="#D9CAB8"/>
<path d="M191 241C192.105 241 193 240.105 193 239C193 237.895 192.105 237 191 237C189.895 237 189 237.895 189 239C189 240.105 189.895 241 191 241Z" fill="#D9CAB8"/>
<path d="M216 333C217.105 333 218 332.105 218 331C218 329.895 217.105 329 216 329C214.895 329 214 329.895 214 331C214 332.105 214.895 333 216 333Z" fill="#D9CAB8"/>
<path d="M216 310C217.105 310 218 309.105 218 308C218 306.895 217.105 306 216 306C214.895 306 214 306.895 214 308C214 309.105 214.895 310 216 310Z" fill="#D9CAB8"/>
<path d="M216 287C217.105 287 218 286.105 218 285C218 283.895 217.105 283 216 283C214.895 283 214 283.895 214 285C214 286.105 214.895 287 216 287Z" fill="#D9CAB8"/>
<path d="M216 264C217.105 264 218 263.105 218 262C218 260.895 217.105 260 216 260C214.895 260 214 260.895 214 262C214 263.105 214.895 264 216 264Z" fill="#D9CAB8"/>
<path d="M216 241C217.105 241 218 240.105 218 239C218 237.895 217.105 237 216 237C214.895 237 214 237.895 214 239C214 240.105 214.895 241 216 241Z" fill="#D9CAB8"/>
<path d="M241 333C242.105 333 243 332.105 243 331C243 329.895 242.105 329 241 329C239.895 329 239 329.895 239 331C239 332.105 239.895 333 241 333Z" fill="#D9CAB8"/>
<path d="M241 310C242.105 310 243 309.105 243 308C243 306.895 242.105 306 241 306C239.895 306 239 306.895 239 308C239 309.105 239.895 310 241 310Z" fill="#D9CAB8"/>
<path d="M241 287C242.105 287 243 286.105 243 285C243 283.895 242.105 283 241 283C239.895 283 239 283.895 239 285C239 286.105 239.895 287 241 287Z" fill="#D9CAB8"/>
<path d="M241 264C242.105 264 243 263.105 243 262C243 260.895 242.105 260 241 260C239.895 260 239 260.895 239 262C239 263.105 239.895 264 241 264Z" fill="#D9CAB8"/>
<path d="M241 241C242.105 241 243 240.105 243 239C243 237.895 242.105 237 241 237C239.895 237 239 237.895 239 239C239 240.105 239.895 241 241 241Z" fill="#D9CAB8"/>
<path d="M266 333C267.105 333 268 332.105 268 331C268 329.895 267.105 329 266 329C264.895 329 264 329.895 264 331C264 332.105 264.895 333 266 333Z" fill="#D9CAB8"/>
<path d="M266 310C267.105 310 268 309.105 268 308C268 306.895 267.105 306 266 306C264.895 306 264 306.895 264 308C264 309.105 264.895 310 266 310Z" fill="#D9CAB8"/>
<path d="M266 287C267.105 287 268 286.105 268 285C268 283.895 267.105 283 266 283C264.895 283 264 283.895 264 285C264 286.105 264.895 287 266 287Z" fill="#D9CAB8"/>
<path d="M266 264C267.105 264 268 263.105 268 262C268 260.895 267.105 260 266 260C264.895 260 264 260.895 264 262C264 263.105 264.895 264 266 264Z" fill="#D9CAB8"/>
<path d="M266 241C267.105 241 268 240.105 268 239C268 237.895 267.105 237 266 237C264.895 237 264 237.895 264 239C264 240.105 264.895 241 266 241Z" fill="#D9CAB8"/>
<path d="M291 333C292.105 333 293 332.105 293 331C293 329.895 292.105 329 291 329C289.895 329 289 329.895 289 331C289 332.105 289.895 333 291 333Z" fill="#D9CAB8"/>
<path d="M291 310C292.105 310 293 309.105 293 308C293 306.895 292.105 306 291 306C289.895 306 289 306.895 289 308C289 309.105 289.895 310 291 310Z" fill="#D9CAB8"/>
<path d="M291 287C292.105 287 293 286.105 293 285C293 283.895 292.105 283 291 283C289.895 283 289 283.895 289 285C289 286.105 289.895 287 291 287Z" fill="#D9CAB8"/>
<path d="M291 264C292.105 264 293 263.105 293 262C293 260.895 292.105 260 291 260C289.895 260 289 260.895 289 262C289 263.105 289.895 264 291 264Z" fill="#D9CAB8"/>
<path d="M291 241C292.105 241 293 240.105 293 239C293 237.895 292.105 237 291 237C289.895 237 289 237.895 289 239C289 240.105 289.895 241 291 241Z" fill="#D9CAB8"/>
<path d="M316 333C317.105 333 318 332.105 318 331C318 329.895 317.105 329 316 329C314.895 329 314 329.895 314 331C314 332.105 314.895 333 316 333Z" fill="#D9CAB8"/>
<path d="M316 310C317.105 310 318 309.105 318 308C318 306.895 317.105 306 316 306C314.895 306 314 306.895 314 308C314 309.105 314.895 310 316 310Z" fill="#D9CAB8"/>
<path d="M316 287C317.105 287 318 286.105 318 285C318 283.895 317.105 283 316 283C314.895 283 314 283.895 314 285C314 286.105 314.895 287 316 287Z" fill="#D9CAB8"/>
<path d="M316 264C317.105 264 318 263.105 318 262C318 260.895 317.105 260 316 260C314.895 260 314 260.895 314 262C314 263.105 314.895 264 316 264Z" fill="#D9CAB8"/>
<path d="M316 241C317.105 241 318 240.105 318 239C318 237.895 317.105 237 316 237C314.895 237 314 237.895 314 239C314 240.105 314.895 241 316 241Z" fill="#D9CAB8"/>
<path d="M341 333C342.105 333 343 332.105 343 331C343 329.895 342.105 329 341 329C339.895 329 339 329.895 339 331C339 332.105 339.895 333 341 333Z" fill="#D9CAB8"/>
<path d="M341 310C342.105 310 343 309.105 343 308C343 306.895 342.105 306 341 306C339.895 306 339 306.895 339 308C339 309.105 339.895 310 341 310Z" fill="#D9CAB8"/>
<path d="M341 287C342.105 287 343 286.105 343 285C343 283.895 342.105 283 341 283C339.895 283 339 283.895 339 285C339 286.105 339.895 287 341 287Z" fill="#D9CAB8"/>
<path d="M341 264C342.105 264 343 263.105 343 262C343 260.895 342.105 260 341 260C339.895 260 339 260.895 339 262C339 263.105 339.895 264 341 264Z" fill="#D9CAB8"/>
<path d="M341 241C342.105 241 343 240.105 343 239C343 237.895 342.105 237 341 237C339.895 237 339 237.895 339 239C339 240.105 339.895 241 341 241Z" fill="#D9CAB8"/>
<path d="M366 333C367.105 333 368 332.105 368 331C368 329.895 367.105 329 366 329C364.895 329 364 329.895 364 331C364 332.105 364.895 333 366 333Z" fill="#D9CAB8"/>
<path d="M366 310C367.105 310 368 309.105 368 308C368 306.895 367.105 306 366 306C364.895 306 364 306.895 364 308C364 309.105 364.895 310 366 310Z" fill="#D9CAB8"/>
<path d="M366 287C367.105 287 368 286.105 368 285C368 283.895 367.105 283 366 283C364.895 283 364 283.895 364 285C364 286.105 364.895 287 366 287Z" fill="#D9CAB8"/>
<path d="M366 264C367.105 264 368 263.105 368 262C368 260.895 367.105 260 366 260C364.895 260 364 260.895 364 262C364 263.105 364.895 264 366 264Z" fill="#D9CAB8"/>
<path d="M366 241C367.105 241 368 240.105 368 239C368 237.895 367.105 237 366 237C364.895 237 364 237.895 364 239C364 240.105 364.895 241 366 241Z" fill="#D9CAB8"/>
<path d="M391 333C392.105 333 393 332.105 393 331C393 329.895 392.105 329 391 329C389.895 329 389 329.895 389 331C389 332.105 389.895 333 391 333Z" fill="#D9CAB8"/>
<path d="M391 310C392.105 310 393 309.105 393 308C393 306.895 392.105 306 391 306C389.895 306 389 306.895 389 308C389 309.105 389.895 310 391 310Z" fill="#D9CAB8"/>
<path d="M391 287C392.105 287 393 286.105 393 285C393 283.895 392.105 283 391 283C389.895 283 389 283.895 389 285C389 286.105 389.895 287 391 287Z" fill="#D9CAB8"/>
<path d="M391 264C392.105 264 393 263.105 393 262C393 260.895 392.105 260 391 260C389.895 260 389 260.895 389 262C389 263.105 389.895 264 391 264Z" fill="#D9CAB8"/>
<path d="M391 241C392.105 241 393 240.105 393 239C393 237.895 392.105 237 391 237C389.895 237 389 237.895 389 239C389 240.105 389.895 241 391 241Z" fill="#D9CAB8"/>
</g>
<mask id="mask3_3_706" style="mask-type:luminance" maskUnits="userSpaceOnUse" x="0" y="0" width="1200" height="800">
<path d="M1200 0H0V800H1200V0Z" fill="white"/>
</mask>
<g mask="url(#mask3_3_706)">
<path d="M1363.7 516.5C1330.5 459.7 1296.2 401.8 1245.9 359.4C1195.6 317 1125.2 292.4 1062.8 313.2C1010.1 330.8 972.3 376.4 925.1 405.8C897.8 422.7 863 434.1 834.1 420.2C804.5 405.9 791.8 370.7 767.4 348.7C744.8 328.3 713.8 320.6 683.7 315.8C653.7 311.1 622.7 308.5 595 296.1C567.3 283.6 542.8 258.3 541.8 227.9C540.7 194.7 567.8 166.3 598.1 152.8C628.4 139.2 662.3 136.5 694.6 129C745.8 117.1 794.4 92.2 831.5 55C868.6 17.8 893.4 -32.3 897 -84.8H1364L1363.7 516.5Z" fill="#332E30"/>
</g>
<mask id="mask4_3_706" style="mask-type:luminance" maskUnits="userSpaceOnUse" x="0" y="0" width="1200" height="800">
<path d="M1200 0H0V800H1200V0Z" fill="white"/>
</mask>
<g mask="url(#mask4_3_706)">
<path d="M-134.4 903.9C-111.4 787.4 -7.99994 691.5 109.8 677.3C169.9 670.1 230.4 682.2 290 692.4C349.6 702.6 411.4 711 470.2 696.6C529 682.2 584.7 639.9 597.8 580.8C604.8 549.2 594.9 510 564.8 498.1C531.2 484.8 496.4 511.8 461.5 520.8C403.3 535.8 343.8 499.2 303.4 454.8C262.9 410.4 232.4 356.5 185.2 319.2C118.7 266.6 26.2 254.8 -56.3 273.8C-138.8 292.8 -212.7 339.5 -277.6 394L-134.4 903.9Z" fill="#332E30"/>
</g>
<mask id="mask5_3_706" style="mask-type:luminance" maskUnits="userSpaceOnUse" x="0" y="0" width="1200" height="800">
<path d="M1200 0H0V800H1200V0Z" fill="white"/>
</mask>
<g mask="url(#mask5_3_706)">
<path d="M-42.4 635.1C8.19997 651.7 64.3 651.2 114.5 633.5C174.2 612.5 223.3 569.3 267.6 524.1C311.9 478.9 353.7 430.3 405.6 394.2C457.6 358.1 522.7 335.2 584.4 349.2C623.1 358 657.9 380.6 697 387.5C820.7 409.3 932.3 270.7 1055.2 296.7C1107.7 307.8 1149.9 347.7 1201.3 363.4C1268.5 384 1347.5 356.6 1387.6 298.8" stroke="#62A8B2" stroke-width="2" stroke-miterlimit="10"/>
<path d="M-46.6 625.9C-3.69997 637.6 43.5 639 87.8 630.1C96.5 628.4 105.1 626.2 113.5 623.7C148.1 613.3 179.1 596.7 207.2 577.3C228.7 562.5 248.6 546.1 268 528.9C279.4 518.8 290.8 508.4 302.5 497.7C329.2 473 356.2 446.1 384.4 421.8C392.5 414.8 400.7 408.1 409 401.7C429.8 385.7 452.4 371.8 476 361.6C509.4 347.2 544.9 340.1 580.3 345.8C618 351.9 652.8 371.7 692.2 377.9C698.1 378.8 703.9 379.4 709.7 379.8C747.3 382.1 783.5 373 819.6 359.1C877.2 336.9 934.2 302.2 992.4 291.7C1012.4 288.1 1032.5 287.4 1053 291C1093.8 298.2 1128.7 321.8 1166.4 339.3C1177.5 344.4 1188.9 349.1 1200.7 352.5C1268.6 372.6 1347.4 349 1387.1 297.6" stroke="#69A3AE" stroke-width="2" stroke-miterlimit="10"/>
<path d="M-50.8 616.8C-7.20005 626.4 40.9999 627.1 86.1999 619.4C95.0999 617.9 103.8 616.1 112.4 613.9C147.6 605 179.2 590.9 207.4 574.7C228.9 562.2 248.6 548.6 268.4 533.8C280 525.1 291.7 516 304 506.1C332 483.4 360.3 455.9 388.3 430.4C396.3 423.1 404.3 416 412.5 409.1C432.7 392.1 454.1 376.9 476.4 365.3C508.1 349 541.6 339.2 576.1 342.4C612.7 345.7 647.7 362.9 687.3 368.4C693.2 369.2 699.1 369.8 705 370.1C742.9 372.4 779.1 365.4 815.5 352.9C873.6 333.1 931.6 298.9 990.1 287.4C1010.1 283.5 1030.4 282.3 1050.9 285.2C1091.8 291 1127.3 312.5 1165.6 328.9C1176.9 333.7 1188.4 338.1 1200.3 341.5C1268.8 361 1347.5 341.4 1386.9 296.3" stroke="#719DAA" stroke-width="2" stroke-miterlimit="10"/>
<path d="M-55 607.7C-10.7 615.1 38.5 615.3 84.7 608.8C93.8 607.5 102.7 606 111.4 604.2C147.3 596.7 179.5 585.2 207.7 572.1C229.2 562 248.8 551.1 268.8 538.6C280.5 531.3 292.7 523.5 305.5 514.4C334.7 493.7 364.5 465.6 392.1 438.9C400 431.3 407.9 423.7 415.8 416.5C435.4 398.4 455.6 382 476.7 369C506.6 350.7 538.2 337 571.8 338.9C607.2 340.9 642.4 354 682.3 358.8C688.2 359.5 694.2 360 700.1 360.4C738.3 362.7 774.5 357.8 811.1 346.8C869.7 329.4 928.6 295.8 987.6 283.3C1007.7 279.1 1028 277.4 1048.6 279.6C1089.7 284 1125.7 303.4 1164.5 318.7C1175.9 323.2 1187.6 327.4 1199.6 330.7C1268.8 349.7 1347.3 333.9 1386.4 295.2" stroke="#7898A6" stroke-width="2" stroke-miterlimit="10"/>
<path d="M-59.2 598.5C-14.2999 603.7 36 603.4 83.1 598C92.3 597 101.4 595.7 110.3 594.3C146.9 588.3 179.6 579.4 207.9 569.3C229.4 561.6 248.9 553.3 269.1 543.3C281 537.4 293.5 530.9 306.9 522.6C337.4 503.8 368.5 475.2 395.9 447.4C403.8 439.4 411.4 431.5 419.1 423.8C438.1 404.7 457.2 387 477 372.6C505.1 352.4 534.7 337.4 567.6 335.4C601.9 333.3 637.3 345 677.4 349.2C683.4 349.8 689.4 350.3 695.3 350.6C733.8 352.9 770 350.1 806.9 340.5C866 325.4 925.8 292.4 985.2 278.9C1005.4 274.4 1025.7 272.2 1046.3 273.7C1087.6 276.8 1124.1 294 1163.4 308.3C1175 312.5 1186.8 316.5 1198.9 319.7C1268.8 338.2 1347.2 326.3 1385.8 293.9" stroke="#8092A2" stroke-width="2" stroke-miterlimit="10"/>
<path d="M-63.4 589.4C-17.8 592.4 33.6 591.5 81.5 587.4C90.9 586.6 100.2 585.6 109.3 584.6C146.6 580.1 179.9 573.7 208.2 566.7C229.7 561.4 249 555.8 269.6 548.2C281.7 543.7 294.5 538.4 308.5 531C340.2 514.2 372.7 485.1 399.9 456C407.7 447.7 415.2 439.4 422.6 431.3C440.9 411.2 458.9 392.2 477.4 376.4C503.7 354.2 531.3 336.7 563.4 332C596.6 327.2 632.1 336.2 672.5 339.7C678.5 340.2 684.6 340.6 690.6 341C729.4 343.3 765.6 342.5 802.8 334.5C862.4 321.6 923.2 289.3 982.9 274.9C1003.2 270.1 1023.5 267.4 1044.2 268.2C1085.7 269.9 1122.7 285 1162.6 298.2C1174.4 302.1 1186.3 305.9 1198.6 309C1269.1 327 1347.4 318.9 1385.7 292.9" stroke="#878D9E" stroke-width="2" stroke-miterlimit="10"/>
<path d="M-67.6 580.3C-21.4 581.2 31.1001 579.7 80.0001 576.7C89.6001 576.1 99.1 575.5 108.3 574.7C146.2 571.7 180.1 567.8 208.5 563.9C230.1 560.9 249.3 558.1 270 552.9C282.3 549.8 295.4 545.8 310 539.2C343 524.3 376.8 494.7 403.8 464.5C411.5 455.8 418.9 447.2 426 438.6C443.7 417.4 460.5 397.1 477.8 380C502.4 355.9 527.8 335.8 559.3 328.5C591.3 321.1 627.1 327.3 667.7 330.1C673.8 330.5 679.8 330.9 685.9 331.2C725.1 333.5 761.2 334.8 798.6 328.2C858.7 317.7 920.4 286 980.5 270.5C1000.8 265.3 1021.3 262.2 1042 262.3C1083.7 262.6 1121.2 275.6 1161.6 287.7C1173.5 291.3 1185.6 294.8 1198 297.9C1269.2 315.4 1347.3 311.2 1385.3 291.4" stroke="#8F8799" stroke-width="2" stroke-miterlimit="10"/>
<path d="M-71.8 571.1C-24.9 569.8 28.5999 567.8 78.3999 566C88.1999 565.6 97.7999 565.3 107.2 564.9C145.8 563.4 180.2 562 208.7 561.2C230.3 560.6 249.4 560.6 270.3 557.7C282.8 556 296.2 553.3 311.4 547.6C345.6 534.7 380.8 504.5 407.6 473.1C415.3 464.1 422.4 455 429.3 446.1C446.4 423.9 462 402.3 478 383.8C500.7 357.7 524.2 335.1 554.9 325.2C585.7 315.2 621.7 318.5 662.6 320.7C668.7 321 674.8 321.3 681 321.7C720.5 324.1 756.6 327.4 794.3 322.3C854.9 314.1 917.6 283 978 266.6C998.4 261.1 1018.9 257.5 1039.7 256.9C1081.6 255.8 1119.6 266.7 1160.5 277.7C1172.6 281 1184.8 284.3 1197.3 287.3C1269.2 304.3 1347.1 303.9 1384.7 290.5" stroke="#968295" stroke-width="2" stroke-miterlimit="10"/>
<path d="M-76 562C-28.4 558.5 26.1 555.9 76.8 555.3C86.8 555.2 96.6 555.1 106.1 555.1C145.4 555.1 180.4 556.2 208.8 558.5C230.4 560.2 249.4 563 270.6 562.4C283.3 562.1 297 560.6 312.8 555.8C348.3 544.8 384.8 514.1 411.4 481.5C419 472.1 426 462.7 432.6 453.3C449.1 430 463.5 407.2 478.3 387.3C499.2 359.2 520.6 334.2 550.7 321.5C580.2 309 616.6 309.4 657.8 310.9C663.9 311.1 670.1 311.4 676.3 311.8C716.1 314.2 752.2 319.6 790.1 315.9C851.2 310.1 914.8 279.6 975.6 262.1C996.1 256.3 1016.6 252.2 1037.5 250.9C1079.5 248.4 1118 257.1 1159.6 267.2C1171.8 270.2 1184.2 273.3 1196.8 276.1C1269.3 292.5 1347.1 296.1 1384.4 289" stroke="#9E7D91" stroke-width="2" stroke-miterlimit="10"/>
<path d="M-80.2 552.9C-32 547.2 23.6 544.1 75.3 544.7C85.4 544.8 95.4 545.1 105.2 545.4C145.2 546.8 180.7 550.5 209.2 555.9C230.8 560 249.7 565.5 271.1 567.3C284 568.4 298 568.2 314.4 564.2C351.1 555.2 389.1 524 415.3 490.2C422.8 480.5 429.7 470.7 436 460.9C451.8 436.6 465.1 412.5 478.7 391.2C497.9 361.2 517.2 333.8 546.5 318.3C574.8 303.3 611.4 300.8 652.9 301.5C659.1 301.6 665.3 301.8 671.6 302.2C711.7 304.6 747.8 312 786 309.9C847.6 306.4 912.1 276.5 973.3 258.1C993.8 252 1014.5 247.4 1035.3 245.4C1077.5 241.5 1116.5 248.1 1158.6 257.1C1171 259.7 1183.5 262.7 1196.3 265.4C1269.5 281.3 1347.1 288.7 1384.1 288" stroke="#A5778D" stroke-width="2" stroke-miterlimit="10"/>
<path d="M-84.4 543.7C-35.5 535.8 21.1 532.2 73.7 533.9C84 534.2 94.2 534.8 104.1 535.5C144.8 538.4 180.8 544.6 209.4 553.1C231 559.6 249.8 567.9 271.4 572C284.6 574.5 298.8 575.6 315.8 572.4C353.7 565.3 393.1 533.6 419.1 498.6C426.6 488.6 433.2 478.4 439.3 468.2C454.5 442.9 466.6 417.5 478.9 394.8C496.3 362.8 513.5 333 542.1 314.7C569.3 297.3 606.1 291.7 647.8 291.8C654 291.8 660.3 292 666.6 292.4C707 294.8 743.1 304.3 781.6 303.7C843.7 302.6 909.2 273.2 970.7 253.8C991.3 247.4 1012 242.3 1032.9 239.6C1075.3 234.3 1114.8 238.8 1157.4 246.7C1169.9 249 1182.6 251.7 1195.5 254.4C1269.4 269.8 1346.8 281.1 1383.4 286.7" stroke="#AD7289" stroke-width="2" stroke-miterlimit="10"/>
<path d="M-88.6 534.6C-39.1 524.6 18.6 520.3 72.1 523.3C82.6 523.9 92.9001 524.7 103 525.8C144.3 530.2 181 538.9 209.6 550.5C231.2 559.3 250 570.4 271.8 576.9C285.2 580.8 299.8 583.1 317.3 580.8C356.5 575.6 397.2 543.4 423 507.2C430.4 496.8 436.9 486.2 442.8 475.6C457.4 449.2 468.3 422.6 479.4 398.5C495 364.6 510.2 332.5 538.1 311.3C564.1 291.5 601.1 282.9 643.1 282.3C649.4 282.2 655.7 282.3 662.1 282.7C702.9 285.1 738.9 296.7 777.6 297.5C840.2 298.8 906.6 270 968.5 249.6C989.2 242.9 1009.9 237.2 1030.9 233.9C1073.5 227.2 1113.5 229.6 1156.7 236.5C1169.4 238.5 1182.2 241 1195.2 243.6C1269.7 258.5 1347 273.6 1383.3 285.6" stroke="#B46C85" stroke-width="2" stroke-miterlimit="10"/>
<path d="M-92.8 525.5C-42.6 513.3 16.0999 508.5 70.5999 512.6C81.2999 513.4 91.8 514.5 102 516C144 521.9 181.2 533.1 209.9 547.8C231.5 558.9 250.2 572.9 272.2 581.7C285.8 587.1 300.7 590.6 318.8 589.1C359.2 585.8 401.3 553.1 426.9 515.8C434.2 505.1 440.6 494.1 446.2 483.1C460.1 455.7 470 427.8 479.8 402.3C493.7 366.5 506.9 332 533.9 307.9C558.8 285.7 596 274.1 638.2 272.8C644.5 272.6 650.9 272.7 657.3 273.1C698.4 275.5 734.4 289.2 773.4 291.5C836.6 295.1 903.8 266.9 966.1 245.5C986.8 238.5 1007.6 232.3 1028.7 228.3C1071.5 220.2 1112 220.5 1155.7 226.3C1168.6 228 1181.5 230.3 1194.6 232.8C1269.8 247.2 1347 266.2 1382.9 284.5" stroke="#BC6781" stroke-width="2" stroke-miterlimit="10"/>
<path d="M-97 516.3C-46.2 501.9 13.6 496.6 69 501.9C79.9 502.9 90.6 504.4 101 506.2C143.7 513.6 181.5 527.2 210.2 545.2C231.8 558.7 250.4 575.5 272.6 586.5C286.4 593.3 301.6 598 320.3 597.4C361.9 596.1 405.4 562.8 430.8 524.3C438.1 513.2 444.2 501.9 449.6 490.4C462.9 461.9 471.6 432.8 480.1 405.9C492.2 368.1 503.5 331.4 529.7 304.4C553.5 279.9 590.8 265.1 633.3 263.2C639.6 262.9 646.1 262.9 652.5 263.3C693.9 265.8 729.9 281.5 769.2 285.2C832.9 291.2 901.1 263.5 963.7 241.2C984.5 233.8 1005.4 227.2 1026.4 222.5C1069.4 213 1110.4 211.2 1154.6 215.9C1167.6 217.3 1180.7 219.4 1194 221.8C1269.9 235.7 1346.9 258.5 1382.5 283.2" stroke="#C3617D" stroke-width="2" stroke-miterlimit="10"/>
<path d="M-101.2 507.2C-49.7 490.6 11.1 484.7 67.4 491.2C78.5 492.5 89.3 494.2 99.9 496.4C143.3 505.2 181.6 521.4 210.4 542.5C232 558.3 250.5 578 273 591.3C286.9 599.6 302.5 605.5 321.8 605.7C364.7 606.3 409.5 572.6 434.6 532.9C441.8 521.5 447.8 509.8 452.9 497.9C465.6 468.4 473.1 438 480.4 409.7C490.7 370 500.1 331 525.4 301.1C548.2 274.2 585.6 256.4 628.3 253.8C634.7 253.4 641.1 253.4 647.7 253.8C689.4 256.3 725.4 274.1 764.9 279.3C829.1 287.7 898.2 260.6 961.2 237.2C982.1 229.5 1003 222.4 1024.1 217C1067.3 206 1108.8 202.2 1153.6 205.9C1166.8 207 1180.1 208.8 1193.4 211.2C1269.9 224.5 1346.8 251.3 1382 282.3" stroke="#CB5C79" stroke-width="2" stroke-miterlimit="10"/>
<path d="M-105.4 498.1C-53.2 479.4 8.69996 472.9 65.9 480.6C77.1 482.1 88.2 484.1 98.9 486.7C142.9 497 181.9 515.6 210.7 539.9C232.4 558 250.6 580.6 273.4 596.2C287.5 605.9 303.4 613 323.3 614.2C367.4 616.7 413.7 582.5 438.5 541.6C445.6 529.9 451.4 517.7 456.3 505.4C468.4 474.8 474.7 443.2 480.8 413.5C489.4 371.8 496.8 330.5 521.2 297.7C542.9 268.4 580.4 247.6 623.4 244.3C629.8 243.8 636.3 243.7 642.9 244.1C685 246.6 720.9 266.5 760.7 273.1C825.4 283.8 895.5 257.3 958.8 233C979.8 225 1000.7 217.4 1021.9 211.3C1065.2 198.9 1107.3 193 1152.6 195.6C1165.9 196.4 1179.4 198 1192.8 200.2C1270 213 1346.7 243.6 1381.6 280.9" stroke="#D25775" stroke-width="2" stroke-miterlimit="10"/>
<path d="M-109.6 488.9C-56.8 468 6.20005 461 64.3 469.8C75.7 471.5 86.9 473.9 97.8 476.8C142.5 488.6 182 509.7 210.8 537.1C232.5 557.6 250.6 583 273.6 600.9C287.9 612 304.1 620.4 324.6 622.4C369.9 626.8 417.6 592.1 442.2 550C449.3 537.9 454.9 525.4 459.5 512.7C470.9 481.1 476.2 448.2 480.9 417.1C487.7 373.5 493.3 329.9 516.8 294.2C537.5 262.6 575.1 238.6 618.4 234.7C624.9 234.1 631.4 234 638.1 234.4C680.5 236.9 716.4 259 756.4 267C821.6 280.2 892.6 254.2 956.3 228.8C977.3 220.5 998.4 212.4 1019.6 205.6C1063.1 191.8 1105.7 183.8 1151.5 185.3C1165 185.8 1178.6 187.2 1192.1 189.3C1270 201.6 1346.5 236.1 1381.1 279.7" stroke="#DA5170" stroke-width="2" stroke-miterlimit="10"/>
<path d="M-113.8 479.8C-60.3 456.7 3.69996 449.1 62.8 459.2C74.4 461.2 85.7999 463.8 96.8999 467C142.3 480.3 182.4 503.9 211.2 534.4C232.9 557.2 250.9 585.4 274.2 605.6C288.7 618.2 305.2 627.7 326.3 630.6C372.9 636.9 421.9 601.7 446.3 558.5C453.3 546.1 458.8 533.2 463.1 520C473.9 487.4 478 453.2 481.5 420.7C486.5 375.1 490.3 329.3 512.8 290.6C532.6 256.6 570.1 229.6 613.7 224.9C620.2 224.2 626.8 224 633.5 224.4C676.2 226.9 712.1 251.1 752.4 260.5C818.1 276.1 890 250.6 954.1 224.3C975.2 215.7 996.3 207 1017.5 199.6C1061.2 184.3 1104.3 174.3 1150.7 174.7C1164.3 174.8 1178.1 176.1 1191.7 178.1C1270.2 189.9 1346.6 228.3 1380.8 278.2" stroke="#E14C6C" stroke-width="2" stroke-miterlimit="10"/>
<path d="M-117.9 470.7C-63.8 445.4 1.29999 437.3 61.3 448.5C73.1 450.7 84.6 453.6 95.9 457.2C142 472 182.6 498.1 211.5 531.7C233.3 556.9 251.1 587.9 274.6 610.4C289.3 624.4 306.1 635.1 327.8 638.9C375.6 647 426 611.5 450.2 567C457.1 554.2 462.4 541 466.5 527.4C476.7 493.7 479.6 458.3 481.8 424.4C485 376.9 487.1 328.7 508.6 287.2C527.4 250.8 565 220.7 608.8 215.4C615.3 214.6 622 214.4 628.8 214.8C671.8 217.3 707.7 243.6 748.3 254.5C814.5 272.5 887.4 247.5 951.9 220.2C973.1 211.3 994.2 202.1 1015.5 194C1059.3 177.3 1103 165.1 1149.9 164.6C1163.7 164.4 1177.6 165.4 1191.4 167.4C1270.6 178.7 1346.8 220.9 1380.7 277.2" stroke="#E94668" stroke-width="2" stroke-miterlimit="10"/>
<path d="M-122.1 461.5C-67.3 434.1 -1.19999 425.4 59.7 437.8C71.7 440.2 83.4 443.5 94.8 447.4C141.5 463.7 182.8 492.3 211.7 529C233.5 556.6 251.1 590.4 274.9 615.2C289.7 630.6 306.9 642.6 329.2 647.2C378.3 657.3 430 621.2 454 575.6C460.9 562.5 466 548.8 469.8 534.8C479.4 500.1 481.1 463.3 482.1 428.1C483.5 378.6 483.8 328.2 504.3 283.7C522.2 244.9 559.7 211.8 603.8 205.8C610.4 204.9 617.1 204.6 623.9 205C667.2 207.6 703.1 235.9 743.9 248.3C810.6 268.6 884.4 244.3 949.3 216C970.5 206.8 991.7 197.1 1013.1 188.3C1057.1 170.2 1101.3 155.9 1148.7 154.3C1162.7 153.8 1176.7 154.6 1190.6 156.5C1270.5 167.3 1346.6 213.4 1380.1 276" stroke="#F04164" stroke-width="2" stroke-miterlimit="10"/>
<path d="M-126.3 452.4C-70.9 422.8 -3.70008 413.6 58.1999 427.1C70.2999 429.8 82.3 433.3 93.8 437.6C141.2 455.3 183 486.5 212 526.3C233.8 556.2 251.3 592.9 275.4 620C290.4 636.9 308 650.1 330.8 655.5C381.1 667.5 434.2 630.9 457.9 584.1C464.7 570.7 469.7 556.6 473.3 542.2C482.2 506.4 482.8 468.4 482.6 431.8C482.3 380.4 480.8 327.6 500.2 280.3C517.2 239.1 554.7 203 599 196.3C605.6 195.3 612.4 195 619.3 195.4C663 198 698.8 228.4 739.9 242.2C807.1 264.9 881.9 241.1 947.1 211.9C968.4 202.4 989.6 192.2 1011.1 182.7C1055.3 163.2 1100 146.8 1148 144.1C1162.1 143.3 1176.3 143.9 1190.3 145.7C1270.8 155.9 1346.8 205.9 1379.9 274.9" stroke="#F83B60" stroke-width="2" stroke-miterlimit="10"/>
<path d="M-130.5 443.3C-74.4 411.5 -6.19999 401.7 56.6 416.4C119.4 431.1 176.1 470.2 212.2 523.6C247.6 576 271.2 647.3 332.2 663.8C383.8 677.7 438.3 640.6 461.7 592.6C485.1 544.6 484.9 488.8 482.8 435.4C480.7 382 477.5 326.9 495.9 276.8C514.3 226.7 561.1 182.5 614.4 185.6C658.4 188.2 694.2 220.7 735.6 236C803.3 261 879 237.8 944.6 207.6C1010.2 177.4 1074.9 139.4 1146.8 133.8C1243 126.4 1340.8 185.2 1379.3 273.6" stroke="#FF365C" stroke-width="2" stroke-miterlimit="10"/>
<path d="M-130.5 437.9C-74.9 405.8 -7.29998 395.4 55.3 409C79.3 414.3 102.5 423 124.1 434.8C158.7 453.7 189 480.4 211.7 512.5C239.8 552.1 260.9 603 296.7 632.3C307.1 640.8 318.7 647.4 332.1 651.4C382.6 666.6 435.5 633.1 460.6 588C479.6 553.7 486.2 513.4 487.9 472.8C488.5 459.6 488.6 446.3 488.6 433.2C488.6 379.8 487.6 324.6 507.4 274.5C526.8 225.3 573.1 181.9 626 184.3C669.7 186.2 705.8 217.1 747 232.2C814.4 257 888.5 237.3 952.5 211.1C959.7 208.2 966.8 205.1 973.9 202.1C1030.6 177.8 1087.1 151.2 1149.6 148.6C1165.4 147.9 1181.4 149.1 1197.1 151.7C1274.7 165 1348.1 216.8 1381.5 285.2" stroke="#FF3B5C" stroke-width="2" stroke-miterlimit="10"/>
<path d="M-130.5 432.4C-75.4 400 -8.39997 388.9 54 401.5C77.9 406.4 101.1 414.7 122.7 426C157.3 444.2 187.9 470 211.1 501.3C239.8 539.9 261.6 589.7 297.1 619.3C307.3 627.8 318.7 634.6 331.8 639C381.3 655.5 432.7 625.6 459.2 583.3C479.6 551 488.4 511 491.8 470.4C492.9 457.2 493.6 443.9 494.1 430.8C496.3 377.3 497.5 322.1 518.6 272.1C538.9 223.9 584.8 181.3 637.2 182.8C680.6 184 716.9 213.2 758 228.2C825 252.7 897.6 236.6 960.1 214.4C967.1 211.9 974.1 209.4 981 206.8C1036.2 186.2 1091.1 163.5 1152.2 163.2C1167.7 163.1 1183.3 164.7 1198.7 167.8C1275 182.9 1348.7 233.5 1383.5 296.7" stroke="#FF415D" stroke-width="2" stroke-miterlimit="10"/>
<path d="M-130.4 427C-75.9 394.4 -9.40001 382.6 52.8 394.1C76.7 398.5 99.8 406.4 121.4 417.3C156.1 434.7 186.9 459.7 210.6 490.2C239.9 527.8 262.5 576.5 297.6 606.4C307.7 615 318.9 621.9 331.7 626.6C380.2 644.3 430 618 458.1 578.7C479.8 548.3 491 508.6 496 468.2C497.7 455 498.9 441.7 499.9 428.6C504.2 375 507.7 319.8 530.1 269.8C551.3 222.6 596.8 180.7 648.8 181.5C692 182 728.5 209.6 769.4 224.5C836 248.8 907.1 236.2 968 218.1C974.8 216.1 981.6 214 988.4 211.8C1042.2 194.8 1095.4 176.1 1155 178.2C1170.1 178.7 1185.4 180.8 1200.5 184.2C1275.4 201.1 1349.5 250.5 1385.7 308.5" stroke="#FF465D" stroke-width="2" stroke-miterlimit="10"/>
<path d="M-130.4 421.6C-76.4 388.7 -10.5 376.2 51.5 386.8C75.3 390.8 98.4 398.3 120.1 408.6C154.9 425.2 185.9 449.4 210.1 479.1C240 515.7 263.4 563.3 298.1 593.5C308 602.1 319 609.2 331.5 614.2C378.9 633.2 427.4 610.4 456.8 574C480 545.4 493.4 506.2 500 465.8C502.2 452.6 503.9 439.4 505.5 426.2C512 372.6 517.6 317.3 541.4 267.4C563.5 221.2 608.6 180.1 660.1 180C703 179.9 739.7 205.8 780.5 220.5C846.8 244.5 916.3 235.5 975.7 221.4C982.3 219.8 988.9 218.2 995.5 216.5C1047.8 203.2 1099.4 188.4 1157.6 192.8C1172.4 193.9 1187.3 196.5 1202.2 200.3C1275.7 219 1350.2 267.2 1387.7 320" stroke="#FF4C5E" stroke-width="2" stroke-miterlimit="10"/>
<path d="M-130.4 416.2C-76.9 383 -11.6 369.9 50.2 379.4C73.9 383 97 390 118.7 399.9C153.6 415.8 184.9 439.1 209.5 468C240.1 503.7 264.2 550.1 298.5 580.6C308.3 589.3 319.1 596.6 331.2 601.9C377.6 622.1 424.7 602.9 455.5 569.5C480.1 542.8 495.7 503.9 504.1 463.6C506.8 450.4 509.1 437.2 511.3 424C519.9 370.3 527.7 315 553 265.1C575.9 219.8 620.7 179.5 671.8 178.7C714.5 177.9 751.4 202.1 792 216.8C857.9 240.6 925.9 235 983.7 225C990.2 223.9 996.6 222.7 1003 221.5C1053.9 211.8 1103.8 201 1160.6 207.7C1175 209.4 1189.6 212.4 1204.2 216.6C1276.3 237.1 1351.2 284.1 1390.1 331.7" stroke="#FF515E" stroke-width="2" stroke-miterlimit="10"/>
<path d="M-130.4 410.8C-77.4 377.3 -12.6 363.5 48.8 372C72.4 375.2 95.5 381.7 117.3 391.2C152.2 406.3 183.8 428.9 208.9 456.9C240.1 491.6 265 536.9 298.9 567.7C308.6 576.4 319.1 583.9 331 589.5C376.4 611 422.1 595.3 454.3 564.8C480.5 539.9 498.2 501.5 508.2 461.2C511.5 448.1 514.3 434.8 517 421.6C527.8 367.9 537.7 312.5 564.4 262.7C588.2 218.4 632.6 178.9 683.2 177.3C725.6 175.8 762.7 198.4 803.2 212.9C868.7 236.4 935.2 234.4 991.5 228.4C997.8 227.7 1004 227 1010.3 226.2C1059.7 220.2 1108 213.3 1163.3 222.3C1177.3 224.6 1191.6 228.1 1205.9 232.6C1276.6 254.9 1351.9 300.6 1392.1 343.1" stroke="#FF575F" stroke-width="2" stroke-miterlimit="10"/>
<path d="M-130.3 405.3C-77.9 371.5 -13.6001 357.1 47.5999 364.5C71.0999 367.3 94.2 373.4 116 382.3C151 396.6 182.8 418.4 208.5 445.6C240.3 479.3 265.9 523.5 299.5 554.6C309 563.4 319.4 571 330.9 576.9C375.2 599.7 419.8 587.6 453.1 560C480.9 537 500.7 499 512.3 458.8C516.1 445.7 519.5 432.4 522.7 419.2C535.7 365.4 547.6 310 575.8 260.2C600.4 216.8 644.5 178.2 694.7 175.7C736.8 173.6 774.1 194.5 814.5 208.8C879.7 232 944.6 233.6 999.3 231.6C1005.4 231.4 1011.5 231.1 1017.5 230.8C1065.4 228.4 1112.1 225.4 1166 236.8C1179.7 239.7 1193.6 243.7 1207.6 248.6C1277 272.7 1352.6 317.2 1394.2 354.5" stroke="#FF5C5F" stroke-width="2" stroke-miterlimit="10"/>
<path d="M-130.3 399.9C-78.4 365.9 -14.7 350.7 46.3 357.1C69.8 359.5 92.7999 365.1 114.6 373.6C149.7 387.2 181.7 408.1 207.9 434.5C240.3 467.2 266.7 510.3 299.9 541.7C309.3 550.5 319.4 558.3 330.7 564.6C374 588.7 417.4 580.2 451.9 555.4C481.3 534.3 503.1 496.6 516.4 456.5C520.8 443.4 524.7 430.1 528.4 416.9C543.5 363.1 557.5 307.6 587.2 257.9C612.5 215.5 656.4 177.7 706.2 174.4C748.1 171.6 785.6 190.8 825.8 205.1C890.6 228.1 954 233.2 1007.2 235.3C1013.1 235.5 1019 235.7 1024.9 235.9C1071.4 237.2 1116.4 238.1 1168.8 251.9C1182.1 255.4 1195.7 259.9 1209.5 265.1C1277.5 291 1353.5 334.3 1396.4 366.4" stroke="#FF6160" stroke-width="2" stroke-miterlimit="10"/>
<path d="M-130.3 394.5C-78.9 360.2 -15.8 344.4 45 349.7C68.4 351.7 91.4 356.9 113.3 364.9C148.4 377.7 180.7 397.8 207.4 423.4C240.4 455.1 267.5 497.1 300.4 528.8C309.6 537.7 319.6 545.6 330.5 552.2C372.8 577.6 415.1 572.7 450.6 550.8C481.7 531.6 505.5 494.3 520.4 454.2C525.3 441.1 529.7 427.9 534 414.6C551.3 360.7 567.3 305.1 598.5 255.5C624.6 214 668.2 177.1 717.5 172.9C759.1 169.4 796.8 187 836.9 201.1C901.3 223.8 963.2 232.5 1014.9 238.6C1020.7 239.3 1026.4 239.9 1032.1 240.5C1077.1 245.4 1120.5 250.3 1171.5 266.4C1184.4 270.5 1197.7 275.4 1211.2 281C1277.8 308.7 1354.1 350.8 1398.5 377.7" stroke="#FF6760" stroke-width="2" stroke-miterlimit="10"/>
<path d="M-130.3 389.1C-79.4 354.5 -16.9001 338 43.6999 342.3C66.9999 343.9 89.8999 348.6 111.9 356.1C147.1 368.1 179.6 387.4 206.8 412.3C240.5 443 268.3 483.9 300.8 515.9C309.9 524.8 319.6 533 330.3 539.8C371.5 566.4 412.8 565.3 449.4 546.1C482.2 528.9 508 491.8 524.5 451.9C529.9 438.8 534.9 425.6 539.7 412.3C559.1 358.4 577.2 302.7 609.9 253.2C636.7 212.6 680.1 176.5 729 171.6C770.3 167.5 808.3 183.4 848.2 197.3C912.3 219.8 972.5 231.9 1022.7 242.1C1028.3 243.2 1033.8 244.3 1039.3 245.4C1082.9 254 1124.6 262.8 1174.2 281.2C1186.8 285.9 1199.7 291.3 1212.9 297.3C1278.1 326.8 1354.8 367.6 1400.5 389.4" stroke="#FF6C61" stroke-width="2" stroke-miterlimit="10"/>
<path d="M-130.2 383.7C-79.9 348.8 -17.8999 331.7 42.5001 334.9C65.7001 336.1 88.6 340.3 110.6 347.4C145.9 358.7 178.7 377.2 206.3 401.2C240.6 430.9 269.2 470.7 301.3 502.9C310.2 511.9 319.8 520.2 330.1 527.4C370.3 555.3 410.6 557.9 448.1 541.5C482.7 526.4 510.3 489.5 528.5 449.6C534.5 436.6 540 423.3 545.3 410C566.9 356 587 300.2 621.3 250.8C648.8 211.1 692 175.9 740.4 170.2C781.5 165.4 819.6 179.6 859.4 193.5C923.1 215.7 981.8 231.4 1030.5 245.6C1035.9 247.2 1041.3 248.7 1046.6 250.3C1088.7 262.5 1128.8 275.3 1176.9 296C1189.1 301.3 1201.7 307.2 1214.7 313.5C1278.6 344.8 1355.6 384.4 1402.7 400.9" stroke="#FF7261" stroke-width="2" stroke-miterlimit="10"/>
<path d="M-130.2 378.3C-80.4 343.2 -19 325.3 41.2 327.5C64.3 328.3 87.2 332.1 109.3 338.6C144.7 349.1 177.7 366.8 205.8 390C240.7 418.7 270.1 457.4 301.8 489.9C310.6 498.9 319.9 507.4 329.9 514.9C369.1 544.2 408.4 550.6 446.9 536.7C483.3 523.7 512.8 486.9 532.7 447.1C539.2 434.1 545.3 420.8 551.1 407.5C574.8 353.5 596.9 297.6 632.8 248.3C661 209.5 704 175.1 752 168.6C792.8 163.1 831.1 175.7 870.8 189.4C934.1 211.4 991.3 230.6 1038.4 248.8C1043.7 250.8 1048.8 252.8 1054 254.8C1094.6 270.7 1133.1 287.4 1179.8 310.5C1191.7 316.4 1203.9 322.8 1216.6 329.5C1279.1 362.6 1356.5 401 1405 412.3" stroke="#FF7762" stroke-width="2" stroke-miterlimit="10"/>
<path d="M-130.2 372.8C-80.9 337.4 -20.1 318.9 39.9 320C62.9 320.4 85.8 323.7 107.9 329.8C143.3 339.5 176.6 356.4 205.2 378.8C240.7 406.6 270.9 444.1 302.2 476.9C310.9 486 320 494.6 329.7 502.4C367.8 533 406.2 543.2 445.6 532C483.8 521.1 515.2 484.5 536.7 444.8C543.8 431.8 550.4 418.5 556.7 405.2C582.6 351.1 606.6 295.1 644.1 245.9C673 208 715.8 174.5 763.3 167.2C803.9 161 842.4 172 881.8 185.6C944.8 207.3 1000.4 230.1 1046 252.4C1051.1 254.9 1056.1 257.3 1061 259.8C1100.2 279.3 1136.9 300 1182.2 325.4C1193.7 331.9 1205.6 338.7 1218 345.8C1279.1 380.7 1356.9 417.9 1406.7 424" stroke="#FF7D62" stroke-width="2" stroke-miterlimit="10"/>
<path d="M-130.1 367.4C-81.3 331.7 -21.1 312.5 38.7 312.6C61.7 312.6 84.5 315.5 106.6 321.1C142.1 330.1 175.6 346.1 204.7 367.7C240.9 394.5 271.8 430.9 302.7 464C311.2 473.1 320.1 482 329.5 490.1C366.6 522 404 536.2 444.4 527.4C484.3 518.8 517.6 482.1 540.8 442.5C548.4 429.5 555.5 416.3 562.5 402.9C590.5 348.8 616.5 292.5 655.6 243.6C685.2 206.6 727.8 173.9 774.9 165.8C815.2 158.9 853.9 168.3 893.2 181.7C955.8 203.1 1009.9 229.4 1053.9 255.8C1058.8 258.7 1063.6 261.7 1068.4 264.6C1106.1 287.8 1141.2 312.4 1185.1 340.1C1196.2 347.2 1207.8 354.5 1219.9 361.9C1279.6 398.6 1357.8 434.5 1409 435.5" stroke="#FF8263" stroke-width="2" stroke-miterlimit="10"/>
<path d="M-130.1 362C-81.9 326 -22.2 306.2 37.4 305.2C60.3 304.8 83.1 307.2 105.3 312.3C140.9 320.5 174.6 335.7 204.2 356.5C241 382.3 272.7 417.6 303.2 451C311.6 460.2 320.3 469.2 329.4 477.6C365.4 510.8 401.8 529 443.3 522.7C485 516.4 520.2 479.7 545 440.1C553.1 427.1 560.8 413.9 568.3 400.5C598.5 346.3 626.4 289.9 667.1 241.1C697.3 204.9 739.8 173.1 786.5 164.3C826.5 156.7 865.5 164.4 904.6 177.7C966.9 198.9 1019.4 228.7 1061.9 259.1C1066.6 262.5 1071.3 265.9 1075.8 269.2C1112.1 296.1 1145.5 324.6 1188 354.6C1198.8 362.3 1210 370.1 1221.9 377.9C1280.3 416.4 1358.8 451.1 1411.3 446.9" stroke="#FF8763" stroke-width="2" stroke-miterlimit="10"/>
<path d="M-130.1 356.6C-82.4 320.3 -23.3 299.8 36.1 297.8C58.9 297 81.7 299 103.9 303.6C139.6 311 173.6 325.4 203.6 345.4C241 370.2 273.5 404.4 303.6 438.1C311.9 447.3 320.3 456.5 329.1 465.2C364 499.7 399.4 522 441.9 518C485.3 514 522.5 477.3 548.9 437.7C557.6 424.8 565.8 411.5 573.8 398.1C606.1 343.8 635.9 287.2 678.3 238.7C709.1 203.4 751.5 172.4 797.7 162.9C837.4 154.6 876.6 160.7 915.6 173.9C977.5 194.8 1028.5 228.2 1069.4 262.6C1074 266.4 1078.4 270.3 1082.8 274.1C1117.6 304.6 1149.4 337 1190.4 369.5C1200.8 377.7 1211.7 386 1223.3 394.2C1280.3 434.4 1359.2 468 1413.1 458.6" stroke="#FF8D64" stroke-width="2" stroke-miterlimit="10"/>
<path d="M-130.1 351.2C-82.9 314.7 -24.4 293.5 34.8 290.4C57.5 289.2 80.3 290.7 102.6 294.9C138.3 301.6 172.6 315.2 203.1 334.3C241.1 358.1 274.4 391.2 304.1 425.2C312.2 434.5 320.4 443.9 329 452.9C362.9 488.7 397.2 515 440.8 513.5C486 511.9 525 475 553.1 435.6C562.3 422.7 571.1 409.4 579.6 396C614.1 341.7 645.8 284.9 689.8 236.5C721.3 202 763.5 171.9 809.3 161.6C848.8 152.6 888.1 157.1 927 170.1C988.5 190.8 1038 227.7 1077.4 266.1C1081.8 270.4 1086.1 274.7 1090.3 279C1123.6 313.2 1153.8 349.5 1193.4 384.3C1203.5 393.1 1214.1 401.9 1225.3 410.5C1280.9 452.5 1360.2 484.9 1415.4 470.3" stroke="#FF9264" stroke-width="2" stroke-miterlimit="10"/>
<path d="M-130 345.8C-83.3 309 -25.4 287.1 33.5 283C56.1 281.4 78.9 282.4 101.2 286.1C137 292 171.5 304.8 202.5 323.1C241.1 345.9 275.1 377.8 304.5 412.2C312.5 421.5 320.5 431.1 328.7 440.4C361.5 477.6 394.9 505.9 439.4 508.8C486.1 511.8 527.3 472.6 557 433.2C566.8 420.3 576 407 585.1 393.6C621.7 339.2 655.3 282.1 701.1 234.1C733.2 200.4 775.3 171.3 820.6 160.2C859.8 150.5 899.4 153.3 938.1 166.3C999.3 186.7 1047.2 227.2 1085 269.6C1089.2 274.3 1093.3 279.1 1097.3 283.8C1129.2 321.6 1157.7 361.9 1195.8 399C1205.5 408.4 1215.8 417.7 1226.8 426.6C1281 470.4 1360.7 501.6 1417.3 481.8" stroke="#FF9865" stroke-width="2" stroke-miterlimit="10"/>
<path d="M-130 340.3C-83.9 303.2 -26.5 280.7 32.2 275.5C54.7 273.5 77.5 274.1 99.8 277.3C135.7 282.5 170.4 294.4 201.9 311.9C241.2 333.7 275.9 364.5 304.9 399.2C312.7 408.6 320.5 418.3 328.4 427.9C360.1 466.4 392.3 500.9 438.1 504C486.6 507.3 529.7 470 561.1 430.7C571.4 417.8 581.2 404.5 590.8 391.1C629.6 336.7 665 279.3 712.5 231.6C745.2 198.7 787.2 170.6 832.1 158.6C871.1 148.2 910.8 149.4 949.4 162.2C1010.2 182.4 1056.6 226.3 1092.9 272.9C1096.9 278.1 1100.9 283.3 1104.7 288.5C1135.1 330 1162 374.2 1198.7 413.6C1208 423.6 1218 433.4 1228.7 442.6C1281.5 488.2 1361.5 518.1 1419.5 493.2" stroke="#FF9D65" stroke-width="2" stroke-miterlimit="10"/>
<path d="M-130 334.9C-84.4 297.5 -27.6 274.3 30.9 268.1C53.4 265.7 76.1 265.8 98.5 268.5C134.4 272.9 169.4 284 201.4 300.7C241.3 321.5 276.8 351.2 305.4 386.2C313.1 395.6 320.6 405.6 328.3 415.5C358.9 455.4 390 493.9 436.9 499.4C487 505.2 532.1 467.7 565.2 428.5C576 415.6 586.4 402.4 596.5 388.9C637.4 334.4 674.7 276.7 723.9 229.3C757.2 197.2 799.1 170 843.5 157.3C882.2 146.2 922.2 145.8 960.6 158.4C1021 178.3 1065.9 225.8 1100.6 276.4C1104.5 282 1108.2 287.7 1111.9 293.4C1140.9 338.5 1166.1 386.7 1201.4 428.4C1210.4 439 1220 449.2 1230.4 458.9C1281.9 506.3 1362.2 535 1421.6 504.9" stroke="#FFA366" stroke-width="2" stroke-miterlimit="10"/>
<path d="M-129.9 329.5C-67.5 277.4 16.2999 251.6 97.2 259.8C178.1 267.9 255.1 309.8 305.9 373.3C343.9 420.9 375.6 485.1 435.7 494.7C487.3 503 534.6 465.2 569.3 426.1C626.7 361.3 671.8 285.6 735.3 226.9C798.9 168.2 889.7 127.6 971.9 154.5C1038.7 176.3 1084.7 237 1119.2 298.2C1153.7 359.4 1182.1 425.8 1232.2 475.1C1282.3 524.4 1363 551.8 1423.8 516.5" stroke="#FFA866" stroke-width="2" stroke-miterlimit="10"/>
</g>
</g>
<defs>
<clipPath id="clip0_3_706">
<rect width="1200" height="800" rx="40" fill="white"/>
</clipPath>
</defs>
</svg>
