<svg width="1200" height="800" viewBox="0 0 1200 800" fill="none" xmlns="http://www.w3.org/2000/svg">
<mask id="mask0_201_1416" style="mask-type:luminance" maskUnits="userSpaceOnUse" x="0" y="0" width="1200" height="800">
<path d="M1200 0H0V800H1200V0Z" fill="white"/>
</mask>
<g mask="url(#mask0_201_1416)">
<path d="M1200 0H0V800H1200V0Z" fill="#F2FFF3"/>
</g>
<mask id="mask1_201_1416" style="mask-type:luminance" maskUnits="userSpaceOnUse" x="0" y="0" width="1200" height="800">
<path d="M1200 0H0V800H1200V0Z" fill="white"/>
</mask>
<g mask="url(#mask1_201_1416)">
<path d="M-973.7 1039.3C-900.7 859.2 -702.2 733.6 -502.3 741.1C-342.2 747.2 -181.5 829.2 -28.4 782.6C83.4 748.6 163.1 652 216.3 551.1C269.5 450.2 303.6 340.2 363.7 243C423.8 145.8 519 58.8 635.5 47.1C734 37.2 828.5 82.1 914.7 128.8C1000.8 175.5 1089.7 226.6 1188.6 230.9" stroke="#E6F7E8" stroke-miterlimit="10"/>
<path d="M-975.8 1033.2C-931.3 926.9 -840.4 842.8 -735.6 797C-672.2 769.4 -603.7 755.4 -532.6 755.5C-523.7 755.5 -514.8 755.8 -505.9 756.2C-431.9 759.9 -357.3 776.8 -284.1 789.4C-199.9 804 -116.7 812.8 -34.9 788.8C53.6 763.3 122.8 707.1 176.8 635.5C192.2 615.1 206.2 593.4 218.8 571.2C242.7 528.9 262.9 484 282.3 439C308.8 377.8 334.3 316.3 368.8 259.1C373.2 251.8 377.8 244.6 382.5 237.5C424 175.4 480.5 119.5 547.6 89.1C578.2 75.3 610.6 66.8 644.6 64.6C708.1 60.5 769.8 78.7 829.4 103.2C862.9 117 895.7 132.6 927.4 147.9C955.3 161.5 983.4 175.1 1011.7 187.4C1072.8 213.9 1135.4 234.2 1202.4 233.6" stroke="#E6F7E8" stroke-miterlimit="10"/>
<path d="M-977.8 1027.2C-932.1 921.8 -838.5 841.4 -735 802C-672.5 778.2 -606.3 768.5 -535.8 770.3C-527 770.5 -518.1 770.9 -509.3 771.5C-435.8 776.2 -361.1 790.7 -288.6 800.8C-205.3 812.5 -123.1 817.8 -41.4 795.1C48.5 770.1 119.5 722.4 176.6 654C193 634.5 207.9 613.3 221.3 591.2C246.6 549.3 267.8 503.9 287.6 458.2C314.5 396.1 339.6 333.4 374.1 275.1C378.5 267.7 383 260.3 387.8 253.1C429.3 189.7 487 132.5 555.6 103.6C586.9 90.5 619.7 83.2 654 82.2C717.9 80.3 779.8 100.6 840.4 124.9C874.5 138.6 908.1 153.2 940.4 167.2C968.9 179.5 997.4 191.5 1026.1 202C1087.8 224.6 1150.1 240.4 1216.5 236.5" stroke="#E6F7E8" stroke-miterlimit="10"/>
<path d="M-979.8 1021.2C-933 916.7 -836.5 840.1 -734.5 806.9C-672.8 786.9 -609 781.5 -539.2 785C-530.5 785.5 -521.7 786 -512.9 786.7C-439.9 792.3 -365.1 804.5 -293.3 812C-210.9 820.8 -129.6 822.8 -48 801.2C43.3 777 116 737.6 176.4 672.3C193.7 653.7 209.5 633 223.7 611.1C250.4 569.6 272.6 523.7 292.7 477.4C320.1 414.4 344.7 350.5 379.1 291C383.5 283.4 388 275.9 392.8 268.5C434.4 203.8 493.1 145.3 563.3 117.8C595.3 105.3 628.5 99.2 663.1 99.5C727.3 99.8 789.5 122.3 851.1 146.3C885.9 159.8 920.2 173.6 953.2 186.2C982.3 197.3 1011.3 207.7 1040.2 216.4C1102.5 235.2 1164.5 246.5 1230.4 239.2" stroke="#E6F7E8" stroke-miterlimit="10"/>
<path d="M-981.9 1015.1C-934 911.5 -834.6 838.7 -734 811.8C-673.2 795.6 -611.6 794.6 -542.5 799.7C-533.8 800.4 -525.1 801.1 -516.4 801.9C-443.9 808.4 -369 818.3 -297.9 823.3C-216.4 829.3 -135.9 828 -54.5 807.5C38.3 784.1 112.6 752.8 176.3 690.8C194.6 673.1 211.3 652.9 226.2 631.2C254.4 590.2 277.6 543.7 298 496.8C325.8 433 350.1 367.7 384.3 307.1C388.7 299.4 393.2 291.7 398 284.2C439.6 218.2 499.4 158.4 571.2 132.4C604 120.6 637.6 115.7 672.4 117.2C737 119.7 799.4 144.3 861.9 168.1C897.3 181.5 932.3 194.4 966.1 205.5C995.7 215.4 1025.3 224.1 1054.5 231.1C1117.4 246.1 1179.1 252.9 1244.4 242.2" stroke="#E6F7E8" stroke-miterlimit="10"/>
<path d="M-983.9 1009.1C-934.9 906.4 -832.7 837.4 -733.5 816.7C-673.5 804.2 -614.3 807.6 -545.8 814.4C-537.2 815.3 -528.6 816.2 -519.9 817.1C-447.9 824.5 -372.9 832.1 -302.5 834.5C-221.8 837.6 -142.3 833.1 -60.9 813.6C33.3 791 109.3 767.9 176.2 709.2C195.4 692.3 213 672.7 228.7 651.2C258.3 610.6 282.5 563.6 303.2 516.1C331.5 451.4 355.3 384.9 389.4 323.1C393.7 315.2 398.3 307.4 403.1 299.7C444.7 232.4 505.7 171.3 578.9 146.7C612.4 135.5 646.4 132 681.5 134.5C746.5 139.3 809 165.9 872.6 189.5C908.6 202.8 944.4 214.8 978.8 224.5C1009 233.1 1039.1 240.3 1068.5 245.4C1131.9 256.5 1193.4 258.9 1258.1 244.8" stroke="#E6F7E8" stroke-miterlimit="10"/>
<path d="M-985.9 1003C-935.8 901.2 -830.7 836 -732.9 821.6C-673.7 812.9 -616.9 820.6 -549.1 829.1C-540.6 830.2 -532 831.2 -523.4 832.2C-451.8 840.5 -376.8 845.7 -307.1 845.7C-227.3 846 -148.7 838.3 -67.4 819.8C28.3 798.1 106 783.1 176.1 727.6C196.3 711.6 214.8 692.5 231.3 671.1C262.3 631 287.5 583.4 308.6 535.2C337.4 469.6 360.7 401.9 394.7 339C399 331 403.6 323 408.3 315.2C449.9 246.6 512 184.2 586.8 161.1C621 150.6 655.4 148.2 690.8 152C756.1 159 818.9 187.7 883.5 211.1C920.1 224.3 956.7 235.3 991.8 243.6C1022.6 251 1053.2 256.5 1082.9 259.9C1146.9 267.2 1208.1 265.1 1272.3 247.5" stroke="#E6F7E8" stroke-miterlimit="10"/>
<path d="M-988 997C-936.8 896.2 -828.8 834.6 -732.4 826.5C-674.1 821.6 -619.6 833.6 -552.4 843.8C-544 845.1 -535.4 846.3 -526.8 847.4C-455.7 856.7 -380.7 859.4 -311.6 856.9C-232.7 854.1 -154.9 843.4 -73.8 826C23.3999 805.1 102.7 798.4 176 746C197.1 730.9 216.5 712.2 233.8 691.1C266.2 651.4 292.4 603.3 313.8 554.5C343 488 365.9 419.1 399.8 355C404.1 346.8 408.7 338.7 413.4 330.7C455 260.8 518.3 197.1 594.6 175.4C629.5 165.5 664.4 164.4 699.9 169.4C765.6 178.6 828.6 209.4 894.1 232.6C931.3 245.7 968.6 255.8 1004.5 262.7C1035.9 268.8 1066.9 272.8 1096.9 274.4C1161.5 277.9 1222.4 271.2 1286 250.3" stroke="#E6F7E8" stroke-miterlimit="10"/>
<path d="M-990 991C-937.7 891 -826.9 833.3 -731.9 831.4C-674.4 830.3 -622.3 846.6 -555.8 858.5C-547.4 860 -539 861.4 -530.4 862.6C-459.8 872.8 -384.7 873.1 -316.3 868.2C-238.3 862.6 -161.3 848.7 -80.4 832.2C18.2 812.2 99.2999 813.6 175.8 764.5C197.9 750.3 218.2 732.1 236.2 711.2C270 671.9 297.2 623.3 319 573.9C348.7 506.5 371.1 436.3 404.9 371.1C409.2 362.8 413.7 354.5 418.5 346.4C460.1 275.2 524.5 210.2 602.3 189.9C638 180.7 673.2 180.8 709 187C775.1 198.5 838.3 231.3 904.8 254.3C942.7 267.3 980.7 276.5 1017.2 281.9C1049.2 286.8 1080.7 289.1 1111 288.9C1176.2 288.6 1236.8 277.4 1299.9 253.1" stroke="#E6F7E8" stroke-miterlimit="10"/>
<path d="M-992.1 984.9C-938.6 885.9 -825 831.9 -731.4 836.3C-674.8 839 -625 859.6 -559.1 873.2C-550.8 874.9 -542.4 876.5 -533.9 877.8C-463.8 888.9 -388.6 886.9 -320.8 879.4C-243.6 870.9 -167.6 853.8 -86.8 838.4C13.3 819.2 96.0999 828.8 175.8 782.9C198.8 769.6 220 751.9 238.9 731.1C274.1 692.3 302.4 643.1 324.4 593.1C354.5 524.8 376.6 453.4 410.3 387.1C414.6 378.6 419.1 370.2 423.9 361.9C465.5 289.4 531.1 223.1 610.4 204.3C646.8 195.7 682.4 197.1 718.5 204.5C784.9 218.2 848.4 253.1 915.9 275.9C954.4 288.8 993.2 297 1030.4 301.1C1063 304.8 1095 305.4 1125.5 303.5C1191.3 299.3 1251.6 283.7 1314.1 256" stroke="#E6F7E8" stroke-miterlimit="10"/>
<path d="M-994.1 978.9C-939.5 880.8 -823 830.6 -730.8 841.2C-675 847.7 -627.5 872.7 -562.3 887.9C-554.1 889.8 -545.7 891.5 -537.3 893C-467.7 905 -392.4 900.7 -325.3 890.7C-249 879.3 -173.8 859.1 -93.1 844.6C8.50002 826.3 92.8999 844.1 175.8 801.3C199.8 788.9 221.8 771.7 241.5 751.1C278.1 712.7 307.4 663 329.8 612.3C360.4 543.2 382 470.5 415.6 403C419.9 394.4 424.4 385.8 429.2 377.4C470.8 303.5 537.5 236 618.4 218.6C655.5 210.7 691.6 213.2 727.9 221.9C794.7 237.8 858.4 274.8 926.8 297.4C965.9 310.2 1005.4 317.5 1043.4 320.1C1076.5 322.5 1109.1 321.6 1139.9 317.9C1206.3 309.9 1266.3 289.8 1328.2 258.7" stroke="#E6F7E8" stroke-miterlimit="10"/>
<path d="M-996.1 972.8C-940.4 875.6 -821 829.2 -730.3 846.1C-675.4 856.4 -630.2 885.7 -565.7 902.6C-557.6 904.8 -549.3 906.6 -540.9 908.2C-471.7 921.1 -396.5 914.5 -330 902C-254.6 887.8 -180.3 864.4 -99.7 850.9C3.40005 833.6 89.5 859.4 175.6 819.9C200.5 808.4 223.5 791.7 243.9 771.3C281.9 733.3 312.2 683.1 334.9 631.8C366 561.8 387.1 487.8 420.6 419.2C424.9 410.4 429.4 401.7 434.1 393.2C475.8 318 543.6 249.2 626 233.3C663.8 226.1 700.3 229.8 736.9 239.6C804 257.7 868 296.9 937.4 319.2C977.1 331.9 1017.4 338.3 1056 339.5C1089.7 340.7 1122.8 338.1 1153.8 332.6C1220.7 320.8 1280.5 296.2 1341.9 261.7" stroke="#E6F7E8" stroke-miterlimit="10"/>
<path d="M-998.2 966.8C-941.4 870.5 -819.2 827.8 -729.8 851C-675.7 865.1 -632.9 898.7 -569 917.3C-560.9 919.7 -552.7 921.7 -544.4 923.4C-475.7 937.3 -400.4 928.2 -334.6 913.2C-260.1 896.1 -186.6 869.7 -106.2 857.1C-1.59995 840.7 86.2001 874.7 175.4 838.3C201.3 827.7 225.1 811.5 246.4 791.2C285.8 753.7 317.1 702.9 340.2 651C371.7 580.1 392.4 504.9 425.8 435.2C430.1 426.3 434.6 417.4 439.3 408.7C481 332.2 549.9 262.1 633.8 247.6C672.4 241 709.3 246 746.1 257C813.6 277.3 877.8 318.6 948.2 340.6C988.5 353.2 1029.6 358.6 1068.9 358.4C1103.2 358.3 1136.7 354.2 1168.1 346.9C1235.6 331.2 1295.1 302.1 1355.9 264.2" stroke="#E6F7E8" stroke-miterlimit="10"/>
<path d="M-1000.2 960.8C-942.3 865.4 -817.2 826.5 -729.2 856C-675.9 873.9 -635.5 911.8 -572.3 932C-564.3 934.6 -556.2 936.8 -547.9 938.5C-479.7 953.3 -404.3 941.9 -339.2 924.4C-265.5 904.5 -192.9 874.9 -112.7 863.2C-6.59995 847.8 82.8 889.9 175.3 856.6C202.1 847 226.9 831.2 248.9 811.1C289.7 774 322.1 722.7 345.4 670.2C377.4 598.4 397.6 522 430.9 451.1C435.2 442 439.6 433 444.4 424.2C486.1 346.4 556.2 275 641.6 262C680.9 256.1 718.2 262.2 755.3 274.5C823.2 297 887.5 340.4 958.9 362.2C999.8 374.7 1041.6 379.2 1081.7 377.6C1116.6 376.3 1150.6 370.5 1182.2 361.5C1250.3 342 1309.5 308.4 1369.8 267.1" stroke="#E6F7E8" stroke-miterlimit="10"/>
<path d="M-1002.2 954.7C-943.2 860.2 -815.2 825.1 -728.7 860.8C-676.3 882.5 -638.2 924.7 -575.6 946.6C-567.7 949.4 -559.6 951.7 -551.4 953.6C-483.7 969.3 -408.2 955.6 -343.8 935.5C-271 912.8 -199.2 880 -119.2 869.3C-11.6 854.8 79.5001 905 175.2 875C203 866.3 228.6 851 251.4 831.1C293.6 794.4 327 742.6 350.7 689.4C383.1 616.7 403 539.1 436.1 467C440.3 457.8 444.8 448.6 449.6 439.6C491.3 360.5 562.5 287.8 649.5 276.2C689.5 270.9 727.3 278.2 764.6 291.8C832.9 316.3 897.4 362 969.8 383.6C1011.4 396 1053.9 399.6 1094.6 396.5C1130.1 394 1164.6 386.6 1196.5 375.7C1265.2 352.4 1324.1 314.3 1383.8 269.6" stroke="#E6F7E8" stroke-miterlimit="10"/>
<path d="M-1004.3 948.7C-944.2 855.2 -813.4 823.8 -728.2 865.8C-676.6 891.3 -640.9 937.9 -578.9 961.4C-571 964.4 -563 966.9 -554.9 968.9C-487.7 985.5 -412.1 969.5 -348.4 946.9C-276.5 921.3 -205.6 885.5 -125.6 875.6C-16.5 862.1 76.4 920.6 175.1 893.5C203.9 885.7 230.3 870.8 253.9 851.2C297.4 814.9 331.9 762.6 355.9 708.8C388.8 635.2 408.2 556.3 441.3 483.1C445.5 473.7 450 464.4 454.8 455.3C496.5 374.9 568.9 300.9 657.4 290.7C698.2 286.1 736.3 294.6 773.9 309.4C842.6 336.1 907.3 383.9 980.7 405.3C1022.9 417.6 1066.2 420.2 1107.6 415.8C1143.7 412 1178.7 403 1210.8 390.4C1280.1 363.2 1338.7 320.7 1397.8 272.6" stroke="#E6F7E8" stroke-miterlimit="10"/>
<path d="M-1006.3 942.6C-945.1 850 -811.4 822.4 -727.6 870.6C-676.9 899.9 -643.4 950.8 -582.2 976C-574.4 979.2 -566.5 981.9 -558.4 984C-491.7 1001.5 -416 983.3 -353 958C-281.9 929.7 -211.9 890.7 -132.1 881.7C-21.5 869.2 73 935.8 175 911.8C204.7 904.9 232 890.5 256.5 871C301.4 835.1 336.9 782.3 361.3 727.9C394.7 653.5 413.6 573.3 446.6 499C450.8 489.5 455.3 480 460 470.7C501.7 389 575.2 313.7 665.2 305C706.7 301 745.2 310.8 783.1 326.7C852.1 355.6 917.1 405.5 991.4 426.7C1034.2 438.9 1078.2 440.6 1120.4 434.7C1157 429.7 1192.6 419 1225 404.7C1294.9 373.7 1353.2 326.7 1411.8 275.2" stroke="#E6F7E8" stroke-miterlimit="10"/>
<path d="M-1008.4 936.6C-946 844.9 -809.5 821 -727.2 875.5C-677.3 908.6 -646.2 963.8 -585.6 990.7C-577.9 994.1 -570 997 -562 999.2C-495.7 1017.7 -420 997.1 -357.7 969.3C-287.5 938.2 -218.3 896.1 -138.7 888C-26.6 876.6 69.6 951.1 174.7 930.4C205.4 924.4 233.6 910.5 258.8 891.2C305.1 855.7 341.7 802.4 366.3 747.4C400.1 672.1 418.6 590.7 451.5 515.2C455.7 505.5 460.2 495.9 464.9 486.5C506.6 403.5 581.3 326.9 672.8 319.6C715 316.3 754 327.2 792.1 344.4C861.5 375.5 926.7 427.5 1002 448.5C1045.4 460.6 1090.2 461.4 1133 454.1C1170.2 447.8 1206.2 435.6 1238.9 419.4C1309.4 384.6 1367.4 333.1 1425.4 278.1" stroke="#E6F7E8" stroke-miterlimit="10"/>
<path d="M-1010.4 930.6C-946.9 839.8 -807.6 819.7 -726.6 880.5C-677.5 917.4 -648.8 976.9 -588.9 1005.5C-581.3 1009.2 -573.4 1012.1 -565.5 1014.5C-499.7 1033.9 -423.9 1011 -362.3 980.6C-292.9 946.6 -224.7 901.5 -145.2 894.2C-31.6 883.8 66.2 966.4 174.6 948.8C206.2 943.7 235.3 930.2 261.3 911.2C309 876.1 346.6 822.3 371.6 766.6C405.9 690.4 423.9 607.8 456.7 531.1C460.9 521.3 465.3 511.5 470.1 501.9C511.8 417.6 587.6 339.7 680.7 333.9C723.6 331.2 763 343.4 801.4 361.8C871.2 395.1 936.6 449.2 1012.9 470C1056.9 482 1102.5 481.8 1146 473.1C1183.8 465.6 1220.3 451.7 1253.3 433.8C1324.3 395.2 1382.1 339.1 1439.6 280.8" stroke="#E6F7E8" stroke-miterlimit="10"/>
<path d="M-1012.4 924.5C-947.8 834.6 -805.6 818.3 -726 885.3C-677.8 925.9 -651.4 989.8 -592.1 1020.1C-584.5 1024 -576.8 1027.1 -568.9 1029.6C-503.6 1049.9 -427.7 1024.7 -366.8 991.8C-298.3 955 -230.9 906.8 -151.6 900.4C-36.6 891.1 63 981.6 174.6 967.2C207.2 963 237.1 950 264 931.1C313 896.4 351.7 842.1 377 785.8C411.7 708.7 429.4 624.8 462 547.1C466.2 537.1 470.6 527.2 475.4 517.5C517.2 431.9 594.1 352.7 688.7 348.3C732.4 346.3 772.1 359.7 810.8 379.3C881 414.8 946.6 471 1023.8 491.6C1068.5 503.5 1114.7 502.4 1159 492.3C1197.4 483.6 1234.4 468.1 1267.6 448.4C1339.2 405.9 1396.7 345.4 1453.6 283.7" stroke="#E6F7E8" stroke-miterlimit="10"/>
<path d="M-1014.5 918.5C-948.8 829.5 -803.7 817 -725.6 890.3C-678.2 934.7 -654.2 1003 -595.5 1034.9C-588 1039 -580.3 1042.3 -572.4 1044.9C-507.6 1066.1 -431.7 1038.6 -371.4 1003.1C-303.8 963.4 -237.2 912.3 -158 906.6C-41.4 898.6 59.8 996.9 174.5 985.6C208 982.3 238.9 969.8 266.5 951.1C316.9 916.9 356.6 862 382.3 805.1C417.5 727.1 434.7 642 467.2 563.1C471.4 553 475.8 542.9 480.6 533.1C522.4 446.1 600.4 365.7 696.5 362.8C740.9 361.5 781.1 376 820 396.9C890.5 434.6 956.4 493 1034.6 513.3C1079.9 525.1 1126.9 523.1 1171.9 511.5C1210.9 501.5 1248.4 484.4 1281.9 462.9C1354.1 416.6 1411.3 351.6 1467.6 286.5" stroke="#E6F7E8" stroke-miterlimit="10"/>
<path d="M-1016.5 912.4C-949.7 824.3 -801.7 815.6 -725 895.1C-678.5 943.3 -656.7 1015.9 -598.8 1049.5C-530.3 1089.2 -442.8 1056.8 -376.1 1014.2C-309.3 971.7 -243.7 917.4 -164.6 912.7C-46.6 905.6 56.2999 1012 174.3 1004C271.7 997.4 347.2 913.3 387.5 824.4C427.8 735.5 443.9 636.9 485.7 548.6C527.5 460.3 606.7 378.6 704.3 377.1C831.1 375.2 922.4 503.5 1045.3 534.7C1131 556.4 1223.2 527.4 1296 477.3C1368.8 427.2 1425.7 357.7 1481.5 289.2" stroke="#E6F7E8" stroke-miterlimit="10"/>
<path d="M-1015.9 904.3C-947.6 816.9 -800.2 807.8 -721.5 885.5C-689.2 917.4 -667.9 960.4 -639.7 995.8C-626.3 1012.6 -611.3 1027.7 -592.7 1038.9C-577.6 1048 -561.6 1053.6 -545 1056.4C-486.7 1066.2 -421.7 1040.7 -369 1008.4C-361.7 1003.9 -354.5 999.3 -347.2 994.7C-286.9 955.9 -226.5 912.4 -155.7 907.1C-65.6 900.6 16.4 958.9 102.4 984.4C128.1 992 154.1 996.7 180.9 995.7C276.7 992 350.9 915.9 392.5 833C402.2 813.9 410.6 794.1 418.6 774C445 706.9 464.1 635 497 568.1C509.3 542.9 524.6 518.2 542.2 495.6C585.5 440.1 643.6 397.8 710.7 394.1C746 392.2 778.4 400.6 809.7 414.1C887.3 447.4 957.7 512.5 1044 531.2C1128.3 549.5 1219.3 520 1292.1 471C1364.9 422 1422.7 355.2 1479.5 290.1" stroke="#E6F7E8" stroke-miterlimit="10"/>
<path d="M-1015.2 896.1C-945.3 809.3 -798.5 800 -718 875.9C-684.9 907.1 -662.4 949.3 -633.8 984.7C-620.2 1001.5 -605.2 1016.8 -586.7 1028.2C-571.7 1037.5 -555.8 1043.5 -539.2 1046.7C-480.9 1058 -415.5 1033.8 -361.9 1002.4C-354.5 998.1 -347.1 993.6 -339.8 989C-278.7 951 -217.9 907.5 -146.9 901.3C-57.6 893.6 24.6001 948.6 109.9 974.6C135.4 982.4 161 987.5 187.3 987.3C281.5 986.6 354.3 918.4 397.4 841.6C407.4 823.9 416.4 805.5 424.9 786.5C453.2 723.3 474.5 653.4 508.1 587.4C520.7 562.6 535.9 538.1 553.3 515.6C596 460.3 652.2 417.3 716.9 411C750.9 407.7 782.3 414.3 812.7 425.7C888 453.9 957.5 512.4 1042.4 527.6C1125.4 542.5 1215.2 512.4 1287.9 464.5C1360.6 416.6 1419.4 352.5 1477.3 290.9" stroke="#E6F7E8" stroke-miterlimit="10"/>
<path d="M-1014.6 887.9C-943.2 801.8 -796.9 792.2 -714.5 866.2C-680.6 896.6 -656.9 938 -627.8 973.5C-614 990.3 -599 1005.7 -580.6 1017.5C-565.7 1027 -549.8 1033.4 -533.3 1037C-475.1 1049.8 -409.1 1027 -354.7 996.4C-347.2 992.2 -339.7 987.8 -332.3 983.3C-270.4 946.1 -209.1 902.7 -137.9 895.6C-49.4 886.8 33 938.4 117.6 964.8C142.8 972.7 168.2 978.2 194 978.9C286.6 981.2 357.9 920.8 402.5 850.2C412.8 833.9 422.3 816.9 431.5 799.1C461.7 739.9 485.3 672 519.6 606.9C532.5 582.5 547.7 558.2 564.8 535.8C606.9 480.8 661.1 437 723.5 428C756.3 423.4 786.6 428.1 816.1 437.4C889.2 460.5 957.7 512.4 1041.3 524C1123 535.4 1211.6 504.9 1284.3 458.1C1357 411.4 1416.7 350 1475.6 291.8" stroke="#E6F7E8" stroke-miterlimit="10"/>
<path d="M-1013.9 879.7C-941 794.3 -795.2 784.3 -711 856.5C-676.2 886.2 -651.4 926.8 -621.9 962.3C-608 979.1 -592.9 994.7 -574.6 1006.8C-559.8 1016.6 -544 1023.3 -527.6 1027.3C-469.4 1041.6 -402.9 1020.2 -347.7 990.5C-340.1 986.4 -332.5 982.1 -325 977.7C-262.3 941.3 -200.6 898 -129.2 889.9C-41.5 880 41.2 928.2 125 955C150 963 175 969 200.3 970.4C291.3 975.7 361.1 923.1 407.3 858.7C418 843.8 428 828.2 437.7 811.5C470 756.3 495.6 690.3 530.6 626.2C543.7 602.1 559 578.1 575.9 555.7C617.3 500.9 669.6 456.4 729.7 444.8C761.3 438.8 790.5 441.8 819.1 449C890 466.9 957.4 512.3 1039.7 520.3C1120 528.3 1207.5 497.2 1280.1 451.6C1352.8 406 1413.5 347.3 1473.3 292.5" stroke="#E6F7E8" stroke-miterlimit="10"/>
<path d="M-1013.3 871.5C-938.9 786.7 -793.6 776.5 -707.5 846.8C-671.9 875.7 -645.9 915.5 -616 951.1C-601.9 967.9 -586.8 983.7 -568.6 996C-553.9 1006 -538.2 1013.2 -521.8 1017.5C-463.6 1033.2 -396.7 1013.3 -340.6 984.4C-332.9 980.4 -325.2 976.2 -317.6 972C-254.1 936.4 -191.9 893.2 -120.3 884.1C-33.3 873.1 49.5 917.9 132.6 945.1C157.4 953.2 182 959.7 206.9 961.9C296.3 970.2 364.7 925.4 412.3 867.2C423.3 853.7 433.9 839.4 444.2 824C478.4 772.7 506.2 708.7 542 645.6C555.4 621.9 570.7 598.1 587.3 575.8C628.1 521.2 678.4 475.8 736.2 461.7C766.5 454.3 794.7 455.5 822.4 460.6C891.2 473.3 957.5 512.2 1038.5 516.7C1117.5 521.3 1203.8 489.7 1276.4 445.2C1349 400.7 1410.7 344.7 1471.5 293.4" stroke="#E6F7E8" stroke-miterlimit="10"/>
<path d="M-1012.6 863.4C-936.7 779.3 -791.9 768.8 -704 837.3C-667.6 865.5 -640.4 904.5 -610 940.1C-595.7 956.9 -580.6 972.8 -562.5 985.5C-547.8 995.8 -532.3 1003.3 -515.9 1008.1C-457.7 1025.3 -390.3 1006.8 -333.5 978.7C-325.7 974.8 -317.9 970.8 -310.2 966.6C-245.9 931.8 -183.3 888.7 -111.4 878.6C-25.2 866.5 57.7999 907.9 140.2 935.6C164.7 943.8 189 950.7 213.5 953.8C301.3 965 368.3 928.1 417.4 876.1C428.8 864 439.8 851.1 450.7 836.8C486.9 789.5 516.8 727.5 553.3 665.2C567 641.9 582.2 618.3 598.6 596.1C638.8 541.7 687.1 495.6 742.6 478.9C771.7 470.2 798.8 469.5 825.6 472.5C892.2 480 957.5 512.4 1037.2 513.3C1114.9 514.4 1199.9 482.3 1272.5 439C1345.1 395.7 1407.7 342.4 1469.6 294.4" stroke="#E6F7E8" stroke-miterlimit="10"/>
<path d="M-1012 855.2C-934.5 771.7 -790.3 761 -700.5 827.6C-663.3 855.1 -634.9 893.2 -604.1 928.9C-589.6 945.7 -574.5 961.8 -556.5 974.8C-541.9 985.3 -526.5 993.2 -510.2 998.4C-452.1 1017.1 -384.1 999.9 -326.5 972.7C-318.6 969 -310.7 965 -302.9 960.9C-237.8 926.9 -174.7 883.9 -102.7 872.8C-17.3 859.7 65.9 897.6 147.6 925.7C171.9 934.1 195.8 941.4 219.8 945.3C306 959.5 371.7 930.4 422.1 884.6C433.8 874 445.3 862.4 456.8 849.3C494.9 805.9 527 745.9 564.3 684.6C578.2 661.6 593.5 638.3 609.6 616.1C649.1 561.9 695.5 515.1 748.7 495.8C776.5 485.7 802.6 483.2 828.4 484.1C892.9 486.4 957.1 512.3 1035.4 509.7C1111.7 507.4 1195.6 474.8 1268.1 432.6C1340.7 390.4 1404.2 339.8 1467.1 295.3" stroke="#E6F7E8" stroke-miterlimit="10"/>
<path d="M-1011.3 847C-932.3 764.2 -788.6 753.1 -697 817.9C-659 844.6 -629.4 882 -598.2 917.7C-583.5 934.5 -568.4 950.7 -550.5 964C-536 974.7 -520.7 983 -504.4 988.6C-446.3 1008.6 -377.8 993 -319.4 966.7C-311.4 963.1 -303.4 959.2 -295.4 955.2C-229.5 922.1 -166 879.1 -93.7 867C-9.10001 852.8 74.2999 887.3 155.3 915.8C179.4 924.3 202.9 932 226.5 936.8C311.1 954 375.4 932.7 427.2 893.1C439.3 883.9 451.3 873.6 463.4 861.7C503.4 822.3 537.8 764.2 575.7 703.9C589.9 681.3 605.2 658.2 621.1 636.1C660 582.1 704.4 534.5 755.3 512.6C781.9 501.1 806.9 496.8 831.8 495.7C894.2 492.8 957.3 512.2 1034.3 506C1109.3 500.2 1192 467.1 1264.5 426C1337 384.9 1401.6 337 1465.4 296" stroke="#E6F7E8" stroke-miterlimit="10"/>
<path d="M-1010.7 838.8C-930.2 756.7 -787.1 745.3 -693.5 808.2C-654.7 834.2 -623.9 870.7 -592.2 906.5C-577.4 923.3 -562.2 939.7 -544.4 953.3C-530 964.3 -514.8 972.9 -498.5 978.9C-440.4 1000.4 -371.5 986.2 -312.2 960.7C-304.1 957.2 -296 953.4 -287.9 949.6C-221.3 917.3 -157.3 874.5 -84.7 861.3C-0.79995 846.1 82.7001 877 163 906C186.8 914.6 210 922.8 233.2 928.4C316.2 948.6 379.2 935.2 432.4 901.7C444.8 893.9 457.3 885 470 874.3C512 838.8 548.5 782.8 587.1 723.4C601.6 701.2 616.9 678.2 632.5 656.3C670.8 602.5 713.2 554.2 761.8 529.7C787.2 516.9 811.1 510.7 835.1 507.5C895.3 499.3 957.4 512.3 1033 502.6C1106.7 493.4 1188.2 459.7 1260.6 419.8C1333.1 379.8 1398.6 334.6 1463.5 297" stroke="#E6F7E8" stroke-miterlimit="10"/>
<path d="M-1010 830.7C-928 749.2 -785.4 737.6 -690 798.6C-650.4 823.8 -618.4 859.6 -586.3 895.4C-571.3 912.2 -556.1 928.8 -538.4 942.7C-524.1 953.9 -509 962.9 -492.8 969.3C-434.7 992.3 -365.3 979.5 -305.2 954.8C-296.9 951.4 -288.7 947.8 -280.6 944C-213.2 912.5 -148.7 869.8 -76 855.6C7.1 839.4 90.8 866.8 170.4 896.3C194 905 216.9 913.7 239.5 920.1C320.9 943.3 382.6 937.7 437.1 910.4C449.9 904 462.9 896.5 476.2 886.9C520.1 855.3 558.8 801.3 598.2 742.8C612.9 720.9 628.2 698.2 643.6 676.4C681.2 622.8 721.7 573.8 768 546.6C792.1 532.4 815 524.4 838.1 519.1C896.2 505.7 957.1 512.2 1031.5 498.9C1103.9 486.3 1184.2 452.1 1256.6 413.3C1329.1 374.5 1395.5 332 1461.4 297.8" stroke="#E6F7E8" stroke-miterlimit="10"/>
<path d="M-1009.4 822.5C-925.8 741.7 -783.8 729.7 -686.5 789C-646 813.5 -612.9 848.4 -580.4 884.3C-565.2 901.1 -550 917.8 -532.4 932C-518.2 943.5 -503.2 952.8 -487 959.6C-428.9 984 -359 972.7 -298.1 948.8C-289.7 945.5 -281.4 942 -273.2 938.3C-205 907.6 -140.1 865.1 -67.1 849.8C15.2 832.6 99.1 856.5 178 886.4C201.4 895.2 223.9 904.3 246.1 911.6C325.9 937.8 386.3 940 442.2 918.9C455.4 913.9 468.8 907.8 482.7 899.4C528.5 871.8 569.4 819.7 609.5 762.2C624.5 740.7 639.8 718.2 654.9 696.4C691.9 643 730.4 593.3 774.4 563.5C797.3 548 819.1 538.1 841.3 530.7C897.3 512 957.1 512.1 1030.1 495.3C1101.1 479.2 1180.2 444.5 1252.6 406.9C1325.1 369.2 1392.4 329.4 1459.3 298.7" stroke="#E6F7E8" stroke-miterlimit="10"/>
<path d="M-1008.8 814.3C-923.7 734.1 -782.2 721.9 -683.1 779.3C-641.8 803.1 -607.5 837.2 -574.5 873.1C-559.1 889.9 -543.9 906.8 -526.4 921.3C-512.3 933 -497.4 942.7 -481.2 950C-423.1 975.9 -352.8 965.9 -291.1 942.9C-282.6 939.7 -274.2 936.3 -265.9 932.7C-196.9 902.8 -131.5 860.5 -58.3 844.2C23.2999 826 107.4 846.4 185.5 876.7C208.6 885.7 230.8 895.2 252.5 903.3C330.6 932.4 389.8 942.6 447 927.6C460.6 924 474.4 919.2 489 912C536.7 888.3 579.8 838.3 620.7 781.7C635.9 760.5 651.3 738.3 666.2 716.6C702.6 663.5 739.1 613 780.8 580.6C802.4 563.7 823.3 552 844.5 542.6C898.4 518.6 957.1 512.3 1028.8 491.9C1098.5 472.4 1176.4 437.2 1248.8 400.7C1321.2 364.1 1389.6 327 1457.4 299.7" stroke="#E6F7E8" stroke-miterlimit="10"/>
<path d="M-1008.1 806.1C-921.5 726.6 -780.5 714.1 -679.5 769.6C-637.4 792.6 -601.9 825.9 -568.5 861.8C-552.9 878.6 -537.7 895.6 -520.3 910.4C-506.3 922.4 -491.5 932.5 -475.4 940.1C-417.4 967.6 -346.5 958.9 -284 936.8C-275.4 933.8 -266.9 930.4 -258.5 926.9C-188.7 897.8 -122.9 855.7 -49.4999 838.3C31.3001 819.1 115.6 836 193 866.8C215.9 875.9 237.7 885.9 259 894.8C335.5 926.9 393.4 945 452 936C465.9 933.9 480.3 930.4 495.4 924.4C545 904.6 590.4 856.6 631.9 801C647.4 780.2 662.8 758.2 677.4 736.6C713.1 683.7 747.8 632.5 787.1 597.4C807.5 579.2 827.3 565.6 847.6 554.1C899.4 524.8 957 512.1 1027.4 488.2C1095.8 465.2 1172.5 429.5 1244.8 394.1C1317.2 358.7 1386.5 324.3 1455.4 300.4" stroke="#E6F7E8" stroke-miterlimit="10"/>
<path d="M-1007.5 798C-919.4 719.2 -778.9 706.4 -676.1 760C-633.2 782.3 -596.5 814.8 -562.7 850.7C-547 867.4 -531.7 884.7 -514.4 899.8C-500.5 912 -485.8 922.5 -469.7 930.5C-411.8 959.5 -340.3 952.2 -277 930.9C-268.3 928 -259.7 924.8 -251.2 921.4C-180.6 893.1 -114.3 851.2 -40.7 832.7C39.3 812.6 123.8 825.9 200.4 857.1C223.1 866.3 244.5 876.7 265.4 886.5C340.3 921.6 397 947.6 456.8 944.7C471.1 944 485.9 941.9 501.7 937C553.2 921.1 600.8 875.1 643.1 820.4C658.9 800 674.2 778.2 688.6 756.6C723.7 703.9 756.4 652 793.4 614.3C812.6 594.8 831.3 579.2 850.6 565.7C900.2 531.1 956.8 512 1025.8 484.5C1092.8 458.1 1168.4 421.9 1240.6 387.6C1313 353.3 1383.2 321.6 1453.1 301.2" stroke="#E6F7E8" stroke-miterlimit="10"/>
<path d="M-1006.8 789.8C-917.2 711.6 -777.2 698.5 -672.5 750.4C-628.8 771.9 -590.9 803.6 -556.6 839.6C-540.7 856.3 -525.4 873.8 -508.2 889.2C-494.4 901.6 -479.8 912.5 -463.7 920.9C-405.8 951.4 -333.9 945.5 -269.7 925C-260.9 922.2 -252.2 919.1 -243.6 915.8C-172.2 888.3 -105.4 846.6 -31.7 827C47.6 805.9 132.2 815.7 208.1 847.3C230.6 856.6 251.6 867.5 272 878.1C345.3 916.2 400.7 950.2 461.9 953.3C476.6 954.1 491.8 953.2 508.2 949.6C561.6 937.6 611.4 893.6 654.4 839.9C670.4 819.8 685.8 798.3 699.9 776.8C734.4 724.3 765.1 671.7 799.8 631.3C817.7 610.4 835.4 593 853.8 577.4C901.2 537.4 956.7 511.9 1024.5 480.9C1090.2 451.1 1164.6 414.3 1236.8 381.2C1309.1 348 1380.3 319 1451.2 302" stroke="#E6F7E8" stroke-miterlimit="10"/>
<path d="M-1006.2 781.6C-915 704.1 -775.6 690.7 -669.1 740.7C-624.6 761.5 -585.5 792.4 -550.8 828.4C-534.7 845.1 -519.4 862.7 -502.3 878.4C-488.6 891.1 -474.1 902.3 -458.1 911.1C-400.2 943 -327.8 938.5 -262.8 918.9C-253.9 916.2 -245.1 913.2 -236.4 910C-164.2 883.3 -96.9999 841.8 -22.9999 821.1C55.5001 799.1 140.3 805.3 215.5 837.3C237.7 846.7 258.4 858.1 278.4 869.5C350.1 910.6 404.2 952.6 466.7 961.7C481.8 963.9 497.5 964.4 514.4 961.9C569.7 953.8 621.7 911.9 665.5 859.1C681.8 839.4 697.2 818.1 711 796.7C744.8 744.4 773.6 691.1 806 648.1C822.7 625.9 839.3 606.5 856.8 589C902.1 543.7 956.5 511.8 1022.9 477.3C1087.3 444 1160.4 406.8 1232.6 374.8C1304.9 342.8 1377.1 316.4 1449 302.9" stroke="#E6F7E8" stroke-miterlimit="10"/>
<path d="M-1005.5 773.4C-912.8 696.5 -773.9 682.9 -665.5 731C-620.2 751 -580 781.1 -544.8 817.2C-528.5 833.9 -513.1 851.7 -496.2 867.7C-482.6 880.6 -468.2 892.2 -452.2 901.4C-394.3 934.8 -321.4 931.7 -255.7 913C-246.7 910.4 -237.8 907.5 -229 904.4C-156 878.5 -88.3 837.3 -14.1 815.4C63.7 792.5 148.6 795.1 223.1 827.6C245.1 837.2 265.5 848.9 284.9 861.2C355 905.2 407.7 955.2 471.7 970.4C487.1 974.1 503.3 975.8 520.9 974.5C578.2 970.3 632.3 930.4 676.8 878.5C693.4 859.2 708.8 838.1 722.4 816.7C755.6 764.6 782.5 710.6 812.5 664.9C828 641.3 843.4 620.1 860.1 600.5C903.1 549.8 956.6 511.6 1021.7 473.5C1084.7 436.8 1156.7 399 1228.9 368.2C1301.2 337.3 1374.3 313.7 1447.2 303.6" stroke="#E6F7E8" stroke-miterlimit="10"/>
<path d="M-1004.9 765.3C-910.7 689.1 -772.4 675.1 -662.1 721.4C-615.9 740.7 -574.6 770 -538.9 806.1C-522.4 822.8 -507 840.8 -490.2 857.1C-476.6 870.3 -462.4 882.3 -446.4 891.9C-388.6 926.8 -315.1 925.1 -248.6 907.2C-239.5 904.7 -230.5 902 -221.6 899C-147.9 873.9 -79.6001 832.9 -5.30005 809.9C71.7 786.1 156.8 785.1 230.6 818C252.4 827.7 272.4 839.9 291.4 853C359.9 900 411.3 958 476.6 979.2C492.4 984.3 509 987.4 527.2 987.3C586.4 987 642.8 949.1 687.9 898.2C704.7 879.2 720.1 858.4 733.5 837.1C766.1 785.2 791.1 730.6 818.7 682.2C833 657.3 847.3 634.2 863.1 612.5C903.9 556.5 956.4 511.9 1020.2 470.3C1081.9 430.2 1152.7 391.9 1224.8 362.1C1297 332.3 1371.1 311.4 1445 304.7" stroke="#E6F7E8" stroke-miterlimit="10"/>
<path d="M-1004.2 757.1C-908.5 681.5 -770.7 667.3 -658.5 711.7C-611.5 730.3 -569 758.7 -532.9 794.9C-516.3 811.6 -500.8 829.7 -484.1 846.3C-470.6 859.7 -456.5 872.1 -440.6 882.1C-382.8 918.5 -308.9 918.2 -241.5 901.1C-232.3 898.8 -223.1 896.1 -214.2 893.2C-139.7 868.9 -70.9 828.2 3.60004 804C79.9 779.3 165.1 774.7 238.2 808C259.7 817.8 279.4 830.5 298 844.4C364.9 894.4 414.9 960.4 481.7 987.6C497.8 994.2 515 998.5 533.8 999.6C594.9 1003.1 653.5 967.4 699.4 917.4C716.5 898.8 731.9 878.2 745 857C777 805.3 800 750 825.3 699C838.4 672.8 851.6 647.7 866.5 624C905.1 562.7 956.6 511.7 1019 466.5C1079.4 422.9 1149 384.1 1221 355.5C1293.2 326.9 1368.2 308.6 1443.2 305.4" stroke="#E6F7E8" stroke-miterlimit="10"/>
<path d="M-1003.6 748.9C-906.3 674 -769.1 659.5 -655 702.1C-607.2 719.9 -563.5 747.6 -527 783.8C-510.2 800.5 -494.7 818.8 -478.1 835.7C-464.7 849.3 -450.7 862.1 -434.8 872.5C-377 910.3 -302.6 911.5 -234.4 895.2C-225.1 893 -215.8 890.4 -206.8 887.6C-131.5 864.1 -62.1999 823.8 12.5001 798.3C88.1001 772.8 173.5 764.5 245.8 798.2C267.1 808.1 286.4 821.2 304.5 835.9C369.8 888.9 418.4 963 486.6 996.1C503.1 1004.1 520.7 1009.8 540.1 1012.1C603.1 1019.5 663.9 985.8 710.5 936.8C727.8 918.6 743.3 898.2 756.1 877.1C787.4 825.6 808.5 769.5 831.5 715.9C843.3 688.3 855.4 661.4 869.5 635.7C905.7 569 956.4 511.7 1017.5 463C1076.5 416 1145 376.7 1217 349.2C1289.2 321.7 1365.2 306.2 1441.1 306.3" stroke="#E6F7E8" stroke-miterlimit="10"/>
<path d="M-1002.9 740.7C-862.7 635.3 -646.1 649.7 -521 772.6C-490.3 802.8 -464.6 838.6 -429 862.8C-363.3 907.5 -275.5 904.7 -199.4 882C-123.3 859.3 -53.5001 819.2 21.2999 792.7C96.1999 766.2 181.7 754.3 253.3 788.6C368.5 843.6 420.8 1002.9 546.5 1024.9C635.6 1040.5 720.9 975 767.4 897.4C813.9 819.8 833.9 729.3 872.6 647.6C972.5 436.6 1205.8 296.4 1439 307.4" stroke="#E6F7E8" stroke-miterlimit="10"/>
</g>
<mask id="mask2_201_1416" style="mask-type:luminance" maskUnits="userSpaceOnUse" x="0" y="0" width="1200" height="800">
<path d="M1200 0H0V800H1200V0Z" fill="white"/>
</mask>
<g mask="url(#mask2_201_1416)">
<path d="M1310.8 412.6C1310.2 406.9 1247.1 404.7 1240.3 404.6C1216.1 404.1 1191.9 406 1168.1 410C1120.4 418.1 1074.4 434.8 1032.1 458C992.4 479.7 946.4 508.6 919.1 545.1C887.1 588.1 852.2 628.6 813.7 666C799.2 680.1 785.9 693.4 767.9 702.5C735.1 718.9 696.8 729.4 660 729.3C641 729.2 617.2 724.3 600.7 714.7C590.1 708.5 581.2 698.1 580.2 685.9C578.9 670.5 589.9 656.9 601.5 646.6C644.4 608.7 669.9 553.1 671.2 496C671.8 468.9 665.3 443.2 670.7 416.3C696.8 286.8 844.1 249.6 958.3 265.3C991.4 269.8 1024.7 278.6 1056.9 287C1091.8 296.2 1125.7 303.1 1160.5 310.6C1185.4 316 1210.8 321.4 1236 319.9C1261.2 318.4 1286.6 308.7 1298.2 290.1C1298.2 290 1310.8 412.6 1310.8 412.6Z" fill="#2A3740"/>
</g>
<mask id="mask3_201_1416" style="mask-type:luminance" maskUnits="userSpaceOnUse" x="0" y="0" width="1200" height="800">
<path d="M1200 0H0V800H1200V0Z" fill="white"/>
</mask>
<g mask="url(#mask3_201_1416)">
<path d="M-208.6 752.4C-177.5 705.3 -126.8 671.6 -71.4001 661C-16.0001 650.4 43.4999 663 89.7999 695.3C109.5 709 127.4 726.3 150.3 733.4C190 745.6 231.7 723.7 265.6 699.6C299.5 675.6 334.3 647.5 375.8 645.6C398.7 644.6 421.1 651.8 443.9 654.1C491.3 658.9 542 639.6 569.2 600.5C596.4 561.4 595.1 502.9 561.7 469C533.9 440.7 490.6 433.2 451.2 437.4C402.7 442.6 357.3 462.9 310.2 475.4C263.1 487.9 209.8 491.9 168.2 466.5C151.7 456.4 138 442.3 122.4 430.8C64.9 388.3 -19.6001 386.8 -78.6001 427.2L-208.6 752.4Z" fill="#2A3740"/>
</g>
<mask id="mask4_201_1416" style="mask-type:luminance" maskUnits="userSpaceOnUse" x="0" y="0" width="1200" height="800">
<path d="M1200 0H0V800H1200V0Z" fill="white"/>
</mask>
<g mask="url(#mask4_201_1416)">
<path d="M-100.1 684.5C-55.1001 573.5 67.2 496.1 190.4 500.7C289.1 504.4 388.1 555 482.5 526.3C551.4 505.3 600.5 445.8 633.3 383.6C666.1 321.4 687.1 253.6 724.2 193.7C761.3 133.8 819.9 80.3 891.7 73C952.4 66.9 1010.7 94.6 1063.8 123.4C1116.9 152.2 1171.7 183.7 1232.6 186.3" stroke="#283640" stroke-miterlimit="10"/>
<path d="M-101.3 680.8C-73.8 615.3 -17.9 563.4 46.7 535.2C85.7999 518.2 128 509.6 171.8 509.6C177.3 509.6 182.8 509.8 188.3 510C233.9 512.3 279.9 522.7 325 530.5C376.9 539.4 428.1 544.8 478.5 530.1C533 514.4 575.7 479.7 609 435.6C618.5 423 627.1 409.6 634.9 396C649.7 369.9 662.1 342.2 674.1 314.5C690.4 276.8 706.1 238.9 727.4 203.7C730.1 199.2 732.9 194.8 735.9 190.3C761.5 152 796.3 117.6 837.7 98.8999C856.5 90.3999 876.5 85.1999 897.4 83.7999C936.5 81.2999 974.6 92.4999 1011.4 107.6C1032.1 116.1 1052.2 125.7 1071.7 135.2C1088.9 143.6 1106.2 152 1123.7 159.5C1161.4 175.8 1199.9 188.3 1241.2 188" stroke="#263D47" stroke-miterlimit="10"/>
<path d="M-102.6 677.1C-74.5001 612.1 -16.7001 562.6 46.9999 538.3C85.4999 523.6 126.3 517.7 169.8 518.8C175.2 518.9 180.7 519.2 186.1 519.5C231.4 522.4 277.4 531.3 322.1 537.5C373.4 544.7 424.1 547.9 474.5 534C529.9 518.6 573.6 489.2 608.9 447C619 435 628.2 421.9 636.4 408.3C652 382.5 665.1 354.4 677.3 326.3C693.9 288.1 709.4 249.4 730.6 213.5C733.3 208.9 736.1 204.4 739.1 199.9C764.7 160.8 800.2 125.6 842.5 107.8C861.8 99.7 882 95.2 903.1 94.6C942.5 93.4 980.6 106 1018 121C1039 129.4 1059.7 138.5 1079.6 147.1C1097.2 154.7 1114.8 162.1 1132.4 168.6C1170.4 182.5 1208.8 192.3 1249.7 189.9" stroke="#24444F" stroke-miterlimit="10"/>
<path d="M-103.8 673.4C-75 609 -15.5 561.8 47.4 541.3C85.4 528.9 124.8 525.7 167.8 527.8C173.2 528.1 178.6 528.4 184 528.8C229 532.2 275.1 539.8 319.4 544.4C370.2 549.8 420.3 551.1 470.6 537.8C526.9 522.9 571.7 498.6 608.9 458.4C619.6 446.9 629.3 434.2 638 420.7C654.5 395.1 668.2 366.8 680.6 338.3C697.5 299.5 712.7 260.1 733.8 223.5C736.5 218.8 739.3 214.2 742.3 209.6C767.9 169.7 804.1 133.7 847.4 116.8C867.1 109.1 887.6 105.4 908.9 105.5C948.5 105.7 986.8 119.5 1024.8 134.4C1046.2 142.7 1067.3 151.2 1087.7 159C1105.6 165.8 1123.5 172.2 1141.4 177.6C1179.8 189.2 1218 196.2 1258.6 191.6" stroke="#224B56" stroke-miterlimit="10"/>
<path d="M-105.1 669.6C-75.6001 605.8 -14.3001 560.9 47.6999 544.3C85.1999 534.3 123.1 533.7 165.7 536.9C171 537.3 176.4 537.8 181.8 538.2C226.5 542.2 272.6 548.3 316.5 551.4C366.7 555.1 416.3 554.3 466.5 541.7C523.7 527.3 569.5 508.1 608.7 469.8C620 458.9 630.3 446.4 639.5 433.1C656.9 407.8 671.2 379.1 683.8 350.2C700.9 310.9 715.9 270.7 737 233.3C739.7 228.5 742.5 223.8 745.5 219.1C771.1 178.4 808 141.6 852.2 125.5C872.4 118.2 893.1 115.2 914.5 116.1C954.3 117.6 992.8 132.8 1031.4 147.5C1053.2 155.8 1074.8 163.7 1095.6 170.5C1113.9 176.6 1132.1 182 1150.1 186.3C1188.8 195.5 1226.9 199.7 1267.1 193.1" stroke="#20525D" stroke-miterlimit="10"/>
<path d="M-106.4 665.9C-76.2 602.6 -13.2 560.1 48 547.3C85 539.6 121.4 541.7 163.7 545.9C169 546.4 174.3 547 179.7 547.5C224.1 552.1 270.3 556.7 313.7 558.2C363.4 560.1 412.4 557.4 462.6 545.3C520.7 531.4 567.5 517.1 608.7 480.9C620.5 470.5 631.4 458.4 641.1 445.1C659.4 420.1 674.3 391.1 687.1 361.8C704.5 321.9 719.2 281 740.2 242.9C742.9 238 745.7 233.2 748.6 228.4C774.2 186.9 811.8 149.3 857 134.1C877.6 127.2 898.6 125 920.2 126.6C960.3 129.5 998.8 146 1038 160.5C1060.2 168.7 1082.2 176.1 1103.4 182C1122 187.3 1140.6 191.7 1158.7 194.9C1197.8 201.8 1235.7 203.2 1275.6 194.5" stroke="#1E5964" stroke-miterlimit="10"/>
<path d="M-107.6 662.2C-76.7001 599.5 -11.9001 559.2 48.2999 550.4C84.7999 545.1 119.8 549.8 161.6 555C166.8 555.7 172.1 556.3 177.5 556.9C221.6 562 267.8 565.2 310.8 565.2C360 565.4 408.5 560.6 458.5 549.2C517.5 535.8 565.3 526.6 608.6 492.4C621 482.6 632.4 470.7 642.6 457.6C661.7 432.9 677.3 403.5 690.3 373.8C708 333.4 722.4 291.7 743.4 252.9C746.1 247.9 748.9 243 751.8 238.2C777.4 195.9 815.7 157.5 861.8 143.2C882.9 136.7 904.1 135.3 925.8 137.6C966.1 141.9 1004.8 159.6 1044.6 174C1067.2 182.2 1089.7 188.9 1111.3 194C1130.3 198.5 1149.1 202 1167.5 204.1C1207 208.6 1244.6 207.3 1284.2 196.5" stroke="#1D616C" stroke-miterlimit="10"/>
<path d="M-108.9 658.5C-77.3 596.3 -10.8 558.4 48.6 553.4C84.5 550.4 118.1 557.8 159.5 564.1C164.7 564.9 170 565.6 175.3 566.3C219.1 572 265.4 573.7 308 572.2C356.6 570.5 404.6 563.9 454.6 553.1C514.5 540.2 563.4 536.1 608.6 503.8C621.6 494.5 633.6 483 644.2 470C664.2 445.5 680.4 415.8 693.6 385.8C711.6 344.8 725.7 302.4 746.6 262.9C749.3 257.8 752.1 252.8 755 247.9C780.6 204.8 819.6 165.6 866.7 152.2C888.2 146.1 909.7 145.4 931.6 148.5C972.1 154.2 1011 173.2 1051.4 187.5C1074.3 195.6 1097.3 201.8 1119.4 206C1138.8 209.8 1157.9 212.2 1176.4 213.2C1216.2 215.3 1253.7 211.2 1293 198.4" stroke="#1B6873" stroke-miterlimit="10"/>
<path d="M-110.1 654.8C-77.8001 593.2 -9.50006 557.6 48.9999 556.5C84.3999 555.8 116.6 565.9 157.6 573.2C162.8 574.1 168 575 173.2 575.7C216.7 582 263 582.2 305.2 579.1C353.3 575.6 400.7 567.1 450.6 556.9C511.4 544.5 561.3 545.4 608.5 515.2C622.1 506.5 634.6 495.3 645.7 482.3C666.6 458.1 683.3 428.1 696.7 397.6C715 356.1 728.8 312.8 749.6 272.7C752.3 267.6 755.1 262.5 758 257.4C783.7 213.5 823.4 173.4 871.3 161C893.3 155.3 915 155.4 937 159.2C977.7 166.3 1016.7 186.5 1057.7 200.7C1081 208.7 1104.4 214.3 1127 217.7C1146.7 220.7 1166.2 222.1 1184.8 222C1225 221.8 1262.3 214.9 1301.2 199.9" stroke="#196F7A" stroke-miterlimit="10"/>
<path d="M-111.4 651C-78.5 590 -8.40007 556.7 49.2999 559.4C84.1999 561.1 114.9 573.8 155.5 582.1C160.6 583.2 165.8 584.1 171 584.9C214.2 591.7 260.5 590.5 302.3 585.9C349.9 580.7 396.7 570.1 446.5 560.6C508.2 548.8 559.2 554.7 608.3 526.4C622.5 518.2 635.5 507.3 647.2 494.5C668.9 470.6 686.3 440.2 699.9 409.4C718.5 367.3 732 323.3 752.8 282.5C755.5 277.3 758.2 272.1 761.2 266.9C786.9 222.2 827.3 181.3 876.2 169.8C898.6 164.5 920.6 165.3 942.8 169.9C983.8 178.3 1022.9 199.9 1064.5 213.9C1088.2 221.9 1112.1 226.9 1135 229.4C1155.1 231.7 1174.8 232.1 1193.7 230.9C1234.2 228.3 1271.4 218.7 1309.9 201.6" stroke="#177682" stroke-miterlimit="10"/>
<path d="M-112.6 647.3C-79.0001 586.8 -7.20011 555.9 49.6999 562.4C84.0999 566.4 113.3 581.8 153.5 591.2C158.6 592.4 163.7 593.4 168.9 594.3C211.8 601.7 258.2 599 299.5 592.9C346.5 585.9 392.9 573.4 442.6 564.5C505.2 553.2 557.3 564.2 608.3 537.8C623.1 530.2 636.7 519.6 648.8 506.9C671.4 483.2 689.4 452.6 703.2 421.3C722 378.7 735.4 333.9 756 292.4C758.6 287.1 761.4 281.8 764.4 276.6C790.1 231.1 831.2 189.4 881 178.8C903.9 173.9 926.1 175.5 948.5 180.8C989.7 190.6 1029 213.4 1071.2 227.3C1095.3 235.2 1119.6 239.7 1143 241.3C1163.4 242.8 1183.5 242.2 1202.5 239.9C1243.4 235 1280.4 222.6 1318.6 203.4" stroke="#157D89" stroke-miterlimit="10"/>
<path d="M-113.9 643.6C-79.6 583.7 -6 555.1 50 565.5C83.9 571.8 111.7 589.9 151.5 600.3C156.5 601.6 161.6 602.8 166.8 603.7C209.4 611.7 255.8 607.6 296.8 599.8C343.3 591 389.1 576.7 438.7 568.3C502.2 557.6 555.3 573.6 608.4 549.2C623.8 542.1 637.9 531.8 650.5 519.2C673.9 495.8 692.6 464.8 706.6 433.2C725.7 390.1 738.8 344.5 759.4 302.2C762 296.8 764.8 291.4 767.8 286.1C793.5 239.8 835.3 197.3 886.1 187.5C909.4 183 931.9 185.3 954.4 191.4C995.8 202.5 1035.2 226.7 1078 240.5C1102.5 248.3 1127.3 252.2 1151.1 253C1171.9 253.7 1192.3 252.2 1211.4 248.8C1252.7 241.5 1289.5 226.3 1327.3 205.1" stroke="#138490" stroke-miterlimit="10"/>
<path d="M-115.1 639.9C-80.1001 580.6 -4.80013 554.3 50.2999 568.5C83.5999 577.2 110 597.9 149.4 609.3C154.4 610.8 159.4 612 164.6 613C206.9 621.5 253.4 616 293.9 606.7C339.8 596.2 385.1 579.9 434.7 572.1C499.2 562 553.3 583 608.3 560.5C624.2 554 638.9 544 652 531.5C676.3 508.4 695.6 477 709.8 445.1C729.2 401.4 742 355.1 762.5 312.1C765.1 306.6 767.9 301.1 770.9 295.7C796.6 248.6 839.1 205.3 890.8 196.4C914.6 192.3 937.3 195.4 960 202.2C1001.6 214.7 1041.2 240.2 1084.6 253.8C1109.4 261.6 1134.7 264.9 1159 264.8C1180.2 264.8 1200.8 262.2 1220.2 257.7C1261.8 248 1298.5 230.1 1336 206.7" stroke="#118B97" stroke-miterlimit="10"/>
<path d="M-116.4 636.1C-80.7 577.3 -3.60003 553.3 50.6 571.5C83.4 582.5 108.4 605.9 147.3 618.4C152.2 620 157.3 621.3 162.3 622.4C204.3 631.5 250.8 624.5 290.9 613.7C336.3 601.4 381.1 583.2 430.5 576C495.9 566.5 551 592.4 608 572C624.5 566.1 639.8 556.3 653.3 544C678.4 521.1 698.4 489.5 712.8 457.1C732.5 412.9 745 365.8 765.5 322.1C768.1 316.5 770.9 310.9 773.8 305.4C799.5 257.5 842.7 213.4 895.4 205.4C919.6 201.7 942.6 205.5 965.4 213.1C1007.3 226.9 1046.9 253.7 1091 267.2C1116.2 274.9 1142 277.7 1166.6 276.7C1188.1 275.9 1209.1 272.3 1228.6 266.8C1270.6 254.8 1307 234.1 1344.2 208.6" stroke="#0F929F" stroke-miterlimit="10"/>
<path d="M-117.7 632.4C-81.2999 574.2 -2.49992 552.5 50.9001 574.5C83.2001 587.9 106.7 613.9 145.3 627.4C150.2 629.1 155.2 630.6 160.2 631.7C201.9 641.4 248.5 632.9 288.1 620.6C333 606.6 377.2 586.4 426.6 579.8C492.9 570.9 549.1 601.8 608 583.3C625.1 577.9 640.9 568.5 655 556.2C681 533.6 701.6 501.6 716.2 468.9C736.2 424.1 748.4 376.3 768.8 331.9C771.4 326.2 774.2 320.5 777.1 315C802.8 266.3 846.7 221.4 900.3 214.3C925 211 948.2 215.5 971.2 223.9C1013.3 239 1053.1 267.2 1097.7 280.5C1123.3 288.1 1149.5 290.3 1174.6 288.5C1196.5 286.9 1217.8 282.4 1237.4 275.7C1279.7 261.3 1316 237.9 1352.8 210.3" stroke="#0D99A6" stroke-miterlimit="10"/>
<path d="M-118.9 628.7C-81.8 571 -1.20007 551.7 51.2999 577.6C83.0999 593.3 105.1 622 143.3 636.5C148.1 638.4 153.1 639.9 158.1 641.1C199.5 651.3 246.1 641.5 285.4 627.5C329.7 611.7 373.4 589.7 422.7 583.6C489.9 575.3 547.2 611.3 608 594.6C625.7 589.8 642 580.6 656.6 568.5C683.5 546.1 704.7 513.9 719.5 480.7C739.8 435.4 751.7 386.8 772.1 341.7C774.7 335.9 777.5 330.2 780.4 324.5C806.1 274.9 850.7 229.3 905.2 223.1C930.3 220.3 953.8 225.5 976.9 234.6C1019.2 251.1 1059.2 280.5 1104.4 293.8C1130.4 301.4 1157 303 1182.6 300.3C1204.8 298 1226.4 292.4 1246.3 284.6C1289 267.9 1325.1 241.6 1361.6 212" stroke="#0BA0AD" stroke-miterlimit="10"/>
<path d="M-120.2 625C-82.5 567.9 -0.0999641 550.9 51.6 580.6C82.9 598.6 103.5 630 141.2 645.6C146 647.6 150.9 649.2 155.9 650.5C197 661.3 243.7 650.1 282.5 634.5C326.3 617.1 369.5 593 418.6 587.5C486.7 579.8 545 620.8 607.9 606.1C626.2 601.9 643 593 658.1 581C685.8 558.8 707.7 526.3 722.7 492.8C743.2 446.9 754.9 397.6 775.2 351.8C777.8 345.9 780.6 340.1 783.5 334.3C809.2 283.9 854.5 237.5 910 232.2C935.5 229.8 959.3 235.7 982.6 245.6C1025.2 263.4 1065.2 294.2 1111.1 307.3C1137.5 314.8 1164.6 315.9 1190.6 312.3C1213.2 309.2 1235.1 302.7 1255.1 293.8C1298.2 274.7 1334.1 245.7 1370.2 214" stroke="#0AA8B5" stroke-miterlimit="10"/>
<path d="M-121.4 621.2C-83 564.7 1.20002 550 51.9 583.6C82.7 604 101.8 638 139.2 654.6C144 656.7 148.8 658.5 153.8 659.8C194.6 671.2 241.3 658.5 279.7 641.4C323 622.2 365.6 596.3 414.7 591.3C483.8 584.3 543.1 630.2 607.9 617.4C626.8 613.7 644.2 605.1 659.7 593.3C688.2 571.4 710.8 538.5 726 504.6C746.8 458.2 758.2 408.1 778.5 361.5C781.1 355.5 783.9 349.6 786.8 343.7C812.5 292.5 858.5 245.3 914.9 240.9C940.9 238.9 964.9 245.6 988.4 256.2C1031.2 275.4 1071.4 307.5 1117.8 320.4C1144.6 327.8 1172.1 328.3 1198.5 323.8C1221.5 319.9 1243.7 312.4 1263.8 302.4C1307.2 280.9 1343 249.2 1378.8 215.3" stroke="#08AFBC" stroke-miterlimit="10"/>
<path d="M-122.7 617.5C-83.6 561.5 2.30001 549.2 52.2 586.6C82.4 609.3 100.2 646 137.1 663.6C141.8 665.9 146.6 667.7 151.5 669.1C192 681 238.8 666.9 276.7 648.2C319.5 627.3 361.5 599.4 410.5 595C480.5 588.6 540.8 639.5 607.6 628.6C627.1 625.5 645 617.2 661 605.4C690.4 583.8 713.6 550.6 729 516.3C750.1 469.3 761.3 418.4 781.4 371.2C784 365.1 786.7 359.1 789.7 353.2C815.4 301.2 862.1 253.2 919.5 249.6C945.9 248 970.2 255.4 993.8 266.8C1036.8 287.3 1077.2 320.7 1124.2 333.5C1151.3 340.9 1179.4 340.8 1206.2 335.4C1229.5 330.8 1252 322.2 1272.4 311.2C1316.2 287.4 1351.8 252.9 1387.2 216.9" stroke="#06B6C3" stroke-miterlimit="10"/>
<path d="M-123.9 613.8C-84.1 558.4 3.59998 548.3 52.6 589.7C82.3 614.8 98.6 654.1 135.1 672.8C139.8 675.2 144.5 677.1 149.4 678.6C189.6 691.1 236.4 675.6 273.9 655.3C316.1 632.6 357.7 602.9 406.6 598.9C477.5 593.2 538.9 649 607.6 640.1C627.7 637.5 646.1 629.5 662.6 617.9C692.8 596.5 716.7 563 732.3 528.3C753.7 480.8 764.6 429.1 784.7 381.2C787.3 375 790 368.9 793 362.9C818.7 310.1 866.1 261.3 924.4 258.6C951.3 257.4 975.8 265.6 999.6 277.7C1042.9 299.6 1083.3 334.3 1131 346.9C1158.5 354.2 1187 353.6 1214.3 347.3C1238 341.9 1260.8 332.4 1281.3 320.2C1325.4 294 1360.8 256.7 1395.9 218.7" stroke="#04BDCA" stroke-miterlimit="10"/>
<path d="M-125.2 610.1C-84.7 555.3 4.70008 547.5 52.9001 592.7C82.1001 620.1 96.9 662.1 133.1 681.8C137.7 684.3 142.5 686.3 147.3 687.9C187.2 701 234 684 271.2 662.2C312.9 637.7 353.9 606.3 402.7 602.7C474.5 597.8 536.9 658.3 607.6 651.4C628.3 649.4 647.3 641.7 664.3 630.2C695.4 609.1 719.9 575.3 735.7 540.2C757.4 492.2 768 439.7 788 391.1C790.6 384.8 793.3 378.6 796.3 372.5C822 318.9 870.1 269.3 929.4 267.5C956.7 266.7 981.5 275.6 1005.4 288.5C1048.9 311.8 1089.5 347.7 1137.7 360.3C1165.6 367.5 1194.6 366.3 1222.3 359.2C1246.3 353.1 1269.5 342.5 1290.1 329.3C1334.6 300.8 1369.8 260.7 1404.6 220.6" stroke="#02C4D2" stroke-miterlimit="10"/>
<path d="M-126.4 606.4C-85.2 552.1 5.99993 546.7 53.2999 595.8C81.9999 625.5 95.4 670.2 131.1 691C173.3 715.5 227.2 695.5 268.4 669.3C309.6 643.1 350 609.7 398.7 606.7C471.4 602.3 534.9 667.9 607.6 663C667.7 658.9 714.2 607.1 739 552.3C763.8 497.5 773.8 436.7 799.5 382.3C825.3 327.9 874.1 277.5 934.2 276.6C1012.4 275.4 1068.6 354.5 1144.4 373.7C1197.2 387.1 1254 369.2 1298.9 338.3C1343.8 307.4 1378.8 264.6 1413.2 222.3" stroke="#00CBD9" stroke-miterlimit="10"/>
<path d="M-126 601.3C-83.9 547.4 7.00002 541.8 55.4 589.7C75.3 609.4 88.4999 635.9 105.8 657.7C114.1 668.1 123.3 677.4 134.7 684.2C144 689.8 153.9 693.2 164.1 695C200 701.1 240.1 685.3 272.6 665.4C277.1 662.7 281.6 659.8 286 657C323.2 633.1 360.4 606.3 404 603C459.5 599 510.1 634.9 563.1 650.7C578.9 655.4 595 658.3 611.5 657.6C670.6 655.3 716.3 608.4 741.9 557.3C747.8 545.5 753.1 533.4 758 521C774.2 479.6 786.1 435.3 806.3 394C813.9 378.5 823.3 363.3 834.1 349.3C860.8 315.1 896.6 289 938 286.7C959.7 285.5 979.7 290.7 999 299C1046.8 319.6 1090.2 359.7 1143.4 371.2C1195.4 382.5 1251.5 364.3 1296.3 334.1C1341.1 303.9 1376.8 262.7 1411.8 222.6" stroke="#02CDD5" stroke-miterlimit="10"/>
<path d="M-125.7 596.3C-82.6 542.8 7.90006 537.1 57.5001 583.8C77.9001 603 91.8001 629 109.4 650.8C117.8 661.2 127 670.6 138.4 677.6C147.6 683.3 157.5 687 167.7 689C203.6 696 244 681.1 277 661.7C281.5 659 286.1 656.3 290.6 653.5C328.3 630.1 365.8 603.3 409.5 599.5C464.5 594.7 515.2 628.7 567.8 644.7C583.5 649.5 599.3 652.6 615.5 652.5C673.6 652.1 718.3 610 745 562.7C751.1 551.8 756.7 540.5 762 528.8C779.4 489.9 792.6 446.8 813.3 406.1C821.1 390.8 830.5 375.7 841.2 361.9C867.5 327.8 902.1 301.3 942.1 297.4C963.1 295.4 982.4 299.4 1001.1 306.5C1047.5 323.9 1090.3 360 1142.7 369.3C1193.9 378.5 1249.2 359.9 1294 330.4C1338.8 300.9 1375.1 261.4 1410.7 223.4" stroke="#05CFD1" stroke-miterlimit="10"/>
<path d="M-125.3 591.2C-81.3 538.1 8.89997 532.2 59.6 577.8C80.5 596.6 95.1 622.1 113 643.9C121.5 654.3 130.7 663.8 142.1 671C151.3 676.9 161 680.8 171.2 683C207.1 690.9 247.8 676.9 281.3 658C285.9 655.4 290.5 652.7 295.1 650C333.3 627.1 371 600.3 414.9 595.9C469.5 590.5 520.3 622.3 572.4 638.5C588 643.4 603.6 646.8 619.5 647.2C676.6 648.6 720.5 611.4 748 567.9C754.4 557.9 760.2 547.4 765.8 536.4C784.4 499.9 798.9 458 820.1 417.9C828 402.8 837.4 387.9 848 374.1C873.9 340.2 907.3 313.2 945.8 307.7C966 304.9 984.7 307.8 1002.9 313.5C1048 327.7 1090.2 359.7 1141.7 366.9C1192 373.9 1246.7 355.1 1291.5 326.3C1336.3 297.5 1373.1 259.7 1409.4 223.8" stroke="#07D1CC" stroke-miterlimit="10"/>
<path d="M-124.9 586.2C-80 533.5 9.89993 527.4 61.7999 571.9C83.1999 590.2 98.5 615.2 116.7 637.1C125.3 647.5 134.6 657.1 145.8 664.5C154.9 670.5 164.6 674.7 174.8 677.1C210.7 685.9 251.7 672.7 285.7 654.4C290.4 651.9 295 649.2 299.7 646.5C338.3 624.1 376.4 597.3 420.4 592.4C474.5 586.3 525.4 616 577.1 632.5C592.5 637.4 607.9 641.1 623.5 642C679.6 645.3 722.6 612.8 751.1 573.2C757.7 564 763.9 554.4 769.8 544.1C789.7 510 805.5 469.4 827.1 429.9C835.2 415.1 844.6 400.2 855 386.5C880.5 352.7 912.8 325.3 949.8 318.1C969.2 314.4 987.3 316.2 1004.9 320.7C1048.6 331.7 1090.2 359.7 1140.9 364.7C1190.4 369.6 1244.3 350.5 1289.1 322.4C1333.9 294.3 1371.3 258.1 1408.2 224.4" stroke="#09D2C8" stroke-miterlimit="10"/>
<path d="M-124.5 581.2C-78.6 528.9 10.9 522.7 64 566C85.9 583.8 102 608.4 120.4 630.3C129.1 640.7 138.4 650.4 149.6 658C158.7 664.2 168.3 668.6 178.4 671.3C214.3 681 255.6 668.7 290.1 650.9C294.8 648.4 299.6 645.9 304.3 643.2C343.4 621.3 381.8 594.6 425.9 589C479.5 582.2 530.5 609.8 581.8 626.6C597.1 631.6 612.2 635.6 627.6 637C682.7 642.1 724.9 614.5 754.2 578.6C761 570.3 767.5 561.5 773.8 552C794.9 520.4 812 480.9 834.1 442C842.4 427.4 851.8 412.7 862 399C887.1 365.3 918.2 337.4 953.8 328.7C972.5 324.2 989.8 324.9 1006.9 328C1049.3 335.8 1090.2 359.8 1140.1 362.6C1188.8 365.4 1242 345.9 1286.7 318.5C1331.5 291.1 1369.5 256.6 1407 224.9" stroke="#0BD4C4" stroke-miterlimit="10"/>
<path d="M-124.1 576.1C-77.3001 524.3 11.8999 517.8 66.0999 560C88.4999 577.4 105.3 601.4 124 623.3C132.8 633.7 142.1 643.5 153.3 651.3C162.3 657.6 171.9 662.2 182 665.2C217.9 675.8 259.4 664.4 294.5 647.1C299.3 644.7 304.1 642.2 308.9 639.6C348.5 618.2 387.1 591.6 431.4 585.4C484.5 578 535.7 603.4 586.5 620.5C601.6 625.6 616.6 629.8 631.7 631.7C685.8 638.6 727.1 615.9 757.3 583.8C764.3 576.4 771.1 568.4 777.8 559.6C800.1 530.4 818.6 492.2 841.1 453.8C849.5 439.4 858.9 424.9 869 411.2C893.8 377.7 923.6 349.2 957.8 339C975.7 333.6 992.4 333.2 1008.9 335.1C1050 339.7 1090.2 359.7 1139.3 360.3C1187.2 361 1239.6 341.2 1284.3 314.5C1329.1 287.8 1367.6 254.9 1405.8 225.4" stroke="#0ED6C0" stroke-miterlimit="10"/>
<path d="M-123.7 571.1C-76 519.7 12.9 513 68.3 554.1C91.2 571 108.7 594.5 127.7 616.5C136.6 626.9 145.9 636.8 157 644.8C166 651.3 175.5 656.1 185.5 659.3C221.3 670.8 263.2 660.3 298.8 643.5C303.7 641.2 308.5 638.8 313.4 636.2C353.5 615.3 392.4 588.7 436.8 581.9C489.4 573.8 540.7 597.2 591 614.5C606 619.7 620.7 624.2 635.5 626.6C688.6 635.4 729.1 617.4 760.2 589.2C767.4 582.6 774.5 575.5 781.6 567.4C805.1 540.7 824.9 503.7 847.8 465.9C856.4 451.7 865.8 437.3 875.7 423.7C900.1 390.3 928.7 361.4 961.4 349.5C978.6 343.3 994.6 341.7 1010.5 342.3C1050.2 343.7 1089.8 359.7 1138.1 358.1C1185.2 356.7 1236.9 336.6 1281.5 310.6C1326.2 284.6 1365.4 253.4 1404.2 226" stroke="#10D8BB" stroke-miterlimit="10"/>
<path d="M-123.3 566C-74.6 515 13.9 508.1 70.4 548.1C93.8 564.6 112.1 587.6 131.3 609.6C140.3 619.9 149.7 630 160.7 638.1C169.6 644.7 179 649.8 189.1 653.3C224.9 665.7 267.1 656 303.2 639.8C308.1 637.6 313.1 635.2 317.9 632.7C358.5 612.3 397.7 585.8 442.2 578.3C494.4 569.6 545.7 590.8 595.6 608.4C610.4 613.6 625 618.4 639.5 621.4C691.6 632 731.3 618.9 763.2 594.5C770.6 588.8 778 582.5 785.5 575.2C810.2 550.9 831.3 515.1 854.7 477.9C863.4 464 872.9 449.7 882.6 436.1C906.6 402.8 934 373.5 965.3 360C981.7 352.9 997.1 350.3 1012.5 349.6C1050.9 347.8 1089.8 359.8 1137.3 356C1183.5 352.4 1234.5 332 1279.2 306.7C1323.9 281.4 1363.7 251.9 1403 226.6" stroke="#12DAB7" stroke-miterlimit="10"/>
<path d="M-122.9 561C-73.3 510.4 14.9 503.4 72.6 542.2C96.5 558.2 115.5 580.7 135 602.8C144.1 613.1 153.5 623.3 164.4 631.6C173.3 638.4 182.6 643.7 192.7 647.4C228.5 660.7 271 651.9 307.5 636.2C312.5 634 317.5 631.7 322.4 629.3C363.5 609.4 402.9 583 447.6 574.9C499.3 565.5 550.8 584.6 600.2 602.5C614.9 607.8 629.2 612.9 643.4 616.3C694.5 628.7 733.4 620.5 766.2 599.8C773.9 595 781.6 589.5 789.4 582.9C815.3 561 837.8 526.5 861.6 489.8C870.5 476.1 879.9 462 889.6 448.4C913.2 415.2 939.4 385.5 969.3 370.3C984.9 362.4 999.7 358.6 1014.5 356.6C1051.6 351.6 1089.9 359.5 1136.5 353.6C1181.9 347.9 1232.1 327.2 1276.8 302.6C1321.5 278 1361.8 250.1 1401.8 226.9" stroke="#15DCB3" stroke-miterlimit="10"/>
<path d="M-122.5 556C-71.9 505.8 16 498.6 74.7 536.2C99.1 551.8 118.8 573.8 138.6 595.8C147.9 606.1 157.2 616.4 168.1 624.9C176.9 631.8 186.2 637.3 196.2 641.3C232 655.5 274.8 647.6 311.8 632.4C316.9 630.3 321.9 628.1 326.9 625.7C368.5 606.3 408.2 580 453 571.2C504.2 561.2 555.8 578.1 604.8 596.3C619.4 601.7 633.4 607 647.4 611C697.5 625.3 735.6 621.8 769.2 605C777.1 601.1 785.1 596.4 793.3 590.5C820.4 571.1 844.2 537.7 868.5 501.7C877.6 488.2 887 474.2 896.5 460.8C919.7 427.8 944.7 397.6 973.2 380.8C988.1 372.1 1002.2 367.1 1016.4 363.9C1052.2 355.6 1089.8 359.6 1135.6 351.5C1180.2 343.7 1229.7 322.7 1274.3 298.7C1319 274.8 1359.9 248.6 1400.5 227.5" stroke="#17DEAF" stroke-miterlimit="10"/>
<path d="M-122.1 550.9C-70.6001 501.1 17 493.7 76.9 530.2C101.8 545.3 122.2 566.8 142.3 588.9C151.7 599.2 161 609.6 171.9 618.3C180.6 625.4 189.9 631.1 199.9 635.3C235.7 650.4 278.8 643.3 316.3 628.7C321.4 626.7 326.6 624.5 331.6 622.2C373.7 603.3 413.7 577.1 458.6 567.7C509.3 557.1 561.1 571.8 609.6 590.3C624 595.7 637.9 601.4 651.6 605.8C700.8 621.9 738 623.3 772.5 610.3C780.6 607.2 788.9 603.4 797.5 598.3C825.7 581.3 851 549.2 875.7 513.7C884.9 500.4 894.4 486.6 903.7 473.2C926.5 440.3 950.3 409.6 977.4 391.3C991.5 381.7 1005 375.7 1018.6 371.1C1053.1 359.6 1090 359.6 1135 349.3C1178.8 339.4 1227.5 318 1272.1 294.8C1316.8 271.6 1358.3 247 1399.5 228.1" stroke="#19DFAA" stroke-miterlimit="10"/>
<path d="M-121.7 545.9C-69.2999 496.5 18 489 79.1 524.3C104.5 538.9 125.7 560 146 582.1C155.5 592.4 164.9 602.9 175.6 611.8C184.3 619 193.5 625 203.4 629.5C239.2 645.6 282.6 639.3 320.6 625.2C325.8 623.3 331 621.2 336.1 618.9C378.6 600.5 418.9 574.4 464 564.3C514.3 553.1 566.1 565.7 614.2 584.3C628.5 589.8 642.1 595.7 655.5 600.7C703.7 618.7 740.1 624.9 775.4 615.6C783.8 613.4 792.3 610.4 801.3 606C830.7 591.4 857.3 560.5 882.5 525.7C891.9 512.7 901.3 499 910.5 485.6C932.9 452.8 955.5 421.7 981.1 401.7C994.4 391.3 1007.3 384.1 1020.3 378.3C1053.5 363.5 1089.7 359.6 1133.9 347.1C1176.9 335.1 1224.9 313.4 1269.5 290.9C1314.1 268.4 1356.3 245.5 1398.1 228.7" stroke="#1BE1A6" stroke-miterlimit="10"/>
<path d="M-121.3 540.8C-67.9 491.8 19 484.1 81.2 518.3C107.1 532.5 129 553 149.6 575.2C159.2 585.5 168.6 596.1 179.3 605.2C187.9 612.6 197 618.8 207 623.5C242.7 640.5 286.5 635.1 325 621.4C330.3 619.5 335.5 617.5 340.7 615.3C383.7 597.4 424.3 571.4 469.5 560.7C519.3 548.9 571.2 559.3 618.9 578.2C633 583.8 646.4 590 659.6 595.5C706.8 615.3 742.5 626.4 778.5 620.9C787.1 619.6 795.9 617.5 805.3 613.7C835.9 601.5 863.8 571.9 889.5 537.6C899.1 524.8 908.5 511.2 917.5 497.9C939.5 465.3 960.9 433.7 985.1 412.1C997.7 400.9 1009.9 392.5 1022.4 385.4C1054.3 367.3 1089.8 359.5 1133.2 344.8C1175.3 330.7 1222.6 308.6 1267.2 286.8C1311.8 265 1354.5 243.8 1397 229" stroke="#1EE3A2" stroke-miterlimit="10"/>
<path d="M-120.9 535.8C-66.6 487.2 20 479.3 83.4 512.4C109.8 526.1 132.4 546.2 153.3 568.3C163 578.6 172.4 589.3 183 598.6C191.6 606.1 200.6 612.6 210.6 617.5C246.3 635.4 290.4 630.9 329.4 617.7C334.7 615.9 340 613.9 345.3 611.8C388.8 594.3 429.7 568.5 475 557.1C524.3 544.7 576.4 552.9 623.6 572.1C637.6 577.8 650.8 584.2 663.6 590.2C709.8 611.8 744.7 627.9 781.6 626.1C790.4 625.7 799.5 624.4 809.2 621.4C841 611.6 870.3 583.2 896.3 549.5C906 536.9 915.5 523.5 924.3 510.2C945.9 477.7 966.1 445.7 988.9 422.5C1000.7 410.5 1012.2 400.9 1024.2 392.6C1054.8 371.3 1089.6 359.5 1132.2 342.6C1173.5 326.3 1220.1 304 1264.6 282.9C1309.2 261.8 1352.5 242.2 1395.6 229.6" stroke="#20E59E" stroke-miterlimit="10"/>
<path d="M-120.5 530.8C-65.2 482.6 21 474.5 85.5 506.5C112.4 519.8 135.8 539.3 156.9 561.5C166.7 571.8 176.2 582.6 186.7 592C195.2 599.7 204.2 606.4 214.1 611.5C249.8 630.3 294.1 626.6 333.7 614C339.1 612.3 344.5 610.4 349.8 608.3C393.8 591.3 435 565.6 480.4 553.6C529.3 540.6 581.4 546.6 628.2 566.1C642 571.8 655 578.6 667.6 585.1C712.8 608.6 746.9 629.5 784.6 631.5C793.7 632 803.1 631.5 813.1 629.2C846 621.8 876.7 594.7 903.2 561.6C913.1 549.2 922.6 536 931.2 522.7C952.5 490.3 971.4 457.9 992.8 433C1003.9 420.1 1014.7 409.4 1026.1 399.8C1055.3 375.2 1089.6 359.5 1131.3 340.4C1171.8 322 1217.6 299.4 1262.1 279C1306.7 258.6 1350.6 240.7 1394.3 230.2" stroke="#22E799" stroke-miterlimit="10"/>
<path d="M-120.1 525.7C-63.9001 477.9 21.9999 469.7 87.6999 500.5C115.1 513.3 139.2 532.3 160.6 554.6C170.5 564.9 180 575.8 190.5 585.4C199 593.2 207.9 600.1 217.8 605.6C253.5 625.3 298.1 622.5 338.2 610.4C343.7 608.7 349.1 606.9 354.5 604.9C399 588.4 440.4 562.9 486 550.1C534.4 536.5 586.7 540.4 633 560.1C646.7 565.9 659.5 572.9 671.8 579.9C716 605.2 749.3 631.1 787.9 636.7C797.2 638.1 806.9 638.4 817.3 636.8C851.4 631.8 883.5 606 910.4 573.4C920.4 561.3 929.9 548.1 938.5 534.9C959.4 502.7 977.1 469.8 997 443.3C1007.3 429.6 1017.5 417.7 1028.3 406.9C1056.2 379 1089.8 359.3 1130.7 338C1170.4 317.5 1215.5 294.5 1260 274.8C1304.6 255.1 1349 238.8 1393.4 230.5" stroke="#25E995" stroke-miterlimit="10"/>
<path d="M-119.7 520.7C-62.6 473.3 23.0001 464.9 89.9001 494.6C117.8 507 142.6 525.5 164.3 547.8C174.3 558.1 183.8 569.1 194.2 578.9C202.6 586.9 211.4 594 221.3 599.7C257 620.3 301.9 618.4 342.5 606.8C348 605.2 353.5 603.4 358.9 601.5C403.9 585.5 445.6 560.1 491.3 546.6C539.2 532.5 591.6 534.1 637.5 554.1C651 560 663.6 567.2 675.6 574.8C718.8 601.9 751.3 632.8 790.7 642.1C800.2 644.4 810.2 645.5 821 644.7C856.3 642.1 889.7 617.5 917.1 585.5C927.3 573.6 936.8 560.6 945.2 547.5C965.7 515.4 982.2 482.1 1000.7 454C1010.2 439.5 1019.8 426.4 1030 414.3C1056.5 383.1 1089.5 359.5 1129.6 336C1168.4 313.4 1212.8 290.1 1257.3 271.1C1301.8 252 1346.9 237.5 1391.8 231.3" stroke="#27EB91" stroke-miterlimit="10"/>
<path d="M-119.3 515.7C-61.2001 468.7 24 460.1 92 488.7C120.4 500.6 146 518.6 167.9 540.9C178 551.2 187.5 562.3 197.9 572.3C206.3 580.4 215 587.8 224.9 593.7C260.6 615.2 305.8 614.2 346.9 603.1C352.5 601.6 358.1 599.9 363.5 598C409 582.5 451 557.3 496.8 543.1C544.3 528.4 596.7 527.8 642.2 548.1C655.6 554.1 667.9 561.6 679.7 569.6C721.9 598.6 753.6 634.3 793.9 647.4C803.6 650.6 813.9 652.4 825.1 652.4C861.6 652.2 896.3 628.9 924.2 597.5C934.6 585.8 944.1 573 952.3 559.9C972.4 527.9 987.8 494.2 1004.8 464.4C1013.6 449.1 1022.4 434.8 1032.2 421.5C1057.4 387 1089.7 359.5 1129 333.8C1167 309.1 1210.7 285.5 1255.1 267.1C1299.6 248.7 1345.3 235.9 1390.8 231.7" stroke="#29EC8D" stroke-miterlimit="10"/>
<path d="M-118.9 510.6C-59.9 464 25 455.3 94.2 482.6C123.1 494 149.4 511.6 171.6 533.9C181.9 544.2 191.4 555.4 201.6 565.6C209.9 573.9 218.6 581.5 228.4 587.7C264 610.1 309.6 609.9 351.1 599.4C356.8 598 362.4 596.3 367.9 594.5C413.8 579.5 456.2 554.4 502.1 539.5C549.1 524.3 601.7 521.4 646.7 542C660 548 672.1 555.8 683.5 564.4C724.7 595.2 755.6 635.9 796.7 652.7C806.6 656.7 817.2 659.4 828.8 660.1C866.5 662.3 902.6 640.2 930.9 609.4C941.4 597.9 950.9 585.2 959 572.2C978.7 540.4 992.9 506.2 1008.5 474.8C1016.6 458.6 1024.7 443.2 1033.9 428.6C1057.7 390.8 1089.4 359.4 1127.9 331.5C1165.1 304.6 1208 280.7 1252.4 263.1C1296.9 245.4 1343.2 234.2 1389.3 232.2" stroke="#2BEE88" stroke-miterlimit="10"/>
<path d="M-118.5 505.6C-58.6 459.4 25.9999 450.5 96.2999 476.7C125.7 487.7 152.7 504.7 175.2 527.1C185.6 537.4 195.1 548.6 205.3 559.1C213.5 567.5 222.2 575.4 232 581.8C267.6 605.1 313.5 605.8 355.5 595.8C361.2 594.4 366.9 592.9 372.5 591.1C418.9 576.6 461.6 551.8 507.6 536.1C554.2 520.4 606.8 515.2 651.4 536.1C664.5 542.2 676.4 550.3 687.6 559.4C727.8 592.1 757.8 637.7 799.9 658.1C810.1 663.1 820.9 666.5 832.9 668C871.8 672.6 909.2 651.8 938 621.6C948.7 610.4 958.2 597.8 966.1 584.8C985.4 553.1 998.4 518.5 1012.6 485.5C1019.9 468.5 1027.3 451.9 1036 436.1C1058.3 395 1089.5 359.7 1127.2 329.6C1163.6 300.6 1205.8 276.4 1250.1 259.5C1294.6 242.5 1341.4 233 1388.2 233.1" stroke="#2EF084" stroke-miterlimit="10"/>
<path d="M-118.1 500.5C-31.7001 435.6 101.8 444.4 178.9 520.2C197.8 538.8 213.7 560.9 235.6 575.8C276.1 603.3 330.2 601.6 377.1 587.6C424 573.6 467 548.9 513.1 532.5C559.2 516.1 611.9 508.9 656.1 530C727.1 563.9 759.4 662.1 836.8 675.6C891.7 685.2 944.3 644.8 973 597C1001.7 549.2 1014 493.4 1037.8 443C1099.3 312.9 1243.2 226.6 1386.9 233.3" stroke="#30F280" stroke-miterlimit="10"/>
</g>
<mask id="mask5_201_1416" style="mask-type:luminance" maskUnits="userSpaceOnUse" x="0" y="0" width="1200" height="800">
<path d="M1200 0H0V800H1200V0Z" fill="white"/>
</mask>
<g mask="url(#mask5_201_1416)">
<path d="M746 595C747.105 595 748 594.105 748 593C748 591.895 747.105 591 746 591C744.895 591 744 591.895 744 593C744 594.105 744.895 595 746 595Z" fill="#00D7E6"/>
<path d="M746 572C747.105 572 748 571.105 748 570C748 568.895 747.105 568 746 568C744.895 568 744 568.895 744 570C744 571.105 744.895 572 746 572Z" fill="#00D7E6"/>
<path d="M746 549C747.105 549 748 548.105 748 547C748 545.895 747.105 545 746 545C744.895 545 744 545.895 744 547C744 548.105 744.895 549 746 549Z" fill="#00D7E6"/>
<path d="M746 526C747.105 526 748 525.105 748 524C748 522.895 747.105 522 746 522C744.895 522 744 522.895 744 524C744 525.105 744.895 526 746 526Z" fill="#00D7E6"/>
<path d="M746 503C747.105 503 748 502.105 748 501C748 499.895 747.105 499 746 499C744.895 499 744 499.895 744 501C744 502.105 744.895 503 746 503Z" fill="#00D7E6"/>
<path d="M771 595C772.105 595 773 594.105 773 593C773 591.895 772.105 591 771 591C769.895 591 769 591.895 769 593C769 594.105 769.895 595 771 595Z" fill="#00D7E6"/>
<path d="M771 572C772.105 572 773 571.105 773 570C773 568.895 772.105 568 771 568C769.895 568 769 568.895 769 570C769 571.105 769.895 572 771 572Z" fill="#00D7E6"/>
<path d="M771 549C772.105 549 773 548.105 773 547C773 545.895 772.105 545 771 545C769.895 545 769 545.895 769 547C769 548.105 769.895 549 771 549Z" fill="#00D7E6"/>
<path d="M771 526C772.105 526 773 525.105 773 524C773 522.895 772.105 522 771 522C769.895 522 769 522.895 769 524C769 525.105 769.895 526 771 526Z" fill="#00D7E6"/>
<path d="M771 503C772.105 503 773 502.105 773 501C773 499.895 772.105 499 771 499C769.895 499 769 499.895 769 501C769 502.105 769.895 503 771 503Z" fill="#00D7E6"/>
<path d="M796 595C797.105 595 798 594.105 798 593C798 591.895 797.105 591 796 591C794.895 591 794 591.895 794 593C794 594.105 794.895 595 796 595Z" fill="#00D7E6"/>
<path d="M796 572C797.105 572 798 571.105 798 570C798 568.895 797.105 568 796 568C794.895 568 794 568.895 794 570C794 571.105 794.895 572 796 572Z" fill="#00D7E6"/>
<path d="M796 549C797.105 549 798 548.105 798 547C798 545.895 797.105 545 796 545C794.895 545 794 545.895 794 547C794 548.105 794.895 549 796 549Z" fill="#00D7E6"/>
<path d="M796 526C797.105 526 798 525.105 798 524C798 522.895 797.105 522 796 522C794.895 522 794 522.895 794 524C794 525.105 794.895 526 796 526Z" fill="#00D7E6"/>
<path d="M796 503C797.105 503 798 502.105 798 501C798 499.895 797.105 499 796 499C794.895 499 794 499.895 794 501C794 502.105 794.895 503 796 503Z" fill="#00D7E6"/>
<path d="M821 595C822.105 595 823 594.105 823 593C823 591.895 822.105 591 821 591C819.895 591 819 591.895 819 593C819 594.105 819.895 595 821 595Z" fill="#00D7E6"/>
<path d="M821 572C822.105 572 823 571.105 823 570C823 568.895 822.105 568 821 568C819.895 568 819 568.895 819 570C819 571.105 819.895 572 821 572Z" fill="#00D7E6"/>
<path d="M821 549C822.105 549 823 548.105 823 547C823 545.895 822.105 545 821 545C819.895 545 819 545.895 819 547C819 548.105 819.895 549 821 549Z" fill="#00D7E6"/>
<path d="M821 526C822.105 526 823 525.105 823 524C823 522.895 822.105 522 821 522C819.895 522 819 522.895 819 524C819 525.105 819.895 526 821 526Z" fill="#00D7E6"/>
<path d="M821 503C822.105 503 823 502.105 823 501C823 499.895 822.105 499 821 499C819.895 499 819 499.895 819 501C819 502.105 819.895 503 821 503Z" fill="#00D7E6"/>
<path d="M846 595C847.105 595 848 594.105 848 593C848 591.895 847.105 591 846 591C844.895 591 844 591.895 844 593C844 594.105 844.895 595 846 595Z" fill="#00D7E6"/>
<path d="M846 572C847.105 572 848 571.105 848 570C848 568.895 847.105 568 846 568C844.895 568 844 568.895 844 570C844 571.105 844.895 572 846 572Z" fill="#00D7E6"/>
<path d="M846 549C847.105 549 848 548.105 848 547C848 545.895 847.105 545 846 545C844.895 545 844 545.895 844 547C844 548.105 844.895 549 846 549Z" fill="#00D7E6"/>
<path d="M846 526C847.105 526 848 525.105 848 524C848 522.895 847.105 522 846 522C844.895 522 844 522.895 844 524C844 525.105 844.895 526 846 526Z" fill="#00D7E6"/>
<path d="M846 503C847.105 503 848 502.105 848 501C848 499.895 847.105 499 846 499C844.895 499 844 499.895 844 501C844 502.105 844.895 503 846 503Z" fill="#00D7E6"/>
<path d="M871 595C872.105 595 873 594.105 873 593C873 591.895 872.105 591 871 591C869.895 591 869 591.895 869 593C869 594.105 869.895 595 871 595Z" fill="#00D7E6"/>
<path d="M871 572C872.105 572 873 571.105 873 570C873 568.895 872.105 568 871 568C869.895 568 869 568.895 869 570C869 571.105 869.895 572 871 572Z" fill="#00D7E6"/>
<path d="M871 549C872.105 549 873 548.105 873 547C873 545.895 872.105 545 871 545C869.895 545 869 545.895 869 547C869 548.105 869.895 549 871 549Z" fill="#00D7E6"/>
<path d="M871 526C872.105 526 873 525.105 873 524C873 522.895 872.105 522 871 522C869.895 522 869 522.895 869 524C869 525.105 869.895 526 871 526Z" fill="#00D7E6"/>
<path d="M871 503C872.105 503 873 502.105 873 501C873 499.895 872.105 499 871 499C869.895 499 869 499.895 869 501C869 502.105 869.895 503 871 503Z" fill="#00D7E6"/>
<path d="M896 595C897.105 595 898 594.105 898 593C898 591.895 897.105 591 896 591C894.895 591 894 591.895 894 593C894 594.105 894.895 595 896 595Z" fill="#00D7E6"/>
<path d="M896 572C897.105 572 898 571.105 898 570C898 568.895 897.105 568 896 568C894.895 568 894 568.895 894 570C894 571.105 894.895 572 896 572Z" fill="#00D7E6"/>
<path d="M896 549C897.105 549 898 548.105 898 547C898 545.895 897.105 545 896 545C894.895 545 894 545.895 894 547C894 548.105 894.895 549 896 549Z" fill="#00D7E6"/>
<path d="M896 526C897.105 526 898 525.105 898 524C898 522.895 897.105 522 896 522C894.895 522 894 522.895 894 524C894 525.105 894.895 526 896 526Z" fill="#00D7E6"/>
<path d="M896 503C897.105 503 898 502.105 898 501C898 499.895 897.105 499 896 499C894.895 499 894 499.895 894 501C894 502.105 894.895 503 896 503Z" fill="#00D7E6"/>
<path d="M921 595C922.105 595 923 594.105 923 593C923 591.895 922.105 591 921 591C919.895 591 919 591.895 919 593C919 594.105 919.895 595 921 595Z" fill="#00D7E6"/>
<path d="M921 572C922.105 572 923 571.105 923 570C923 568.895 922.105 568 921 568C919.895 568 919 568.895 919 570C919 571.105 919.895 572 921 572Z" fill="#00D7E6"/>
<path d="M921 549C922.105 549 923 548.105 923 547C923 545.895 922.105 545 921 545C919.895 545 919 545.895 919 547C919 548.105 919.895 549 921 549Z" fill="#00D7E6"/>
<path d="M921 526C922.105 526 923 525.105 923 524C923 522.895 922.105 522 921 522C919.895 522 919 522.895 919 524C919 525.105 919.895 526 921 526Z" fill="#00D7E6"/>
<path d="M921 503C922.105 503 923 502.105 923 501C923 499.895 922.105 499 921 499C919.895 499 919 499.895 919 501C919 502.105 919.895 503 921 503Z" fill="#00D7E6"/>
<path d="M946 595C947.105 595 948 594.105 948 593C948 591.895 947.105 591 946 591C944.895 591 944 591.895 944 593C944 594.105 944.895 595 946 595Z" fill="#00D7E6"/>
<path d="M946 572C947.105 572 948 571.105 948 570C948 568.895 947.105 568 946 568C944.895 568 944 568.895 944 570C944 571.105 944.895 572 946 572Z" fill="#00D7E6"/>
<path d="M946 549C947.105 549 948 548.105 948 547C948 545.895 947.105 545 946 545C944.895 545 944 545.895 944 547C944 548.105 944.895 549 946 549Z" fill="#00D7E6"/>
<path d="M946 526C947.105 526 948 525.105 948 524C948 522.895 947.105 522 946 522C944.895 522 944 522.895 944 524C944 525.105 944.895 526 946 526Z" fill="#00D7E6"/>
<path d="M946 503C947.105 503 948 502.105 948 501C948 499.895 947.105 499 946 499C944.895 499 944 499.895 944 501C944 502.105 944.895 503 946 503Z" fill="#00D7E6"/>
<path d="M971 595C972.105 595 973 594.105 973 593C973 591.895 972.105 591 971 591C969.895 591 969 591.895 969 593C969 594.105 969.895 595 971 595Z" fill="#00D7E6"/>
<path d="M971 572C972.105 572 973 571.105 973 570C973 568.895 972.105 568 971 568C969.895 568 969 568.895 969 570C969 571.105 969.895 572 971 572Z" fill="#00D7E6"/>
<path d="M971 549C972.105 549 973 548.105 973 547C973 545.895 972.105 545 971 545C969.895 545 969 545.895 969 547C969 548.105 969.895 549 971 549Z" fill="#00D7E6"/>
<path d="M971 526C972.105 526 973 525.105 973 524C973 522.895 972.105 522 971 522C969.895 522 969 522.895 969 524C969 525.105 969.895 526 971 526Z" fill="#00D7E6"/>
<path d="M971 503C972.105 503 973 502.105 973 501C973 499.895 972.105 499 971 499C969.895 499 969 499.895 969 501C969 502.105 969.895 503 971 503Z" fill="#00D7E6"/>
<path d="M996 595C997.105 595 998 594.105 998 593C998 591.895 997.105 591 996 591C994.895 591 994 591.895 994 593C994 594.105 994.895 595 996 595Z" fill="#00D7E6"/>
<path d="M996 572C997.105 572 998 571.105 998 570C998 568.895 997.105 568 996 568C994.895 568 994 568.895 994 570C994 571.105 994.895 572 996 572Z" fill="#00D7E6"/>
<path d="M996 549C997.105 549 998 548.105 998 547C998 545.895 997.105 545 996 545C994.895 545 994 545.895 994 547C994 548.105 994.895 549 996 549Z" fill="#00D7E6"/>
<path d="M996 526C997.105 526 998 525.105 998 524C998 522.895 997.105 522 996 522C994.895 522 994 522.895 994 524C994 525.105 994.895 526 996 526Z" fill="#00D7E6"/>
<path d="M996 503C997.105 503 998 502.105 998 501C998 499.895 997.105 499 996 499C994.895 499 994 499.895 994 501C994 502.105 994.895 503 996 503Z" fill="#00D7E6"/>
<path d="M1021 595C1022.1 595 1023 594.105 1023 593C1023 591.895 1022.1 591 1021 591C1019.9 591 1019 591.895 1019 593C1019 594.105 1019.9 595 1021 595Z" fill="#00D7E6"/>
<path d="M1021 572C1022.1 572 1023 571.105 1023 570C1023 568.895 1022.1 568 1021 568C1019.9 568 1019 568.895 1019 570C1019 571.105 1019.9 572 1021 572Z" fill="#00D7E6"/>
<path d="M1021 549C1022.1 549 1023 548.105 1023 547C1023 545.895 1022.1 545 1021 545C1019.9 545 1019 545.895 1019 547C1019 548.105 1019.9 549 1021 549Z" fill="#00D7E6"/>
<path d="M1021 526C1022.1 526 1023 525.105 1023 524C1023 522.895 1022.1 522 1021 522C1019.9 522 1019 522.895 1019 524C1019 525.105 1019.9 526 1021 526Z" fill="#00D7E6"/>
<path d="M1021 503C1022.1 503 1023 502.105 1023 501C1023 499.895 1022.1 499 1021 499C1019.9 499 1019 499.895 1019 501C1019 502.105 1019.9 503 1021 503Z" fill="#00D7E6"/>
<path d="M1046 595C1047.1 595 1048 594.105 1048 593C1048 591.895 1047.1 591 1046 591C1044.9 591 1044 591.895 1044 593C1044 594.105 1044.9 595 1046 595Z" fill="#00D7E6"/>
<path d="M1046 572C1047.1 572 1048 571.105 1048 570C1048 568.895 1047.1 568 1046 568C1044.9 568 1044 568.895 1044 570C1044 571.105 1044.9 572 1046 572Z" fill="#00D7E6"/>
<path d="M1046 549C1047.1 549 1048 548.105 1048 547C1048 545.895 1047.1 545 1046 545C1044.9 545 1044 545.895 1044 547C1044 548.105 1044.9 549 1046 549Z" fill="#00D7E6"/>
<path d="M1046 526C1047.1 526 1048 525.105 1048 524C1048 522.895 1047.1 522 1046 522C1044.9 522 1044 522.895 1044 524C1044 525.105 1044.9 526 1046 526Z" fill="#00D7E6"/>
<path d="M1046 503C1047.1 503 1048 502.105 1048 501C1048 499.895 1047.1 499 1046 499C1044.9 499 1044 499.895 1044 501C1044 502.105 1044.9 503 1046 503Z" fill="#00D7E6"/>
<path d="M1071 595C1072.1 595 1073 594.105 1073 593C1073 591.895 1072.1 591 1071 591C1069.9 591 1069 591.895 1069 593C1069 594.105 1069.9 595 1071 595Z" fill="#00D7E6"/>
<path d="M1071 572C1072.1 572 1073 571.105 1073 570C1073 568.895 1072.1 568 1071 568C1069.9 568 1069 568.895 1069 570C1069 571.105 1069.9 572 1071 572Z" fill="#00D7E6"/>
<path d="M1071 549C1072.1 549 1073 548.105 1073 547C1073 545.895 1072.1 545 1071 545C1069.9 545 1069 545.895 1069 547C1069 548.105 1069.9 549 1071 549Z" fill="#00D7E6"/>
<path d="M1071 526C1072.1 526 1073 525.105 1073 524C1073 522.895 1072.1 522 1071 522C1069.9 522 1069 522.895 1069 524C1069 525.105 1069.9 526 1071 526Z" fill="#00D7E6"/>
<path d="M1071 503C1072.1 503 1073 502.105 1073 501C1073 499.895 1072.1 499 1071 499C1069.9 499 1069 499.895 1069 501C1069 502.105 1069.9 503 1071 503Z" fill="#00D7E6"/>
<path d="M1096 595C1097.1 595 1098 594.105 1098 593C1098 591.895 1097.1 591 1096 591C1094.9 591 1094 591.895 1094 593C1094 594.105 1094.9 595 1096 595Z" fill="#00D7E6"/>
<path d="M1096 572C1097.1 572 1098 571.105 1098 570C1098 568.895 1097.1 568 1096 568C1094.9 568 1094 568.895 1094 570C1094 571.105 1094.9 572 1096 572Z" fill="#00D7E6"/>
<path d="M1096 549C1097.1 549 1098 548.105 1098 547C1098 545.895 1097.1 545 1096 545C1094.9 545 1094 545.895 1094 547C1094 548.105 1094.9 549 1096 549Z" fill="#00D7E6"/>
<path d="M1096 526C1097.1 526 1098 525.105 1098 524C1098 522.895 1097.1 522 1096 522C1094.9 522 1094 522.895 1094 524C1094 525.105 1094.9 526 1096 526Z" fill="#00D7E6"/>
<path d="M1096 503C1097.1 503 1098 502.105 1098 501C1098 499.895 1097.1 499 1096 499C1094.9 499 1094 499.895 1094 501C1094 502.105 1094.9 503 1096 503Z" fill="#00D7E6"/>
</g>
</svg>
