<svg xmlns="http://www.w3.org/2000/svg" viewBox="0 0 500 500"><g id="freepik--Device--inject-57"><g id="freepik--device--inject-57"><path d="M460,341.93c2,1.57,1.81,3.8-.66,5.22L324.65,424.94a10.88,10.88,0,0,1-9.8,0L57.38,276.28c-2.49-1.44-2.69-3.71-.57-5.27a10.89,10.89,0,0,0-4.33,8.11v6.47a10.82,10.82,0,0,0,4.9,8.5L314.83,442.73a10.78,10.78,0,0,0,9.8,0L459.36,365a10.81,10.81,0,0,0,4.9-8.49V350A11,11,0,0,0,460,341.93Z" style="fill:#37474f"></path><path d="M459.36,341.49,201.9,192.85a10.88,10.88,0,0,0-9.8,0L57.38,270.63c-2.71,1.55-2.7,4.09,0,5.65L314.85,424.93a10.88,10.88,0,0,0,9.8,0l134.71-77.79C462.07,345.59,462.07,343.05,459.36,341.49Zm-34.92-12c2.31,1.34,2.32,3.51,0,4.85L301.94,405.05a9.3,9.3,0,0,1-8.41,0L93.08,289.31c-2.33-1.34-2.32-3.52,0-4.85l122.5-70.73c2.32-1.34,4.73-2.11,7.05-.78Z" style="fill:#455a64"></path><path d="M56.81,271a10.89,10.89,0,0,0-4.33,8.11v6.47a10.85,10.85,0,0,0,4.9,8.5L314.83,442.73a10,10,0,0,0,4.91,1.17V426.1a10.09,10.09,0,0,1-4.9-1.17L57.38,276.28C54.89,274.84,54.69,272.57,56.81,271Z" style="fill:#263238"></path><path d="M379.28,384.1a16.5,16.5,0,0,1-8.06-1.92c-2.27-1.31-3.52-3.09-3.52-5s1.25-3.71,3.52-5c4.44-2.57,11.67-2.57,16.11,0,2.28,1.31,3.53,3.09,3.53,5s-1.25,3.71-3.53,5h0A16.49,16.49,0,0,1,379.28,384.1Zm0-12.62a15.19,15.19,0,0,0-7.42,1.77c-1.86,1.07-2.88,2.46-2.88,3.91s1,2.83,2.88,3.91a16.42,16.42,0,0,0,14.83,0h0c1.86-1.08,2.88-2.46,2.88-3.91s-1-2.84-2.88-3.91A15.15,15.15,0,0,0,379.28,371.48Z" style="fill:#e6e6e6"></path><path d="M137.66,239.37c1.82-1,1.82-2.74,0-3.79a7.25,7.25,0,0,0-6.57,0c-1.81,1-1.81,2.75,0,3.79A7.25,7.25,0,0,0,137.66,239.37Z"></path><path d="M134.42,252l25.36-14.65c1.51-.87,1.59-2.24.17-3.06a5.85,5.85,0,0,0-5.31.1L129.28,249c-1.51.87-1.59,2.24-.17,3.06A5.88,5.88,0,0,0,134.42,252Z"></path><path d="M222.62,213c-2.32-1.33-4.73-.56-7.05.78L93.07,284.46c-2.31,1.33-2.32,3.51,0,4.85L293.53,405a9.3,9.3,0,0,0,8.41,0l122.49-70.73c2.33-1.34,2.32-3.51,0-4.85Z" style="fill:#76B9F1"></path><path d="M222.62,213c-2.32-1.33-4.73-.56-7.05.78L93.07,284.46c-2.31,1.33-2.32,3.51,0,4.85L293.53,405a9.3,9.3,0,0,0,8.41,0l122.49-70.73c2.33-1.34,2.32-3.51,0-4.85Z" style="fill:#fff;opacity:0.8"></path></g><g id="freepik--Video--inject-57"><path d="M426.17,278a3,3,0,0,0-1.73-2.43L222.62,159c-2.32-1.33-4.73-.56-7.05.79L93.07,230.51a3,3,0,0,0-1.73,2.41c0,.88,0,8.51,0,9.39a2.94,2.94,0,0,0,1.74,2.44L293.53,360.48a9.33,9.33,0,0,0,8.41,0l122.49-70.73a3,3,0,0,0,1.74-2.42Z" style="fill:#76B9F1;opacity:0.8"></path><path d="M426.18,278v9.38a3,3,0,0,1-1.75,2.42L302,360.48a8.62,8.62,0,0,1-4.21,1V352.1a8.62,8.62,0,0,0,4.21-1l122.48-70.73a2.83,2.83,0,0,0,1.73-2.6A1.1,1.1,0,0,1,426.18,278Z" style="opacity:0.30000000000000004"></path><path d="M426.16,277.75l0-.15s0-.08,0-.12A1.28,1.28,0,0,1,426.16,277.75Z" style="fill:#76B9F1"></path><path d="M297.74,352.1v9.38a8.58,8.58,0,0,1-4.2-1L93.08,244.75a3,3,0,0,1-1.74-2.44c0-.87,0-8.4,0-9.37a3,3,0,0,0,1.74,2.42L293.54,351.1A8.58,8.58,0,0,0,297.74,352.1Z" style="opacity:0.2"></path><path d="M220.05,159.31a4,4,0,0,1,2.07.56L423.94,276.39c.78.45,1.23,1,1.23,1.56s-.45,1.1-1.24,1.55L301.45,350.23a7.77,7.77,0,0,1-3.72.87,7.69,7.69,0,0,1-3.7-.87L93.58,234.5c-.79-.46-1.24-1-1.24-1.56s.45-1.11,1.23-1.56l122.5-70.73a8.18,8.18,0,0,1,4-1.34m0-1a9.13,9.13,0,0,0-4.48,1.48L93.07,230.51c-2.31,1.34-2.32,3.51,0,4.85L293.53,351.1a9.34,9.34,0,0,0,8.41,0l122.49-70.73c2.33-1.34,2.32-3.51,0-4.85L222.62,159a5.15,5.15,0,0,0-2.57-.69Z" style="fill:#fafafa"></path><path d="M224.89,252.83l36,20.8a5.16,5.16,0,0,0,6.94-1.76L287,240.53c1.44-2.36.42-3.82-2.29-3.27l-59.25,12.08C222.75,249.89,222.49,251.45,224.89,252.83Z" style="fill:#fff"></path></g></g><g id="freepik--speach-bubble--inject-57"><g id="freepik--speach-bubble--inject-57"><g id="freepik--speach-bubble--inject-57"><path d="M250.08,177.61,237.3,185l5.29,19.29a.92.92,0,0,0,.35.4l10.64,6.18a.92.92,0,0,0,1.32-.53l5.79-26.56Z" style="fill:#76B9F1"></path><path d="M260.69,183.77l-5.79,26.56a.91.91,0,0,1-1.7.11l-5.29-19.29Z" style="fill:#76B9F1"></path><path d="M260.69,183.77l-5.79,26.56a.91.91,0,0,1-1.7.11l-5.29-19.29Z" style="opacity:0.4"></path><path d="M237.3,185l10.62,6.15,5.28,19.3a1,1,0,0,0,.27.35c-1-.57-10.09-5.84-10.53-6.11a.87.87,0,0,1-.35-.4Z" style="fill:#76B9F1"></path><path d="M237.3,185l10.62,6.15,5.28,19.3a1,1,0,0,0,.27.35c-1-.57-10.09-5.84-10.53-6.11a.87.87,0,0,1-.35-.4Z" style="opacity:0.5"></path><path d="M287,46.05,204.69,93.57a3.28,3.28,0,0,0-1.48,2.57V205.88a3.23,3.23,0,0,0,1.49,2.55l5.3,3a3.32,3.32,0,0,0,3,0l82.34-47.53a3.25,3.25,0,0,0,1.48-2.56V51.56A3.24,3.24,0,0,0,295.31,49L290,46A3.31,3.31,0,0,0,287,46.05Z" style="fill:#76B9F1"></path><path d="M211.49,210.61V100.79A3.27,3.27,0,0,1,213,98.23l82.35-47.52c.82-.48,1.48-.09,1.48.85V161.37a3.25,3.25,0,0,1-1.48,2.56L213,211.46C212.16,211.94,211.49,211.55,211.49,210.61Z" style="fill:#76B9F1"></path><path d="M211.49,210.61V100.79A3.27,3.27,0,0,1,213,98.23l82.35-47.52c.82-.48,1.48-.09,1.48.85V161.37a3.25,3.25,0,0,1-1.48,2.56L213,211.46C212.16,211.94,211.49,211.55,211.49,210.61Z" style="opacity:0.4"></path><path d="M213,211.48a3.37,3.37,0,0,1-2.94,0l-5.3-3.06a3.21,3.21,0,0,1-1.49-2.54V96.14a3,3,0,0,1,.47-1.51l8.24,4.7a3,3,0,0,0-.44,1.46V210.61A.92.92,0,0,0,213,211.48Z" style="opacity:0.5"></path><path d="M296.77,51.29c-.11-.74-.72-1-1.46-.59L213,98.23a3,3,0,0,0-1.05,1.1l-8.25-4.7a3,3,0,0,1,1-1.06L287,46.05a3.3,3.3,0,0,1,3,0l5.29,3A3.23,3.23,0,0,1,296.77,51.29Z" style="opacity:0.2"></path></g><ellipse cx="254.15" cy="90" rx="6.56" ry="3.91" transform="translate(60.04 277.11) rotate(-63.45)" style="fill:#fff;opacity:0.30000000000000004"></ellipse><path d="M243.51,98.1c1.48,1.72,1,5.48-1,8.39s-4.89,3.88-6.38,2.16-1-5.48,1-8.39S242,96.38,243.51,98.1Z" style="fill:#fff;opacity:0.5"></path><path d="M232.37,117c2.4-.32,3.71,2.15,2.93,5.52s-3.35,6.35-5.75,6.67-3.71-2.15-2.93-5.52S230,117.32,232.37,117Z" style="fill:#fff;opacity:0.6000000000000001"></path><path d="M229.55,137.06c2.4-2.24,5-2,5.75.54s-.53,6.41-2.93,8.65-5,2-5.75-.54S227.15,139.3,229.55,137.06Z" style="fill:#fff;opacity:0.7000000000000001"></path><ellipse cx="239.82" cy="151.94" rx="6.56" ry="3.91" transform="translate(-3.3 298.55) rotate(-63.45)" style="fill:#fff;opacity:0.75"></ellipse><ellipse cx="254.15" cy="150.04" rx="6.56" ry="3.91" transform="translate(6.33 310.31) rotate(-63.45)" style="fill:#fff;opacity:0.8"></ellipse><path d="M264.78,141.94c-1.48-1.72-1-5.48,1-8.39s4.9-3.88,6.38-2.16,1,5.48-1,8.39S266.26,143.66,264.78,141.94Z" style="fill:#fff;opacity:0.85"></path><path d="M275.92,123c-2.4.32-3.71-2.15-2.93-5.52s3.35-6.36,5.75-6.68,3.71,2.16,2.93,5.52S278.32,122.71,275.92,123Z" style="fill:#fff;opacity:0.9"></path><path d="M278.74,103c-2.4,2.24-5,2-5.75-.54s.53-6.41,2.93-8.64,5-2,5.75.54S281.14,100.74,278.74,103Z" style="fill:#fff"></path><path d="M272.17,89.43c-1.48,3.3-4.34,5.38-6.38,4.64s-2.49-4-1-7.31,4.34-5.38,6.38-4.65S273.65,86.13,272.17,89.43Z" style="fill:#fff;opacity:0.15"></path><path d="M246.26,132.38a.16.16,0,0,1-.24,0,.53.53,0,0,1-.1-.36v-2.62L242,131.63a.16.16,0,0,1-.24,0,.58.58,0,0,1-.1-.35V129.7a1.79,1.79,0,0,1,.09-.57c0-.19.11-.39.19-.61L245.8,118a1.6,1.6,0,0,1,.52-.84l1-.56a.17.17,0,0,1,.24,0,.49.49,0,0,1,.1.35v8.68l1.09-.63a.17.17,0,0,1,.24,0,.49.49,0,0,1,.1.35V127a1.1,1.1,0,0,1-.1.47.64.64,0,0,1-.24.32l-1.09.62V131a1.14,1.14,0,0,1-.1.47.56.56,0,0,1-.24.31Zm-.34-5.72V122l-2.17,5.9Z" style="fill:#fafafa"></path><path d="M251.34,114.84a1.19,1.19,0,0,1,.11-.47.56.56,0,0,1,.24-.31l4.75-2.75a.17.17,0,0,1,.24,0,.5.5,0,0,1,.1.35v1.54a1.1,1.1,0,0,1-.1.47.59.59,0,0,1-.24.32l-3.55,2-.14,2.86a3.35,3.35,0,0,1,.68-.68l.55-.36a3,3,0,0,1,1.31-.43,1.41,1.41,0,0,1,1,.36A2.5,2.5,0,0,1,257,119a6.59,6.59,0,0,1,.25,2,11.57,11.57,0,0,1-.26,2.53,8.8,8.8,0,0,1-.71,2,6.58,6.58,0,0,1-1,1.55,5.78,5.78,0,0,1-1.29,1,3.31,3.31,0,0,1-1.5.52,1.45,1.45,0,0,1-1-.34,2.26,2.26,0,0,1-.62-1,5.46,5.46,0,0,1-.24-1.48,1.12,1.12,0,0,1,.1-.48.67.67,0,0,1,.25-.31l1-.59a.19.19,0,0,1,.23,0,.53.53,0,0,1,.14.3,1.62,1.62,0,0,0,.24.68.73.73,0,0,0,.38.28.81.81,0,0,0,.48,0,3.44,3.44,0,0,0,.56-.26,3,3,0,0,0,1.16-1.34,4.9,4.9,0,0,0,.44-2.1,1.79,1.79,0,0,0-.44-1.37.94.94,0,0,0-1.16,0,2.92,2.92,0,0,0-.61.45,4.37,4.37,0,0,0-.36.44l-.25.37a.84.84,0,0,1-.29.27l-1.16.67a.17.17,0,0,1-.24,0,.49.49,0,0,1-.11-.35Z" style="fill:#fafafa"></path><path d="M260.86,108.66a1.33,1.33,0,0,1,.81-.23.91.91,0,0,1,.57.28,1.59,1.59,0,0,1,.36.67,3.68,3.68,0,0,1,.14.9c0,.37,0,.76,0,1.19s0,.83,0,1.22a5.93,5.93,0,0,1-.14,1.07,5,5,0,0,1-.36,1.07,3.87,3.87,0,0,1-.57.94,2.84,2.84,0,0,1-.81.7,1.42,1.42,0,0,1-.81.24.87.87,0,0,1-.58-.28,1.59,1.59,0,0,1-.35-.66,4.23,4.23,0,0,1-.15-.9c0-.37,0-.77,0-1.19s0-.84,0-1.22a7,7,0,0,1,.15-1.07,5.68,5.68,0,0,1,.35-1.08,4.83,4.83,0,0,1,.58-1A2.84,2.84,0,0,1,260.86,108.66Zm5.07-2.41a2.75,2.75,0,0,1,.18-.41.81.81,0,0,1,.28-.27l.76-.43a.17.17,0,0,1,.22,0,.33.33,0,0,1,.08.26.57.57,0,0,1,0,.12.83.83,0,0,1,0,.15l-6.25,17.71a2.75,2.75,0,0,1-.18.41.81.81,0,0,1-.28.27l-.76.44a.2.2,0,0,1-.22,0,.38.38,0,0,1-.08-.27.57.57,0,0,1,0-.12.83.83,0,0,1,0-.15Zm-4.4,6.92c0-.09,0-.23,0-.42v-1.17c0-.19,0-.32,0-.4a1.37,1.37,0,0,0-.17-.65c-.09-.14-.26-.15-.5,0a1.11,1.11,0,0,0-.51.6,2.78,2.78,0,0,0-.16.83,3.87,3.87,0,0,0,0,.42c0,.2,0,.39,0,.59s0,.4,0,.59a3.45,3.45,0,0,0,0,.4,1.33,1.33,0,0,0,.16.64c.1.15.26.15.51,0a1.11,1.11,0,0,0,.5-.59A2.85,2.85,0,0,0,261.53,113.17Zm4.81-.06a1.33,1.33,0,0,1,.81-.23.9.9,0,0,1,.57.29,1.49,1.49,0,0,1,.36.66,4.24,4.24,0,0,1,.14.9c0,.37,0,.77,0,1.19s0,.84,0,1.22a7,7,0,0,1-.14,1.07,5.08,5.08,0,0,1-.36,1.08,4.71,4.71,0,0,1-.57.94,3,3,0,0,1-.81.69,1.46,1.46,0,0,1-.81.24.9.9,0,0,1-.58-.27,1.58,1.58,0,0,1-.35-.67,4.23,4.23,0,0,1-.15-.9c0-.37,0-.76,0-1.19s0-.83,0-1.22a7,7,0,0,1,.15-1.07,5,5,0,0,1,.35-1.07,4.55,4.55,0,0,1,.58-1A2.63,2.63,0,0,1,266.34,113.11Zm.67,4.52c0-.1,0-.23,0-.42V116c0-.19,0-.33,0-.41a1.44,1.44,0,0,0-.17-.64c-.09-.15-.26-.16-.5,0a1.09,1.09,0,0,0-.51.59,2.84,2.84,0,0,0-.16.83,4.26,4.26,0,0,0,0,.43c0,.19,0,.39,0,.59s0,.39,0,.58a3.31,3.31,0,0,0,0,.4,1.33,1.33,0,0,0,.16.64c.09.15.26.16.51,0a1.07,1.07,0,0,0,.5-.59A3.14,3.14,0,0,0,267,117.63Z" style="fill:#fafafa"></path><path d="M236.17,184.65a.14.14,0,0,1,.19,0,.38.38,0,0,1,.08.28v1.81a.8.8,0,0,1-.08.37.46.46,0,0,1-.19.25l-4.62,2.66a.13.13,0,0,1-.19,0,.44.44,0,0,1-.08-.28V178.69a1,1,0,0,1,.08-.37.54.54,0,0,1,.19-.24l1.31-.76a.14.14,0,0,1,.19,0,.43.43,0,0,1,.08.28v8.78Z" style="fill:#fafafa"></path><path d="M237.47,179.13a10.83,10.83,0,0,1,.24-1.95,9.49,9.49,0,0,1,.61-1.82,7.34,7.34,0,0,1,1-1.55,4.93,4.93,0,0,1,1.3-1.12,2.4,2.4,0,0,1,1.3-.38,1.44,1.44,0,0,1,1,.44,2.5,2.5,0,0,1,.61,1.12,7.25,7.25,0,0,1,.25,1.66c0,.49,0,1,0,1.53s0,1,0,1.52a11.58,11.58,0,0,1-.25,1.94,8.64,8.64,0,0,1-.61,1.84,6.67,6.67,0,0,1-1,1.54,4.71,4.71,0,0,1-1.3,1.11,2.26,2.26,0,0,1-1.3.39,1.4,1.4,0,0,1-1-.43,2.89,2.89,0,0,1-.61-1.13,6.85,6.85,0,0,1-.24-1.67c0-.46,0-1,0-1.49S237.46,179.63,237.47,179.13Zm4.38.43c0-.21,0-.44,0-.7s0-.51,0-.77,0-.52,0-.76,0-.46,0-.65a3,3,0,0,0-.11-.72,1.07,1.07,0,0,0-.24-.49.57.57,0,0,0-.38-.2,1,1,0,0,0-.54.16,2,2,0,0,0-.54.47,2.71,2.71,0,0,0-.38.64,4.23,4.23,0,0,0-.24.76,4.6,4.6,0,0,0-.1.85c0,.2,0,.42,0,.67v1.53c0,.25,0,.47,0,.67a2.11,2.11,0,0,0,.34,1.22c.2.26.51.27.92,0a2.08,2.08,0,0,0,.92-1.09A4.92,4.92,0,0,0,241.85,179.56Z" style="fill:#fafafa"></path><path d="M248.88,168.07c.14-.08.24-.07.31,0a.69.69,0,0,1,.14.3l2.18,9.52a1.59,1.59,0,0,1,0,.23.67.67,0,0,1-.07.31.41.41,0,0,1-.15.2l-1.26.72c-.13.08-.23.09-.28,0a.46.46,0,0,1-.11-.22l-.28-1.26-2.65,1.53-.28,1.59a1.2,1.2,0,0,1-.11.34.64.64,0,0,1-.28.31l-1.26.72a.1.1,0,0,1-.15,0,.3.3,0,0,1-.07-.23s0-.15,0-.28l2.18-12a1.84,1.84,0,0,1,.14-.46.72.72,0,0,1,.31-.37Zm-1.61,8.41,1.61-.93-.8-3.64Z" style="fill:#fafafa"></path><path d="M255.77,164.1a2.38,2.38,0,0,1,1.25-.38,1.53,1.53,0,0,1,1,.42,2.7,2.7,0,0,1,.65,1.14,6.82,6.82,0,0,1,.26,1.77c0,.24,0,.45,0,.65v1.14c0,.19,0,.41,0,.64a10.86,10.86,0,0,1-.26,2.08,9.23,9.23,0,0,1-.63,1.88,6.76,6.76,0,0,1-1,1.53,4.66,4.66,0,0,1-1.24,1.08l-2.7,1.55a.14.14,0,0,1-.19,0,.43.43,0,0,1-.08-.28v-11a1,1,0,0,1,.08-.37.65.65,0,0,1,.19-.25Zm1.31,4c0-1.29-.5-1.69-1.36-1.19l-1,.59V174l1.07-.61a3,3,0,0,0,1.31-2.73v-2.56Z" style="fill:#fafafa"></path><path d="M260.84,173.15a.14.14,0,0,1-.19,0,.38.38,0,0,1-.08-.28V161.79a.8.8,0,0,1,.08-.37.43.43,0,0,1,.19-.25l1.3-.75a.13.13,0,0,1,.19,0,.39.39,0,0,1,.08.28v11.06a.85.85,0,0,1-.08.37.44.44,0,0,1-.19.24Z" style="fill:#fafafa"></path><path d="M268.85,168.52c-.12.07-.21.07-.28,0a.54.54,0,0,1-.13-.17l-2.29-4.53v5.79a.85.85,0,0,1-.08.37.44.44,0,0,1-.19.24l-1.3.76a.14.14,0,0,1-.19,0,.38.38,0,0,1-.08-.28V159.63a.8.8,0,0,1,.08-.37.46.46,0,0,1,.19-.25l1-.6c.12-.06.21-.06.28,0a.43.43,0,0,1,.13.16l2.29,4.53v-5.78a.8.8,0,0,1,.08-.37.46.46,0,0,1,.19-.25l1.3-.75a.13.13,0,0,1,.19,0,.39.39,0,0,1,.08.28v11.06a.83.83,0,0,1-.08.37.44.44,0,0,1-.19.24Z" style="fill:#fafafa"></path><path d="M274.91,155.61a2.06,2.06,0,0,0-.57.49,3.21,3.21,0,0,0-.37.65,3.16,3.16,0,0,0-.21.76,7.46,7.46,0,0,0-.1.81,5.29,5.29,0,0,0,0,.63v.82c0,.28,0,.55,0,.81s0,.47,0,.61a3.61,3.61,0,0,0,.09.7,1.33,1.33,0,0,0,.22.51.54.54,0,0,0,.38.22.91.91,0,0,0,.56-.17,2,2,0,0,0,.49-.38,2.35,2.35,0,0,0,.4-.56,3.47,3.47,0,0,0,.27-.73,3.84,3.84,0,0,0,.1-.93l-.84.48a.14.14,0,0,1-.19,0,.43.43,0,0,1-.08-.28v-1.81a1,1,0,0,1,.08-.37.58.58,0,0,1,.19-.25l2.42-1.39a.14.14,0,0,1,.19,0,.41.41,0,0,1,.08.27v2.19a9,9,0,0,1-.24,2.11,8.5,8.5,0,0,1-.66,1.86,7.07,7.07,0,0,1-1,1.5,4.89,4.89,0,0,1-1.23,1,2.22,2.22,0,0,1-1.28.37,1.44,1.44,0,0,1-1-.44,2.71,2.71,0,0,1-.62-1.13,6.67,6.67,0,0,1-.24-1.64c0-.46,0-1,0-1.5s0-1,0-1.55a9.26,9.26,0,0,1,.24-1.93,9.59,9.59,0,0,1,.61-1.83,7.72,7.72,0,0,1,1-1.56,4.78,4.78,0,0,1,1.28-1.11,2.32,2.32,0,0,1,1.26-.37,1.61,1.61,0,0,1,.95.34,2.16,2.16,0,0,1,.61.83,3.27,3.27,0,0,1,.24,1.08.8.8,0,0,1-.06.3.46.46,0,0,1-.16.21l-1.33.76c-.1.06-.18,0-.23,0a1.73,1.73,0,0,1-.17-.21.92.92,0,0,0-.38-.35C275.48,155.37,275.24,155.42,274.91,155.61Z" style="fill:#fafafa"></path></g></g></svg>
