<svg xmlns="http://www.w3.org/2000/svg" xmlns:xlink="http://www.w3.org/1999/xlink" viewBox="0 0 750 500"><defs><clipPath id="freepik--clip-path--inject-10"><path d="M392.31,278.75H257.19a11.93,11.93,0,0,1-11.93-11.93h0a11.94,11.94,0,0,1,11.93-11.94H392.31a8.55,8.55,0,0,1,8.55,8.55v6.77A8.55,8.55,0,0,1,392.31,278.75Z" style="fill:none"></path></clipPath></defs><g id="freepik--background-complete--inject-10"><circle cx="613.85" cy="178.59" r="12.3" transform="translate(4.61 372.31) rotate(-33.86)" style="fill:#e0e0e0"></circle><circle cx="577.34" cy="178.59" r="13.1" style="fill:#e0e0e0"></circle><circle cx="549.28" cy="155.41" r="13.9" style="fill:#e0e0e0"></circle><circle cx="543.58" cy="119.79" r="14.52" style="fill:#e0e0e0"></circle><circle cx="561.37" cy="88.6" r="15.01" style="fill:#e0e0e0"></circle><circle cx="595.54" cy="76.27" r="16.36" style="fill:#e0e0e0"></circle><circle cx="640.98" cy="155.13" r="11.88" transform="translate(343.44 743.67) rotate(-76.79)" style="fill:#e0e0e0"></circle><circle cx="647.33" cy="119.39" r="11.02" style="fill:#e0e0e0"></circle><circle cx="629" cy="88.19" r="10.07" style="fill:#e0e0e0"></circle><path d="M212.21,62.17a31.4,31.4,0,0,1,8.06,2.12l5.92-5,10.17,7.74-3.2,7a31.25,31.25,0,0,1,4.19,7.2l7.7.68,1.71,12.66-7.23,2.71a30.94,30.94,0,0,1-2.13,8.05l5,5.92-7.73,10.17-7-3.2a31.46,31.46,0,0,1-7.2,4.19l-.68,7.7-12.67,1.72-2.7-7.24a31,31,0,0,1-8.06-2.13l-5.92,5-10.17-7.74,3.21-7a31.29,31.29,0,0,1-4.2-7.2l-7.69-.68L169.8,92.19,177,89.48a31.34,31.34,0,0,1,2.13-8l-5-5.93,7.74-10.17,7,3.21a31.65,31.65,0,0,1,7.2-4.2l.68-7.69,12.66-1.72,2.7,7.24ZM207,79.75a13.71,13.71,0,1,0,15.43,11.74A13.71,13.71,0,0,0,207,79.75Z" style="fill:none"></path><path d="M207,79.75a10.41,10.41,0,0,1,3.4-.18,13.82,13.82,0,0,1,11.76,9.35,14,14,0,0,1,.43,7.39,14,14,0,0,1-4,7.15,14,14,0,0,1-16.51,2.25,14.06,14.06,0,0,1-5.73-5.85,14,14,0,0,1-1.55-7.24,13.85,13.85,0,0,1,1.85-6.18,13.65,13.65,0,0,1,7-6,10.38,10.38,0,0,1,3.31-.73c0,.1-1.2.19-3.2,1a13.71,13.71,0,0,0-6.63,6,13.42,13.42,0,0,0-.13,12.81,12.64,12.64,0,0,0,2.26,3.09A12.35,12.35,0,0,0,202.5,105a13.28,13.28,0,0,0,15.6-2.12,13.3,13.3,0,0,0,3.79-6.75,13.43,13.43,0,0,0-.34-7,13.25,13.25,0,0,0-3.21-5.27,13.6,13.6,0,0,0-8-4A33.32,33.32,0,0,0,207,79.75Z" style="fill:#e0e0e0"></path><path d="M212.21,62.17s-.07-.14-.19-.45l-.54-1.35c-.49-1.25-1.18-3.06-2.09-5.39l.14.08-12.66,1.79.17-.18c-.19,2.33-.41,4.92-.64,7.69v.14l-.13.06a30.85,30.85,0,0,0-7.13,4.18l-.12.1-.15-.07-7-3.18.34-.09-7.71,10.19v-.38l5,5.91.13.15-.08.18a31.37,31.37,0,0,0-2.09,8l0,.21-.2.07-7.23,2.71.23-.37c.54,4,1.13,8.27,1.73,12.66l-.33-.31,7.69.67.23,0,.09.21a31,31,0,0,0,4.15,7.1l.14.18-.1.21c-1,2.21-2.09,4.61-3.2,7l-.11-.47,10.17,7.74h-.49l5.92-5,.18-.15.22.09a31.19,31.19,0,0,0,7.95,2.1h0c.14.11-.32-.25.32.26h0v0l0,0,0,.12.09.22.17.46.34.91.67,1.81c.46,1.21.9,2.41,1.35,3.61l-.42-.25,12.67-1.72-.34.35q.34-3.88.68-7.69l0-.23.22-.09a31.05,31.05,0,0,0,7.11-4.14l.18-.14.21.09,7,3.21-.45.12,7.75-10.17v.46c-1.68-2-3.34-4-5-5.93l-.14-.17.09-.19a31.34,31.34,0,0,0,2.11-8l0-.2.19-.07,7.24-2.69-.21.35c-.6-4.46-1.16-8.67-1.69-12.67l.27.26-7.69-.7-.17,0-.07-.15A31.11,31.11,0,0,0,233,74.26l-.09-.13.06-.14c1.17-2.55,2.23-4.84,3.23-7l.07.28-10.14-7.79h.22l-6,4.92-.06,0-.07,0a33,33,0,0,0-6-1.86l-1.52-.28-.51-.1a3.31,3.31,0,0,1,.52,0c.34,0,.85.1,1.54.23a29.59,29.59,0,0,1,6,1.75l-.13,0c1.61-1.37,3.53-3,5.89-5l.1-.09.12.08,10.2,7.7.15.11-.08.17c-1,2.18-2,4.48-3.18,7l0-.27a31.53,31.53,0,0,1,4.25,7.25l-.23-.17,7.69.66.24,0,0,.24c.55,4,1.12,8.2,1.74,12.66l0,.26-.24.09-7.23,2.71.22-.27a32.09,32.09,0,0,1-2.14,8.15l-.06-.36q2.45,2.89,5,5.91l.19.22-.18.23-7.73,10.18-.18.24-.27-.13-7-3.19.39,0a31.85,31.85,0,0,1-7.29,4.25l.24-.32c-.22,2.54-.45,5.1-.67,7.69l0,.31-.31,0-12.66,1.73-.31,0-.11-.3-1.35-3.6-.68-1.82-.34-.91-.17-.45-.09-.23,0-.11,0-.06v0h0c.64.51.18.14.32.25h0a31.82,31.82,0,0,1-8.15-2.15l.41-.06-5.93,5-.24.2-.24-.19L180,120.06l-.25-.18.13-.28,3.21-7,.05.39a31.8,31.8,0,0,1-4.24-7.29l.31.23-7.69-.68-.29,0,0-.29c-.6-4.4-1.17-8.69-1.71-12.67l0-.28.26-.09,7.23-2.7-.21.28a31.26,31.26,0,0,1,2.16-8.14l0,.33L174,75.7l-.16-.19.15-.19Q178,70,181.72,65.17l.13-.18.21.09,7,3.22-.27,0a31.29,31.29,0,0,1,7.27-4.21l-.14.19c.25-2.77.49-5.36.71-7.69v-.16l.16,0,12.67-1.64h.1l0,.09,1.94,5.39c.21.59.37,1,.49,1.4A2.54,2.54,0,0,1,212.21,62.17Z" style="fill:#e0e0e0"></path><path d="M151,136a44.29,44.29,0,0,1,11.39,3l8.37-7L185.17,143l-4.53,9.93a44.87,44.87,0,0,1,5.94,10.18l10.87,1L199.88,182l-10.23,3.82a43.89,43.89,0,0,1-3,11.39l7,8.37-10.94,14.38-9.94-4.53a44.29,44.29,0,0,1-10.18,5.94l-1,10.87-17.91,2.43-3.82-10.23a44.38,44.38,0,0,1-11.39-3l-8.37,7-14.38-10.94,4.53-9.94a44.25,44.25,0,0,1-5.93-10.18l-10.88-1-2.43-17.91,10.23-3.82a44,44,0,0,1,3-11.39l-7-8.37,10.94-14.38,9.94,4.53a44.46,44.46,0,0,1,10.18-5.93l1-10.88,17.91-2.43L151,136Zm-7.35,24.86a19.39,19.39,0,1,0,21.81,16.61A19.39,19.39,0,0,0,143.68,160.89Z" style="fill:#e0e0e0;fill-rule:evenodd"></path></g><g id="freepik--Device--inject-10"><rect x="169.36" y="133.22" width="437.31" height="289.19" rx="14.57" style="fill:#455a64"></rect><path d="M152.27,403.73H626.06a0,0,0,0,1,0,0v7.51a17.8,17.8,0,0,1-17.8,17.8H170.07a17.8,17.8,0,0,1-17.8-17.8v-7.51a0,0,0,0,1,0,0Z" style="fill:#455a64"></path><rect x="181.1" y="144.71" width="412.61" height="244.22" style="fill:#263238"></rect><polygon points="344.91 401.02 350.79 410.37 433.52 410.37 438.98 401.02 344.91 401.02" style="fill:#263238"></polygon><rect x="189.6" y="152.98" width="396.46" height="235.17" rx="3.27" style="fill:#ebebeb"></rect><polygon points="585.64 388.49 189.18 388.49 189.6 170.55 585.64 170.55 585.64 388.49" style="fill:#fafafa"></polygon><path d="M222.11,162.06a3.17,3.17,0,1,1-3.16-3.17A3.16,3.16,0,0,1,222.11,162.06Z" style="fill:#263238"></path><path d="M202.92,162.06a3.17,3.17,0,1,1-3.16-3.17A3.16,3.16,0,0,1,202.92,162.06Z" style="fill:#263238"></path><path d="M212.14,162.06a3.17,3.17,0,1,1-3.17-3.17A3.17,3.17,0,0,1,212.14,162.06Z" style="fill:#263238"></path><path d="M602.91,401c0,.16-97.06.28-216.76.28s-216.79-.12-216.79-.28,97-.28,216.79-.28S602.91,400.86,602.91,401Z" style="fill:#263238"></path><path d="M526.6,278.75H257.19a11.93,11.93,0,0,1-11.93-11.93h0a11.94,11.94,0,0,1,11.93-11.94H526.6a11.94,11.94,0,0,1,11.93,11.94h0A11.93,11.93,0,0,1,526.6,278.75Z" style="fill:#ebebeb"></path><path d="M396.39,278.75H382A12,12,0,0,1,369.9,266.7h0a11.65,11.65,0,0,1,11.81-11.82l14.68.06a12.25,12.25,0,0,1,12.05,12.29h0C408.44,273.88,403,278.75,396.39,278.75Z" style="fill:#e0e0e0"></path><g style="clip-path:url(#freepik--clip-path--inject-10)"><path d="M388.92,278.75H257.19a11.93,11.93,0,0,1-11.93-11.93h0a11.94,11.94,0,0,1,11.93-11.94H388.92a11.94,11.94,0,0,1,11.94,11.94h0A11.93,11.93,0,0,1,388.92,278.75Z" style="fill:#FF81AE"></path><g style="opacity:0.2"><polygon points="261.75 254.88 276.33 278.75 286.64 278.75 271.48 254.88 261.75 254.88" style="fill:#fff"></polygon></g><g style="opacity:0.2"><polygon points="239.69 254.88 254.27 278.75 264.58 278.75 249.42 254.88 239.69 254.88" style="fill:#fff"></polygon></g><g style="opacity:0.2"><polygon points="283.09 254.88 297.66 278.75 307.98 278.75 292.82 254.88 283.09 254.88" style="fill:#fff"></polygon></g><g style="opacity:0.2"><polygon points="304.43 254.88 319 278.75 329.32 278.75 314.16 254.88 304.43 254.88" style="fill:#fff"></polygon></g><g style="opacity:0.2"><polygon points="325.76 254.88 340.34 278.75 350.65 278.75 335.49 254.88 325.76 254.88" style="fill:#fff"></polygon></g><g style="opacity:0.2"><polygon points="347.1 254.88 361.67 278.75 371.99 278.75 356.83 254.88 347.1 254.88" style="fill:#fff"></polygon></g><g style="opacity:0.2"><polygon points="368.44 254.88 383.01 278.75 393.33 278.75 378.17 254.88 368.44 254.88" style="fill:#fff"></polygon></g><g style="opacity:0.2"><polygon points="389.77 254.88 404.35 278.75 414.66 278.75 399.5 254.88 389.77 254.88" style="fill:#fff"></polygon></g></g><path d="M326.71,301.62c2.53,0,4,1.26,4,3.44s-1.45,3.6-4,3.6h-2.32v3h-1.7V301.62Zm-2.32,5.52h2.25c1.55,0,2.43-.67,2.43-2s-.88-2-2.43-2h-2.25Z" style="fill:#FF81AE"></path><path d="M332.64,311.7V301h1.66V311.7Z" style="fill:#FF81AE"></path><path d="M343.84,308.5h-5.78a2.32,2.32,0,0,0,2.37,1.92,3,3,0,0,0,2.16-.9l.88.94a4.18,4.18,0,0,1-3.17,1.29,3.67,3.67,0,0,1-3.91-3.87,3.72,3.72,0,0,1,3.87-3.9C343,304,344,305.74,343.84,308.5Zm-1.44-1.21a2,2,0,0,0-2.13-2,2.17,2.17,0,0,0-2.24,2Z" style="fill:#FF81AE"></path><path d="M350.45,310.76a3.09,3.09,0,0,1-2.53,1,2.42,2.42,0,0,1-2.69-2.38c0-1.39,1-2.28,2.89-2.3h2.31v-.23c0-1-.61-1.54-1.82-1.54a4,4,0,0,0-2.26.78l-.68-1.15a5.57,5.57,0,0,1,3.3-1c2,0,3.08,1,3.09,2.69v5h-1.62Zm0-1.75v-.71h-2.07c-1.08,0-1.58.29-1.58,1s.56,1.14,1.48,1.14C349.44,310.46,350.35,309.84,350.43,309Z" style="fill:#FF81AE"></path><path d="M359.55,304.75l-.61,1.22a4.44,4.44,0,0,0-2.2-.68c-.64,0-1.12.22-1.12.77,0,1.41,4.07.64,4.06,3.42,0,1.57-1.4,2.27-2.94,2.27a4.76,4.76,0,0,1-3.08-1.06l.59-1.18a4.2,4.2,0,0,0,2.56.95c.71,0,1.26-.25,1.26-.82,0-1.57-4-.69-4-3.46,0-1.55,1.35-2.21,2.82-2.21A4.83,4.83,0,0,1,359.55,304.75Z" style="fill:#FF81AE"></path><path d="M368.37,308.5h-5.78a2.33,2.33,0,0,0,2.37,1.92,3,3,0,0,0,2.16-.9l.88.94a4.17,4.17,0,0,1-3.17,1.29,3.67,3.67,0,0,1-3.91-3.87,3.73,3.73,0,0,1,3.87-3.9C367.48,304,368.57,305.74,368.37,308.5Zm-1.44-1.21a2,2,0,0,0-2.12-2,2.18,2.18,0,0,0-2.25,2Z" style="fill:#FF81AE"></path><path d="M383.12,311.7l-2.39-7.86-2.42,7.86h-1.76l-3.33-10.08H375l2.45,8.19,2.43-8.17,1.67,0,2.45,8.19,2.43-8.19h1.75l-3.36,10.08Z" style="fill:#FF81AE"></path><path d="M393.51,310.76a3.08,3.08,0,0,1-2.53,1,2.42,2.42,0,0,1-2.69-2.38c0-1.39,1-2.28,2.89-2.3h2.32v-.23c0-1-.62-1.54-1.83-1.54a4,4,0,0,0-2.26.78l-.68-1.15a5.6,5.6,0,0,1,3.3-1c2,0,3.08,1,3.09,2.69l0,5h-1.63Zm0-1.75v-.71h-2.07c-1.08,0-1.59.29-1.59,1s.56,1.14,1.48,1.14C392.5,310.46,393.41,309.84,393.5,309Z" style="fill:#FF81AE"></path><path d="M399.43,301.85a1,1,0,1,1-1-1A1,1,0,0,1,399.43,301.85Zm-1.78,9.85V304h1.64v7.66Z" style="fill:#FF81AE"></path><path d="M406.36,311.21a3.7,3.7,0,0,1-1.89.56,2,2,0,0,1-2.14-2.23v-4h-1.08v-1.24h1.08v-2.1H404v2.1h2.26v1.24H404v3.67c0,.79.3,1,.82,1a2.64,2.64,0,0,0,1.15-.33Z" style="fill:#FF81AE"></path><path d="M415.31,301a12.27,12.27,0,0,0,0,12.46h-1.5a12,12,0,0,1,0-12.46Z" style="fill:#FF81AE"></path><path d="M421.07,307.71v-2.39h1.58v2.39h1.47v1.51h-1.47v2.48h-1.58v-2.48h-4.81V308l3.44-6.34h1.64l-3.26,6.09Z" style="fill:#FF81AE"></path><path d="M427.45,303.15v2.17h1.38c2.19,0,3.6,1.29,3.6,3.06,0,2.05-1.47,3.38-3.73,3.38a6.7,6.7,0,0,1-3.58-1.15l.67-1.38a4.4,4.4,0,0,0,2.72,1.07c1.31,0,2.1-.68,2.1-1.82s-.79-1.65-2.08-1.65c-.61,0-2,.06-2.65.13v-5.33H432v1.53Z" style="fill:#FF81AE"></path><path d="M439.21,304.59c0,1.88-1,3-2.66,3s-2.66-1.14-2.66-3,1-3,2.66-3S439.21,302.72,439.21,304.59Zm-4.22,0c0,1.29.56,2,1.56,2s1.57-.75,1.57-2-.58-2-1.57-2S435,303.31,435,304.59Zm8.21-3h1.58l-7.4,10.08h-1.59Zm3.59,7.1c0,1.88-1,3-2.66,3s-2.66-1.13-2.66-3,1-3,2.66-3S446.79,306.85,446.79,308.72Zm-4.21,0c0,1.29.56,2,1.55,2s1.57-.74,1.57-2-.58-2-1.57-2S442.58,307.44,442.58,308.72Z" style="fill:#FF81AE"></path><path d="M450.85,301a12,12,0,0,1,0,12.46h-1.5a12.27,12.27,0,0,0,0-12.46Z" style="fill:#FF81AE"></path><path d="M343.71,226.64h1.68v10.27h6.35v1.46h-8Z"></path><path d="M352.49,232.5a6.24,6.24,0,1,1,6.25,6A6,6,0,0,1,352.49,232.5Zm10.79,0a4.56,4.56,0,1,0-4.54,4.51A4.4,4.4,0,0,0,363.28,232.5Z"></path><path d="M374.83,235.43h-6.24l-1.29,2.94h-1.72l5.31-11.73h1.66l5.33,11.73h-1.76Zm-.59-1.34-2.53-5.74-2.53,5.74Z"></path><path d="M379.62,226.64h4.94c3.77,0,6.33,2.38,6.33,5.86s-2.56,5.87-6.33,5.87h-4.94Zm4.84,10.27c2.9,0,4.76-1.78,4.76-4.41s-1.86-4.4-4.76-4.4h-3.17v8.81Z"></path><path d="M393.46,226.64h1.67v11.73h-1.67Z"></path><path d="M408.74,226.64v11.73h-1.38l-7-8.75v8.75h-1.68V226.64H400l7,8.74v-8.74Z"></path><path d="M420.38,232.44H422V237a6.92,6.92,0,0,1-4.44,1.49,6,6,0,1,1,0-12,5.88,5.88,0,0,1,4.51,1.81l-1,1a4.64,4.64,0,0,0-3.4-1.35,4.51,4.51,0,1,0,0,9,5,5,0,0,0,2.75-.75Z"></path><path d="M424.37,237.31a1.12,1.12,0,0,1,1.14-1.14,1.1,1.1,0,0,1,1.1,1.14,1.12,1.12,0,0,1-1.1,1.16A1.14,1.14,0,0,1,424.37,237.31Z"></path><path d="M428.17,237.31a1.12,1.12,0,0,1,1.14-1.14,1.11,1.11,0,0,1,1.11,1.14,1.13,1.13,0,0,1-1.11,1.16A1.14,1.14,0,0,1,428.17,237.31Z"></path><path d="M432,237.31a1.12,1.12,0,0,1,1.14-1.14,1.1,1.1,0,0,1,1.11,1.14,1.12,1.12,0,0,1-1.11,1.16A1.14,1.14,0,0,1,432,237.31Z"></path></g></svg>
